%TF.GenerationSoftware,KiCad,Pcbnew,9.0.2*%
%TF.CreationDate,2026-01-27T22:30:12+01:00*%
%TF.ProjectId,obiwanstenobit,6f626977-616e-4737-9465-6e6f6269742e,rev?*%
%TF.SameCoordinates,Original*%
%TF.FileFunction,Paste,Bot*%
%TF.FilePolarity,Positive*%
%FSLAX46Y46*%
G04 Gerber Fmt 4.6, Leading zero omitted, Abs format (unit mm)*
G04 Created by KiCad (PCBNEW 9.0.2) date 2026-01-27 22:30:12*
%MOMM*%
%LPD*%
G01*
G04 APERTURE LIST*
G04 Aperture macros list*
%AMRoundRect*
0 Rectangle with rounded corners*
0 $1 Rounding radius*
0 $2 $3 $4 $5 $6 $7 $8 $9 X,Y pos of 4 corners*
0 Add a 4 corners polygon primitive as box body*
4,1,4,$2,$3,$4,$5,$6,$7,$8,$9,$2,$3,0*
0 Add four circle primitives for the rounded corners*
1,1,$1+$1,$2,$3*
1,1,$1+$1,$4,$5*
1,1,$1+$1,$6,$7*
1,1,$1+$1,$8,$9*
0 Add four rect primitives between the rounded corners*
20,1,$1+$1,$2,$3,$4,$5,0*
20,1,$1+$1,$4,$5,$6,$7,0*
20,1,$1+$1,$6,$7,$8,$9,0*
20,1,$1+$1,$8,$9,$2,$3,0*%
%AMFreePoly0*
4,1,15,-0.950000,1.965000,-0.942430,2.030251,-0.900124,2.126064,-0.826064,2.200124,-0.730251,2.242430,-0.665000,2.250000,0.950000,2.250000,0.950000,-2.250000,-0.665000,-2.250000,-0.730251,-2.242430,-0.826064,-2.200124,-0.900124,-2.126064,-0.942430,-2.030251,-0.950000,-1.965000,-0.950000,1.965000,-0.950000,1.965000,$1*%
G04 Aperture macros list end*
%ADD10C,0.150000*%
%ADD11FreePoly0,0.000000*%
%ADD12RoundRect,0.190500X-0.444500X2.049500X-0.444500X-2.049500X0.444500X-2.049500X0.444500X2.049500X0*%
%ADD13RoundRect,0.190500X2.049500X0.444500X-2.049500X0.444500X-2.049500X-0.444500X2.049500X-0.444500X0*%
%ADD14FreePoly0,270.000000*%
G04 APERTURE END LIST*
D10*
G36*
X121564026Y-116702997D02*
G01*
X122001221Y-116702997D01*
X122001221Y-117140191D01*
X121564026Y-117140191D01*
X121564026Y-117577386D01*
X121564026Y-118014581D01*
X122001221Y-118014581D01*
X122001221Y-117577386D01*
X122438415Y-117577386D01*
X122875610Y-117577386D01*
X123312805Y-117577386D01*
X123312805Y-118014581D01*
X123750000Y-118014581D01*
X123750000Y-118451775D01*
X123750000Y-118888970D01*
X123750000Y-119326165D01*
X123750000Y-119763359D01*
X123750000Y-120200554D01*
X123312805Y-120200554D01*
X123312805Y-120637749D01*
X122875610Y-120637749D01*
X122875610Y-121074944D01*
X122438415Y-121074944D01*
X122001221Y-121074944D01*
X122001221Y-120637749D01*
X121564026Y-120637749D01*
X121564026Y-121074944D01*
X121126831Y-121074944D01*
X120689637Y-121074944D01*
X120689637Y-120637749D01*
X120252442Y-120637749D01*
X120252442Y-120200554D01*
X120689637Y-120200554D01*
X120689637Y-119763359D01*
X120689637Y-119326165D01*
X120689637Y-118888970D01*
X121564026Y-118888970D01*
X121564026Y-119326165D01*
X121564026Y-119763359D01*
X121564026Y-120200554D01*
X122001221Y-120200554D01*
X122438415Y-120200554D01*
X122438415Y-119763359D01*
X122875610Y-119763359D01*
X122875610Y-119326165D01*
X122875610Y-118888970D01*
X122875610Y-118451775D01*
X122875610Y-118014581D01*
X122438415Y-118014581D01*
X122438415Y-118451775D01*
X122001221Y-118451775D01*
X122001221Y-118888970D01*
X121564026Y-118888970D01*
X120689637Y-118888970D01*
X120689637Y-118451775D01*
X120689637Y-118014581D01*
X120689637Y-117577386D01*
X120689637Y-117140191D01*
X120689637Y-116702997D01*
X120689637Y-116265802D01*
X121126831Y-116265802D01*
X121564026Y-116265802D01*
X121564026Y-116702997D01*
G37*
G36*
X117626831Y-120637749D02*
G01*
X117189637Y-120637749D01*
X117189637Y-121074944D01*
X117626831Y-121074944D01*
X118064026Y-121074944D01*
X118501221Y-121074944D01*
X118938415Y-121074944D01*
X119375610Y-121074944D01*
X119375610Y-120637749D01*
X119375610Y-120200554D01*
X119375610Y-119763359D01*
X119375610Y-119326165D01*
X119375610Y-118888970D01*
X119375610Y-118451775D01*
X119375610Y-118014581D01*
X119375610Y-117577386D01*
X119812805Y-117577386D01*
X119812805Y-117140191D01*
X119375610Y-117140191D01*
X119375610Y-116702997D01*
X118938415Y-116702997D01*
X118938415Y-116265802D01*
X118501221Y-116265802D01*
X118501221Y-116702997D01*
X118501221Y-117140191D01*
X118501221Y-117577386D01*
X118501221Y-118014581D01*
X118501221Y-118451775D01*
X118064026Y-118451775D01*
X118064026Y-118888970D01*
X118501221Y-118888970D01*
X118501221Y-119326165D01*
X118501221Y-119763359D01*
X118501221Y-120200554D01*
X118501221Y-120637749D01*
X118064026Y-120637749D01*
X117626831Y-120637749D01*
G37*
G36*
X117189637Y-120637749D02*
G01*
X117189637Y-120200554D01*
X117189637Y-119763359D01*
X117189637Y-119326165D01*
X117189637Y-118888970D01*
X117189637Y-118451775D01*
X117626831Y-118451775D01*
X118064026Y-118451775D01*
X118064026Y-118014581D01*
X117626831Y-118014581D01*
X117626831Y-117577386D01*
X117189637Y-117577386D01*
X116752442Y-117577386D01*
X116752442Y-118014581D01*
X116315247Y-118014581D01*
X116315247Y-118451775D01*
X116315247Y-118888970D01*
X116315247Y-119326165D01*
X116315247Y-119763359D01*
X116315247Y-120200554D01*
X116752442Y-120200554D01*
X116752442Y-120637749D01*
X117189637Y-120637749D01*
G37*
G36*
X115001221Y-121074944D02*
G01*
X115438415Y-121074944D01*
X115438415Y-120637749D01*
X115438415Y-120200554D01*
X115438415Y-119763359D01*
X115438415Y-119326165D01*
X115438415Y-118888970D01*
X115438415Y-118451775D01*
X115875610Y-118451775D01*
X115875610Y-118014581D01*
X115438415Y-118014581D01*
X115438415Y-117577386D01*
X115875610Y-117577386D01*
X115875610Y-117140191D01*
X115438415Y-117140191D01*
X115438415Y-116702997D01*
X115001221Y-116702997D01*
X115001221Y-116265802D01*
X114564026Y-116265802D01*
X114564026Y-116702997D01*
X114564026Y-117140191D01*
X114564026Y-117577386D01*
X114564026Y-118014581D01*
X114126831Y-118014581D01*
X113689637Y-118014581D01*
X113689637Y-118451775D01*
X114126831Y-118451775D01*
X114564026Y-118451775D01*
X114564026Y-118888970D01*
X114564026Y-119326165D01*
X114564026Y-119763359D01*
X114564026Y-120200554D01*
X114126831Y-120200554D01*
X114126831Y-120637749D01*
X114564026Y-120637749D01*
X114564026Y-121074944D01*
X115001221Y-121074944D01*
G37*
G36*
X114126831Y-120200554D02*
G01*
X114126831Y-119763359D01*
X113689637Y-119763359D01*
X113689637Y-120200554D01*
X114126831Y-120200554D01*
G37*
G36*
X123312805Y-111910722D02*
G01*
X123312805Y-111473527D01*
X123312805Y-111036333D01*
X122875610Y-111036333D01*
X122875610Y-110599138D01*
X122438415Y-110599138D01*
X122438415Y-111036333D01*
X122438415Y-111473527D01*
X122875610Y-111473527D01*
X122875610Y-111910722D01*
X123312805Y-111910722D01*
G37*
G36*
X122875610Y-115408280D02*
G01*
X123312805Y-115408280D01*
X123312805Y-114971085D01*
X123312805Y-114533890D01*
X123312805Y-114096695D01*
X123312805Y-113659501D01*
X123750000Y-113659501D01*
X123750000Y-113222306D01*
X123312805Y-113222306D01*
X123312805Y-112785111D01*
X122875610Y-112785111D01*
X122875610Y-112347917D01*
X122438415Y-112347917D01*
X122438415Y-112785111D01*
X122438415Y-113222306D01*
X122438415Y-113659501D01*
X122438415Y-114096695D01*
X122438415Y-114533890D01*
X122001221Y-114533890D01*
X122001221Y-114971085D01*
X122438415Y-114971085D01*
X122438415Y-115408280D01*
X122875610Y-115408280D01*
G37*
G36*
X119817690Y-115408280D02*
G01*
X120254884Y-115408280D01*
X120254884Y-114971085D01*
X120692079Y-114971085D01*
X120692079Y-114533890D01*
X121129274Y-114533890D01*
X121129274Y-114096695D01*
X121129274Y-113659501D01*
X121129274Y-113222306D01*
X121566468Y-113222306D01*
X121566468Y-112785111D01*
X121129274Y-112785111D01*
X121129274Y-112347917D01*
X120692079Y-112347917D01*
X120692079Y-111910722D01*
X120254884Y-111910722D01*
X120254884Y-112347917D01*
X120254884Y-112785111D01*
X120254884Y-113222306D01*
X120254884Y-113659501D01*
X120254884Y-114096695D01*
X119817690Y-114096695D01*
X119817690Y-114533890D01*
X119380495Y-114533890D01*
X118943300Y-114533890D01*
X118943300Y-114971085D01*
X119380495Y-114971085D01*
X119380495Y-115408280D01*
X119817690Y-115408280D01*
G37*
G36*
X118943300Y-114533890D02*
G01*
X118943300Y-114096695D01*
X118943300Y-113659501D01*
X118943300Y-113222306D01*
X118943300Y-112785111D01*
X118943300Y-112347917D01*
X118506106Y-112347917D01*
X118506106Y-111910722D01*
X118068911Y-111910722D01*
X118068911Y-112347917D01*
X118068911Y-112785111D01*
X118068911Y-113222306D01*
X118068911Y-113659501D01*
X118068911Y-114096695D01*
X118506106Y-114096695D01*
X118506106Y-114533890D01*
X118943300Y-114533890D01*
G37*
G36*
X114568911Y-115408280D02*
G01*
X115006106Y-115408280D01*
X115006106Y-114971085D01*
X115006106Y-114533890D01*
X115006106Y-114096695D01*
X115006106Y-113659501D01*
X115006106Y-113222306D01*
X115006106Y-112785111D01*
X115006106Y-112347917D01*
X115443300Y-112347917D01*
X115443300Y-112785111D01*
X115880495Y-112785111D01*
X115880495Y-113222306D01*
X116317690Y-113222306D01*
X116317690Y-113659501D01*
X116317690Y-114096695D01*
X116317690Y-114533890D01*
X115880495Y-114533890D01*
X115880495Y-114971085D01*
X116317690Y-114971085D01*
X116317690Y-115408280D01*
X116754884Y-115408280D01*
X117192079Y-115408280D01*
X117192079Y-114971085D01*
X117192079Y-114533890D01*
X117192079Y-114096695D01*
X117192079Y-113659501D01*
X117192079Y-113222306D01*
X117629274Y-113222306D01*
X117629274Y-112785111D01*
X117192079Y-112785111D01*
X117192079Y-112347917D01*
X116754884Y-112347917D01*
X116754884Y-111910722D01*
X116317690Y-111910722D01*
X116317690Y-112347917D01*
X116317690Y-112785111D01*
X115880495Y-112785111D01*
X115880495Y-112347917D01*
X115443300Y-112347917D01*
X115443300Y-111910722D01*
X115006106Y-111910722D01*
X114568911Y-111910722D01*
X114131716Y-111910722D01*
X114131716Y-112347917D01*
X114131716Y-112785111D01*
X114131716Y-113222306D01*
X114131716Y-113659501D01*
X114131716Y-114096695D01*
X114131716Y-114533890D01*
X113694521Y-114533890D01*
X113694521Y-114971085D01*
X114131716Y-114971085D01*
X114131716Y-115408280D01*
X114568911Y-115408280D01*
G37*
G36*
X123625610Y-126033275D02*
G01*
X124062805Y-126033275D01*
X124062805Y-125596080D01*
X124062805Y-125158885D01*
X123625610Y-125158885D01*
X123188415Y-125158885D01*
X123188415Y-125596080D01*
X123188415Y-126033275D01*
X123625610Y-126033275D01*
G37*
G36*
X120565247Y-125596080D02*
G01*
X120128053Y-125596080D01*
X120128053Y-126033275D01*
X120565247Y-126033275D01*
X121002442Y-126033275D01*
X121439637Y-126033275D01*
X121876831Y-126033275D01*
X121876831Y-125596080D01*
X122314026Y-125596080D01*
X122314026Y-125158885D01*
X122751221Y-125158885D01*
X122751221Y-124721690D01*
X122751221Y-124284496D01*
X122751221Y-123847301D01*
X122751221Y-123410106D01*
X122314026Y-123410106D01*
X122314026Y-122972912D01*
X121876831Y-122972912D01*
X121876831Y-123410106D01*
X121876831Y-123847301D01*
X121876831Y-124284496D01*
X121876831Y-124721690D01*
X121439637Y-124721690D01*
X121439637Y-125158885D01*
X121002442Y-125158885D01*
X121002442Y-125596080D01*
X120565247Y-125596080D01*
G37*
G36*
X120128053Y-125596080D02*
G01*
X120128053Y-125158885D01*
X119690858Y-125158885D01*
X119690858Y-125596080D01*
X120128053Y-125596080D01*
G37*
G36*
X120128053Y-123847301D02*
G01*
X120565247Y-123847301D01*
X120565247Y-123410106D01*
X121002442Y-123410106D01*
X121002442Y-122972912D01*
X121439637Y-122972912D01*
X121876831Y-122972912D01*
X121876831Y-122535717D01*
X121439637Y-122535717D01*
X121002442Y-122535717D01*
X120565247Y-122535717D01*
X120565247Y-122972912D01*
X120128053Y-122972912D01*
X120128053Y-122535717D01*
X119690858Y-122535717D01*
X119690858Y-122972912D01*
X119690858Y-123410106D01*
X119690858Y-123847301D01*
X120128053Y-123847301D01*
G37*
G36*
X117504884Y-126033275D02*
G01*
X117942079Y-126033275D01*
X118379274Y-126033275D01*
X118379274Y-125596080D01*
X118816468Y-125596080D01*
X118816468Y-125158885D01*
X119253663Y-125158885D01*
X119253663Y-124721690D01*
X119253663Y-124284496D01*
X119253663Y-123847301D01*
X119253663Y-123410106D01*
X118816468Y-123410106D01*
X118816468Y-122972912D01*
X118379274Y-122972912D01*
X118379274Y-123410106D01*
X118379274Y-123847301D01*
X118379274Y-124284496D01*
X118379274Y-124721690D01*
X117942079Y-124721690D01*
X117942079Y-125158885D01*
X117504884Y-125158885D01*
X117504884Y-125596080D01*
X117067690Y-125596080D01*
X117067690Y-126033275D01*
X117504884Y-126033275D01*
G37*
G36*
X117067690Y-125596080D02*
G01*
X117067690Y-125158885D01*
X117067690Y-124721690D01*
X117067690Y-124284496D01*
X117067690Y-123847301D01*
X117504884Y-123847301D01*
X117504884Y-123410106D01*
X117942079Y-123410106D01*
X117942079Y-122972912D01*
X118379274Y-122972912D01*
X118379274Y-122535717D01*
X117942079Y-122535717D01*
X117504884Y-122535717D01*
X117067690Y-122535717D01*
X117067690Y-122972912D01*
X116630495Y-122972912D01*
X116630495Y-123410106D01*
X116193300Y-123410106D01*
X116193300Y-123847301D01*
X116193300Y-124284496D01*
X116193300Y-124721690D01*
X116193300Y-125158885D01*
X116630495Y-125158885D01*
X116630495Y-125596080D01*
X117067690Y-125596080D01*
G37*
G36*
X111384159Y-126033275D02*
G01*
X111821353Y-126033275D01*
X111821353Y-125596080D01*
X111821353Y-125158885D01*
X111821353Y-124721690D01*
X111821353Y-124284496D01*
X111821353Y-123847301D01*
X111821353Y-123410106D01*
X112258548Y-123410106D01*
X112258548Y-123847301D01*
X112695743Y-123847301D01*
X112695743Y-124284496D01*
X112695743Y-124721690D01*
X112695743Y-125158885D01*
X112695743Y-125596080D01*
X112695743Y-126033275D01*
X113132937Y-126033275D01*
X113570132Y-126033275D01*
X113570132Y-125596080D01*
X113570132Y-125158885D01*
X113570132Y-124721690D01*
X113570132Y-124284496D01*
X113570132Y-123847301D01*
X113570132Y-123410106D01*
X114007327Y-123410106D01*
X114007327Y-123847301D01*
X114444521Y-123847301D01*
X114444521Y-124284496D01*
X114444521Y-124721690D01*
X114444521Y-125158885D01*
X114444521Y-125596080D01*
X114444521Y-126033275D01*
X114881716Y-126033275D01*
X115318911Y-126033275D01*
X115318911Y-125596080D01*
X115318911Y-125158885D01*
X115318911Y-124721690D01*
X115318911Y-124284496D01*
X115318911Y-123847301D01*
X115756106Y-123847301D01*
X115756106Y-123410106D01*
X115318911Y-123410106D01*
X115318911Y-122972912D01*
X114881716Y-122972912D01*
X114881716Y-122535717D01*
X114444521Y-122535717D01*
X114444521Y-122972912D01*
X114444521Y-123410106D01*
X114007327Y-123410106D01*
X114007327Y-122972912D01*
X113570132Y-122972912D01*
X113570132Y-122535717D01*
X113132937Y-122535717D01*
X112695743Y-122535717D01*
X112695743Y-122972912D01*
X112695743Y-123410106D01*
X112258548Y-123410106D01*
X112258548Y-122972912D01*
X111821353Y-122972912D01*
X111821353Y-122535717D01*
X111384159Y-122535717D01*
X110946964Y-122535717D01*
X110946964Y-122972912D01*
X110946964Y-123410106D01*
X110946964Y-123847301D01*
X110946964Y-124284496D01*
X110946964Y-124721690D01*
X110946964Y-125158885D01*
X110509769Y-125158885D01*
X110509769Y-125596080D01*
X110946964Y-125596080D01*
X110946964Y-126033275D01*
X111384159Y-126033275D01*
G37*
D11*
%TO.C,REF\u002A\u002A*%
X199263000Y-61624971D03*
%TD*%
D12*
%TO.C,J12*%
X164583336Y-127791615D03*
%TD*%
D13*
%TO.C,J2*%
X198000000Y-36124983D03*
%TD*%
%TO.C,J6*%
X198000000Y-70124967D03*
%TD*%
D11*
%TO.C,REF\u002A\u002A*%
X199263000Y-44624979D03*
%TD*%
D12*
%TO.C,J8*%
X130583352Y-127791615D03*
%TD*%
D14*
%TO.C,REF\u002A\u002A*%
X139083348Y-129063615D03*
%TD*%
%TO.C,REF\u002A\u002A*%
X156083340Y-129063615D03*
%TD*%
D13*
%TO.C,J4*%
X198000000Y-53124975D03*
%TD*%
D12*
%TO.C,J10*%
X147583344Y-127791615D03*
%TD*%
M02*
