%TF.GenerationSoftware,KiCad,Pcbnew,9.0.2*%
%TF.CreationDate,2026-01-27T22:30:12+01:00*%
%TF.ProjectId,obiwanstenobit,6f626977-616e-4737-9465-6e6f6269742e,rev?*%
%TF.SameCoordinates,Original*%
%TF.FileFunction,Profile,NP*%
%FSLAX46Y46*%
G04 Gerber Fmt 4.6, Leading zero omitted, Abs format (unit mm)*
G04 Created by KiCad (PCBNEW 9.0.2) date 2026-01-27 22:30:12*
%MOMM*%
%LPD*%
G01*
G04 APERTURE LIST*
%TA.AperFunction,Profile*%
%ADD10C,0.050000*%
%TD*%
G04 APERTURE END LIST*
D10*
X174000000Y-78624963D02*
X173250000Y-79333296D01*
X108750000Y-106958283D02*
X113250000Y-106958283D01*
X170250000Y-94916622D02*
G75*
G02*
X173250000Y-94916622I1500000J0D01*
G01*
X142500000Y-109791615D02*
G75*
G02*
X142500000Y-106958185I0J1416715D01*
G01*
X108000000Y-110499948D02*
X108750000Y-109791615D01*
X173250000Y-116166612D02*
G75*
G02*
X170250000Y-116166612I-1500000J0D01*
G01*
X173250000Y-79333296D02*
X173250000Y-87833292D01*
X170250000Y-77916630D02*
X172500000Y-75791631D01*
X170250000Y-110541615D02*
X170250000Y-116166612D01*
X128458353Y-110541615D02*
X128458353Y-116166612D01*
X124500000Y-127499940D02*
X108750000Y-127499940D01*
X199500000Y-75791631D02*
X172500000Y-75791631D01*
X108000000Y-34708317D02*
X108000000Y-106249950D01*
X201000000Y-78624963D02*
X201750000Y-79333296D01*
X125250000Y-126791607D02*
X125250000Y-123249942D01*
X108750000Y-127499940D02*
X108000000Y-126791607D01*
X125250000Y-123249942D02*
G75*
G02*
X128458354Y-123249942I1604177J-1D01*
G01*
X108000000Y-34708317D02*
X108750000Y-33999984D01*
X169541667Y-130041615D02*
X170250000Y-129291615D01*
X170250000Y-102708285D02*
X170250000Y-94916622D01*
X128458353Y-116166612D02*
G75*
G02*
X125249999Y-116166612I-1604177J0D01*
G01*
X125250000Y-126791607D02*
X124500000Y-127499940D01*
X173250000Y-116166612D02*
X173250000Y-94916622D01*
X170250000Y-123249942D02*
G75*
G02*
X173250000Y-123249942I1500000J0D01*
G01*
X199500000Y-33999984D02*
X108750000Y-33999984D01*
X173250000Y-87833292D02*
G75*
G02*
X170250000Y-87833292I-1500000J0D01*
G01*
X135000000Y-106958283D02*
G75*
G02*
X135000000Y-109791517I0J-1416617D01*
G01*
X108000000Y-126791607D02*
X108000000Y-110499948D01*
X170250000Y-129291615D02*
X170250000Y-123249942D01*
X199500000Y-33999984D02*
X200250000Y-34708317D01*
X129166686Y-109791615D02*
X135000000Y-109791615D01*
X125250000Y-110499948D02*
X125250000Y-116166612D01*
X129166686Y-130041615D02*
X128458353Y-129291615D01*
X199500000Y-75791631D02*
X200250000Y-75083298D01*
X165750000Y-106958283D02*
X142500000Y-106958283D01*
X128458353Y-129291615D02*
X128458353Y-123249942D01*
X142500000Y-109791615D02*
X169541667Y-109791615D01*
X165750000Y-106958283D02*
X170250000Y-102708285D01*
X108750000Y-109791615D02*
X113250000Y-109791517D01*
X169541667Y-130041615D02*
X129166686Y-130041615D01*
X170250000Y-110541615D02*
X169541667Y-109791615D01*
X201750000Y-131749938D02*
X201750000Y-79333296D01*
X124500000Y-109791615D02*
X125250000Y-110499948D01*
X120750000Y-109791615D02*
X124500000Y-109791615D01*
X173250000Y-131749938D02*
X174000000Y-132458271D01*
X201000000Y-132458271D02*
X201750000Y-131749938D01*
X174000000Y-132458271D02*
X201000000Y-132458271D01*
X170250000Y-77916630D02*
X170250000Y-87833292D01*
X135000000Y-106958283D02*
X120750000Y-106958283D01*
X201000000Y-78624963D02*
X174000000Y-78624963D01*
X113250000Y-106958283D02*
G75*
G02*
X113250000Y-109791517I0J-1416617D01*
G01*
X128458353Y-110541615D02*
X129166686Y-109791615D01*
X108750000Y-106958283D02*
X108000000Y-106249950D01*
X120750000Y-109791615D02*
G75*
G02*
X120750000Y-106958185I0J1416715D01*
G01*
X173250000Y-131749938D02*
X173250000Y-123249942D01*
X200250000Y-34708317D02*
X200250000Y-75083298D01*
M02*
