%TF.GenerationSoftware,KiCad,Pcbnew,9.0.2*%
%TF.CreationDate,2026-01-27T22:30:12+01:00*%
%TF.ProjectId,obiwanstenobit,6f626977-616e-4737-9465-6e6f6269742e,rev?*%
%TF.SameCoordinates,Original*%
%TF.FileFunction,Soldermask,Top*%
%TF.FilePolarity,Negative*%
%FSLAX46Y46*%
G04 Gerber Fmt 4.6, Leading zero omitted, Abs format (unit mm)*
G04 Created by KiCad (PCBNEW 9.0.2) date 2026-01-27 22:30:12*
%MOMM*%
%LPD*%
G01*
G04 APERTURE LIST*
G04 Aperture macros list*
%AMRoundRect*
0 Rectangle with rounded corners*
0 $1 Rounding radius*
0 $2 $3 $4 $5 $6 $7 $8 $9 X,Y pos of 4 corners*
0 Add a 4 corners polygon primitive as box body*
4,1,4,$2,$3,$4,$5,$6,$7,$8,$9,$2,$3,0*
0 Add four circle primitives for the rounded corners*
1,1,$1+$1,$2,$3*
1,1,$1+$1,$4,$5*
1,1,$1+$1,$6,$7*
1,1,$1+$1,$8,$9*
0 Add four rect primitives between the rounded corners*
20,1,$1+$1,$2,$3,$4,$5,0*
20,1,$1+$1,$4,$5,$6,$7,0*
20,1,$1+$1,$6,$7,$8,$9,0*
20,1,$1+$1,$8,$9,$2,$3,0*%
%AMFreePoly0*
4,1,6,1.000000,0.000000,0.500000,-0.750000,-0.500000,-0.750000,-0.500000,0.750000,0.500000,0.750000,1.000000,0.000000,1.000000,0.000000,$1*%
%AMFreePoly1*
4,1,6,0.500000,-0.750000,-0.650000,-0.750000,-0.150000,0.000000,-0.650000,0.750000,0.500000,0.750000,0.500000,-0.750000,0.500000,-0.750000,$1*%
%AMFreePoly2*
4,1,15,-0.950000,1.965000,-0.942430,2.030251,-0.900124,2.126064,-0.826064,2.200124,-0.730251,2.242430,-0.665000,2.250000,0.950000,2.250000,0.950000,-2.250000,-0.665000,-2.250000,-0.730251,-2.242430,-0.826064,-2.200124,-0.900124,-2.126064,-0.942430,-2.030251,-0.950000,-1.965000,-0.950000,1.965000,-0.950000,1.965000,$1*%
G04 Aperture macros list end*
%ADD10C,0.500000*%
%ADD11C,1.900000*%
%ADD12C,2.600000*%
%ADD13C,5.050000*%
%ADD14C,2.200000*%
%ADD15O,2.100000X1.300000*%
%ADD16C,3.000000*%
%ADD17C,0.500000*%
%ADD18R,1.600000X1.600000*%
%ADD19O,1.600000X1.600000*%
%ADD20RoundRect,0.190500X-2.049500X-0.444500X2.049500X-0.444500X2.049500X0.444500X-2.049500X0.444500X0*%
%ADD21FreePoly0,0.000000*%
%ADD22FreePoly1,0.000000*%
%ADD23R,1.752600X1.752600*%
%ADD24C,1.752600*%
%ADD25C,3.208000*%
%ADD26C,3.300000*%
%ADD27FreePoly2,0.000000*%
%ADD28O,3.100000X1.300000*%
%ADD29RoundRect,0.190500X0.444500X-2.049500X0.444500X2.049500X-0.444500X2.049500X-0.444500X-2.049500X0*%
%ADD30RoundRect,0.250000X-0.250000X-0.750000X0.250000X-0.750000X0.250000X0.750000X-0.250000X0.750000X0*%
%ADD31C,2.833000*%
%ADD32FreePoly2,270.000000*%
%ADD33C,3.500000*%
G04 APERTURE END LIST*
D10*
G36*
X112912313Y-115844467D02*
G01*
X113159628Y-116091782D01*
X113406943Y-116339097D01*
X113654257Y-116586411D01*
X113901572Y-116833726D01*
X113654257Y-117081041D01*
X113901572Y-117328355D01*
X113654257Y-117575670D01*
X113406943Y-117822985D01*
X113159628Y-118070299D01*
X112912313Y-118317614D01*
X112664999Y-118070299D01*
X112417684Y-118317614D01*
X112170369Y-118070299D01*
X111923055Y-117822985D01*
X111675740Y-117575670D01*
X111428425Y-117328355D01*
X111675740Y-117081041D01*
X111428425Y-116833726D01*
X111675740Y-116586411D01*
X111428425Y-116339097D01*
X111923055Y-116339097D01*
X112170369Y-116586411D01*
X111923055Y-116833726D01*
X112170369Y-117081041D01*
X112417684Y-117328355D01*
X112664999Y-117575670D01*
X112912313Y-117328355D01*
X113159628Y-117081041D01*
X112912313Y-116833726D01*
X113159628Y-116586411D01*
X112912313Y-116339097D01*
X112664999Y-116091782D01*
X112417684Y-116339097D01*
X112170369Y-116091782D01*
X111923055Y-116339097D01*
X111428425Y-116339097D01*
X111675740Y-116091782D01*
X111923055Y-115844467D01*
X112170369Y-115597153D01*
X112417684Y-115844467D01*
X112664999Y-115597153D01*
X112912313Y-115844467D01*
G37*
G36*
X113158246Y-114114646D02*
G01*
X113405561Y-114361961D01*
X113652876Y-114609276D01*
X113900190Y-114856590D01*
X114147505Y-114609276D01*
X114394820Y-114361961D01*
X114642134Y-114114646D01*
X114889449Y-114361961D01*
X115136764Y-114114646D01*
X115384078Y-114361961D01*
X115631393Y-114609276D01*
X115878708Y-114856590D01*
X115631393Y-115103905D01*
X115878708Y-115351220D01*
X115631393Y-115598534D01*
X115384078Y-115845849D01*
X115136764Y-116093164D01*
X114889449Y-116340478D01*
X114642134Y-116587793D01*
X114394820Y-116835108D01*
X114147505Y-116587793D01*
X113900190Y-116340478D01*
X114147505Y-116093164D01*
X113900190Y-115845849D01*
X113652876Y-115598534D01*
X113405561Y-115351220D01*
X113158246Y-115103905D01*
X114147505Y-115103905D01*
X114394820Y-115351220D01*
X114147505Y-115598534D01*
X114394820Y-115845849D01*
X114642134Y-116093164D01*
X114889449Y-115845849D01*
X115136764Y-115598534D01*
X114889449Y-115351220D01*
X115136764Y-115103905D01*
X114889449Y-114856590D01*
X114642134Y-114609276D01*
X114394820Y-114856590D01*
X114147505Y-115103905D01*
X113158246Y-115103905D01*
X112910932Y-114856590D01*
X112663617Y-114609276D01*
X112416302Y-114856590D01*
X112168988Y-114609276D01*
X111921673Y-114361961D01*
X112168988Y-114114646D01*
X112416302Y-113867332D01*
X112663617Y-114114646D01*
X112910932Y-113867332D01*
X113158246Y-114114646D01*
G37*
G36*
X117115281Y-114609276D02*
G01*
X116867966Y-114856590D01*
X116620652Y-114609276D01*
X116373337Y-114856590D01*
X116126022Y-114609276D01*
X115878708Y-114361961D01*
X115631393Y-114114646D01*
X115384078Y-113867332D01*
X115136764Y-113620017D01*
X114889449Y-113372702D01*
X115136764Y-113125388D01*
X115384078Y-113372702D01*
X115631393Y-113125388D01*
X115878708Y-113372702D01*
X116126022Y-113620017D01*
X116373337Y-113867332D01*
X116620652Y-114114646D01*
X116867966Y-113867332D01*
X117115281Y-114114646D01*
X117362596Y-114361961D01*
X117115281Y-114609276D01*
G37*
G36*
X114889449Y-112878073D02*
G01*
X114642134Y-113125388D01*
X114394820Y-112878073D01*
X114147505Y-112630758D01*
X114394820Y-112383444D01*
X114147505Y-112136129D01*
X114394820Y-111888814D01*
X114642134Y-112136129D01*
X114889449Y-112383444D01*
X115136764Y-112630758D01*
X114889449Y-112878073D01*
G37*
G36*
X118697392Y-123072222D02*
G01*
X118944707Y-123319537D01*
X119192021Y-123566851D01*
X119439336Y-123814166D01*
X119686651Y-123566851D01*
X119933965Y-123319537D01*
X120181280Y-123072222D01*
X120428595Y-123319537D01*
X120675909Y-123072222D01*
X120923224Y-123319537D01*
X121170539Y-123566851D01*
X121417853Y-123814166D01*
X121170539Y-124061481D01*
X121417853Y-124308795D01*
X121170539Y-124556110D01*
X120923224Y-124803425D01*
X120675909Y-125050739D01*
X120428595Y-125298054D01*
X120181280Y-125545369D01*
X119933965Y-125792683D01*
X119686651Y-125545369D01*
X119439336Y-125298054D01*
X119686651Y-125050739D01*
X119439336Y-124803425D01*
X119192021Y-124556110D01*
X118944707Y-124308795D01*
X118697392Y-124061481D01*
X119686651Y-124061481D01*
X119933965Y-124308795D01*
X119686651Y-124556110D01*
X119933965Y-124803425D01*
X120181280Y-125050739D01*
X120428595Y-124803425D01*
X120675909Y-124556110D01*
X120428595Y-124308795D01*
X120675909Y-124061481D01*
X120428595Y-123814166D01*
X120181280Y-123566851D01*
X119933965Y-123814166D01*
X119686651Y-124061481D01*
X118697392Y-124061481D01*
X118450077Y-123814166D01*
X118202763Y-123566851D01*
X117955448Y-123814166D01*
X117708133Y-123566851D01*
X117460819Y-123319537D01*
X117708133Y-123072222D01*
X117955448Y-122824907D01*
X118202763Y-123072222D01*
X118450077Y-122824907D01*
X118697392Y-123072222D01*
G37*
G36*
X122654427Y-123566851D02*
G01*
X122407112Y-123814166D01*
X122159797Y-123566851D01*
X121912483Y-123814166D01*
X121665168Y-123566851D01*
X121417853Y-123319537D01*
X121170539Y-123072222D01*
X120923224Y-122824907D01*
X120675909Y-122577593D01*
X120428595Y-122330278D01*
X120675909Y-122082963D01*
X120923224Y-122330278D01*
X121170539Y-122082963D01*
X121417853Y-122330278D01*
X121665168Y-122577593D01*
X121912483Y-122824907D01*
X122159797Y-123072222D01*
X122407112Y-122824907D01*
X122654427Y-123072222D01*
X122901741Y-123319537D01*
X122654427Y-123566851D01*
G37*
G36*
X120428595Y-121835649D02*
G01*
X120181280Y-122082963D01*
X119933965Y-121835649D01*
X119686651Y-121588334D01*
X119933965Y-121341019D01*
X119686651Y-121093705D01*
X119933965Y-120846390D01*
X120181280Y-121093705D01*
X120428595Y-121341019D01*
X120675909Y-121588334D01*
X120428595Y-121835649D01*
G37*
G36*
X123891000Y-122330278D02*
G01*
X123643685Y-122577593D01*
X123396371Y-122330278D01*
X123149056Y-122577593D01*
X122901741Y-122330278D01*
X122654427Y-122082963D01*
X122407112Y-121835649D01*
X122159797Y-121588334D01*
X121912483Y-121341019D01*
X121665168Y-121093705D01*
X121417853Y-121341019D01*
X121170539Y-121093705D01*
X121417853Y-120846390D01*
X121665168Y-120599075D01*
X121417853Y-120351761D01*
X121170539Y-120104446D01*
X121417853Y-119857131D01*
X121170539Y-119609816D01*
X121417853Y-119362502D01*
X121665168Y-119115187D01*
X121912483Y-119362502D01*
X122159797Y-119609816D01*
X121912483Y-119857131D01*
X122159797Y-120104446D01*
X122407112Y-120351761D01*
X122654427Y-120104446D01*
X122901741Y-120351761D01*
X122654427Y-120599075D01*
X122407112Y-120846390D01*
X122654427Y-121093705D01*
X122901741Y-121341019D01*
X123149056Y-121588334D01*
X123396371Y-121835649D01*
X123643685Y-121588334D01*
X123891000Y-121835649D01*
X124138315Y-122082963D01*
X123891000Y-122330278D01*
G37*
G36*
X113772515Y-123271358D02*
G01*
X114019830Y-123518672D01*
X113772515Y-123765987D01*
X113525200Y-124013302D01*
X113277886Y-123765987D01*
X113030571Y-124013302D01*
X112783256Y-124260616D01*
X113030571Y-124507931D01*
X113277886Y-124260616D01*
X113525200Y-124507931D01*
X113772515Y-124260616D01*
X114019830Y-124013302D01*
X114267144Y-124260616D01*
X114514459Y-124013302D01*
X114761774Y-124260616D01*
X115009088Y-124507931D01*
X114761774Y-124755246D01*
X115009088Y-125002560D01*
X114761774Y-125249875D01*
X114514459Y-125497190D01*
X114267144Y-125744504D01*
X114019830Y-125991819D01*
X113772515Y-125744504D01*
X113525200Y-125991819D01*
X113277886Y-125744504D01*
X113030571Y-125497190D01*
X113277886Y-125249875D01*
X113525200Y-125002560D01*
X113772515Y-125249875D01*
X114019830Y-125002560D01*
X114267144Y-124755246D01*
X114019830Y-124507931D01*
X113772515Y-124755246D01*
X113525200Y-125002560D01*
X113277886Y-124755246D01*
X113030571Y-125002560D01*
X112783256Y-124755246D01*
X112535942Y-125002560D01*
X112288627Y-124755246D01*
X112535942Y-124507931D01*
X112288627Y-124260616D01*
X112535942Y-124013302D01*
X112288627Y-123765987D01*
X112535942Y-123518672D01*
X112783256Y-123271358D01*
X113030571Y-123024043D01*
X113277886Y-123271358D01*
X113525200Y-123024043D01*
X113772515Y-123271358D01*
G37*
G36*
X116491595Y-124014683D02*
G01*
X116244280Y-124261998D01*
X115996965Y-124014683D01*
X115749651Y-124261998D01*
X115502336Y-124014683D01*
X115255021Y-123767369D01*
X115007707Y-123520054D01*
X114760392Y-123272739D01*
X114513077Y-123025425D01*
X114265763Y-122778110D01*
X114018448Y-123025425D01*
X113771133Y-122778110D01*
X114018448Y-122530795D01*
X114265763Y-122283481D01*
X114018448Y-122036166D01*
X113771133Y-121788851D01*
X114018448Y-121541537D01*
X113771133Y-121294222D01*
X114018448Y-121046907D01*
X114265763Y-120799593D01*
X114513077Y-121046907D01*
X114760392Y-121294222D01*
X114513077Y-121541537D01*
X114760392Y-121788851D01*
X115007707Y-122036166D01*
X115255021Y-121788851D01*
X115502336Y-122036166D01*
X115255021Y-122283481D01*
X115007707Y-122530795D01*
X115255021Y-122778110D01*
X115502336Y-123025425D01*
X115749651Y-123272739D01*
X115996965Y-123520054D01*
X116244280Y-123272739D01*
X116491595Y-123520054D01*
X116738909Y-123767369D01*
X116491595Y-124014683D01*
G37*
G36*
X117233539Y-120304963D02*
G01*
X117480853Y-120552278D01*
X117233539Y-120799593D01*
X117480853Y-121046907D01*
X117233539Y-121294222D01*
X116986224Y-121541537D01*
X116738909Y-121788851D01*
X116986224Y-122036166D01*
X117233539Y-121788851D01*
X117480853Y-122036166D01*
X117728168Y-121788851D01*
X117480853Y-121541537D01*
X117728168Y-121294222D01*
X117480853Y-121046907D01*
X117728168Y-120799593D01*
X117975483Y-120552278D01*
X118222797Y-120799593D01*
X118470112Y-121046907D01*
X118222797Y-121294222D01*
X118470112Y-121541537D01*
X118222797Y-121788851D01*
X117975483Y-122036166D01*
X117728168Y-122283481D01*
X117480853Y-122530795D01*
X117233539Y-122283481D01*
X116986224Y-122530795D01*
X116738909Y-122283481D01*
X116491595Y-122530795D01*
X116244280Y-122283481D01*
X115996965Y-122036166D01*
X115749651Y-121788851D01*
X115996965Y-121541537D01*
X115749651Y-121294222D01*
X115996965Y-121046907D01*
X115749651Y-120799593D01*
X116244280Y-120799593D01*
X116491595Y-121046907D01*
X116244280Y-121294222D01*
X116491595Y-121541537D01*
X116738909Y-121294222D01*
X116986224Y-121046907D01*
X116738909Y-120799593D01*
X116491595Y-120552278D01*
X116244280Y-120799593D01*
X115749651Y-120799593D01*
X115996965Y-120552278D01*
X116244280Y-120304963D01*
X116491595Y-120057649D01*
X116738909Y-120304963D01*
X116986224Y-120057649D01*
X117233539Y-120304963D01*
G37*
G36*
X120448629Y-120057649D02*
G01*
X120201315Y-120304963D01*
X119954000Y-120057649D01*
X119706685Y-119810334D01*
X119954000Y-119563019D01*
X119706685Y-119315705D01*
X119459371Y-119068390D01*
X119212056Y-118821075D01*
X118964741Y-118573761D01*
X118717427Y-118821075D01*
X118470112Y-119068390D01*
X118717427Y-119315705D01*
X118964741Y-119563019D01*
X119212056Y-119810334D01*
X119459371Y-120057649D01*
X119212056Y-120304963D01*
X119459371Y-120552278D01*
X119212056Y-120799593D01*
X118964741Y-121046907D01*
X118717427Y-120799593D01*
X118470112Y-120552278D01*
X118717427Y-120304963D01*
X118470112Y-120057649D01*
X118222797Y-119810334D01*
X117975483Y-120057649D01*
X117728168Y-119810334D01*
X117480853Y-119563019D01*
X117233539Y-119315705D01*
X117480853Y-119068390D01*
X117728168Y-118821075D01*
X117975483Y-119068390D01*
X118222797Y-118821075D01*
X117975483Y-118573761D01*
X118222797Y-118326446D01*
X118470112Y-118079131D01*
X118717427Y-118326446D01*
X118964741Y-118079131D01*
X119212056Y-118326446D01*
X119459371Y-118079131D01*
X119706685Y-118326446D01*
X119954000Y-118573761D01*
X120201315Y-118821075D01*
X120448629Y-119068390D01*
X120695944Y-119315705D01*
X120448629Y-119563019D01*
X120695944Y-119810334D01*
X120448629Y-120057649D01*
G37*
G36*
X121190573Y-116347929D02*
G01*
X121437888Y-116595243D01*
X121685203Y-116842558D01*
X121932517Y-117089873D01*
X122179832Y-117337187D01*
X121932517Y-117584502D01*
X122179832Y-117831817D01*
X121932517Y-118079131D01*
X121685203Y-118326446D01*
X121437888Y-118573761D01*
X121190573Y-118821075D01*
X120943259Y-118573761D01*
X120695944Y-118821075D01*
X120448629Y-118573761D01*
X120201315Y-118326446D01*
X119954000Y-118079131D01*
X119706685Y-117831817D01*
X119954000Y-117584502D01*
X119706685Y-117337187D01*
X119954000Y-117089873D01*
X119706685Y-116842558D01*
X120201315Y-116842558D01*
X120448629Y-117089873D01*
X120201315Y-117337187D01*
X120448629Y-117584502D01*
X120695944Y-117831817D01*
X120943259Y-118079131D01*
X121190573Y-117831817D01*
X121437888Y-117584502D01*
X121190573Y-117337187D01*
X121437888Y-117089873D01*
X121190573Y-116842558D01*
X120943259Y-116595243D01*
X120695944Y-116842558D01*
X120448629Y-116595243D01*
X120201315Y-116842558D01*
X119706685Y-116842558D01*
X119954000Y-116595243D01*
X120201315Y-116347929D01*
X120448629Y-116100614D01*
X120695944Y-116347929D01*
X120943259Y-116100614D01*
X121190573Y-116347929D01*
G37*
G36*
X116158247Y-119488347D02*
G01*
X115910932Y-119241032D01*
X115663617Y-119488347D01*
X115416303Y-119735662D01*
X115663617Y-119982976D01*
X115416303Y-120230291D01*
X115168988Y-120477606D01*
X114921673Y-120230291D01*
X114674359Y-120477606D01*
X114427044Y-120230291D01*
X114179729Y-119982976D01*
X113932415Y-119735662D01*
X113685100Y-119488347D01*
X113437785Y-119241032D01*
X113685100Y-118993718D01*
X113932415Y-118746403D01*
X114179729Y-118993718D01*
X114427044Y-119241032D01*
X114179729Y-119488347D01*
X114427044Y-119735662D01*
X114674359Y-119488347D01*
X114921673Y-119735662D01*
X115168988Y-119488347D01*
X114921673Y-119241032D01*
X114674359Y-118993718D01*
X114921673Y-118746403D01*
X115168988Y-118993718D01*
X115416303Y-118746403D01*
X115663617Y-118993718D01*
X115910932Y-118746403D01*
X115663617Y-118499088D01*
X115416303Y-118251774D01*
X115168988Y-118004459D01*
X114921673Y-118251774D01*
X114674359Y-118004459D01*
X114427044Y-117757144D01*
X114674359Y-117509830D01*
X114921673Y-117262515D01*
X115168988Y-117509830D01*
X115416303Y-117262515D01*
X115663617Y-117509830D01*
X115910932Y-117757144D01*
X116158247Y-118004459D01*
X115910932Y-118251774D01*
X116158247Y-118499088D01*
X116405561Y-118746403D01*
X116158247Y-118993718D01*
X116405561Y-119241032D01*
X116158247Y-119488347D01*
G37*
G36*
X117643516Y-115529931D02*
G01*
X117890831Y-115777245D01*
X118138146Y-116024560D01*
X117890831Y-116271875D01*
X118138146Y-116519189D01*
X118385460Y-116766504D01*
X118632775Y-116519189D01*
X118880090Y-116766504D01*
X119127404Y-117013819D01*
X118880090Y-117261133D01*
X118632775Y-117508448D01*
X118385460Y-117261133D01*
X118138146Y-117508448D01*
X117890831Y-117755763D01*
X117643516Y-118003077D01*
X117396202Y-118250392D01*
X117148887Y-118003077D01*
X116901572Y-118250392D01*
X116654258Y-118003077D01*
X116406943Y-117755763D01*
X116654258Y-117508448D01*
X116406943Y-117261133D01*
X116901572Y-117261133D01*
X117148887Y-117508448D01*
X117396202Y-117261133D01*
X117643516Y-117508448D01*
X117890831Y-117261133D01*
X117643516Y-117013819D01*
X117396202Y-116766504D01*
X117148887Y-117013819D01*
X116901572Y-117261133D01*
X116406943Y-117261133D01*
X116654258Y-117013819D01*
X116901572Y-116766504D01*
X117148887Y-116519189D01*
X117396202Y-116271875D01*
X117148887Y-116024560D01*
X116901572Y-115777245D01*
X116654258Y-116024560D01*
X116406943Y-116271875D01*
X116654258Y-116519189D01*
X116406943Y-116766504D01*
X116159628Y-117013819D01*
X115912314Y-116766504D01*
X115664999Y-116519189D01*
X115912314Y-116271875D01*
X115664999Y-116024560D01*
X115912314Y-115777245D01*
X116159628Y-115529931D01*
X116406943Y-115282616D01*
X116654258Y-115529931D01*
X116901572Y-115282616D01*
X117148887Y-115529931D01*
X117396202Y-115282616D01*
X117643516Y-115529931D01*
G37*
G36*
X120611292Y-115529931D02*
G01*
X120363978Y-115777245D01*
X120116663Y-115529931D01*
X119869348Y-115282616D01*
X120116663Y-115035301D01*
X119869348Y-114787987D01*
X119622034Y-114540672D01*
X119374719Y-114293357D01*
X119127404Y-114046043D01*
X118880090Y-114293357D01*
X118632775Y-114540672D01*
X118880090Y-114787987D01*
X119127404Y-115035301D01*
X119374719Y-115282616D01*
X119622034Y-115529931D01*
X119374719Y-115777245D01*
X119622034Y-116024560D01*
X119374719Y-116271875D01*
X119127404Y-116519189D01*
X118880090Y-116271875D01*
X118632775Y-116024560D01*
X118880090Y-115777245D01*
X118632775Y-115529931D01*
X118385460Y-115282616D01*
X118138146Y-115529931D01*
X117890831Y-115282616D01*
X117643516Y-115035301D01*
X117396202Y-114787987D01*
X117643516Y-114540672D01*
X117890831Y-114293357D01*
X118138146Y-114540672D01*
X118385460Y-114293357D01*
X118138146Y-114046043D01*
X118385460Y-113798728D01*
X118632775Y-113551413D01*
X118880090Y-113798728D01*
X119127404Y-113551413D01*
X119374719Y-113798728D01*
X119622034Y-113551413D01*
X119869348Y-113798728D01*
X120116663Y-114046043D01*
X120363978Y-114293357D01*
X120611292Y-114540672D01*
X120858607Y-114787987D01*
X120611292Y-115035301D01*
X120858607Y-115282616D01*
X120611292Y-115529931D01*
G37*
%TO.C,JP2*%
G36*
X123275000Y-72208299D02*
G01*
X125725000Y-72208299D01*
X125725000Y-73708299D01*
X123275000Y-73708299D01*
X123275000Y-72208299D01*
G37*
%TO.C,JP8*%
G36*
X123275000Y-84958293D02*
G01*
X125725000Y-84958293D01*
X125725000Y-86458293D01*
X123275000Y-86458293D01*
X123275000Y-84958293D01*
G37*
%TO.C,JP6*%
G36*
X123275000Y-80708295D02*
G01*
X125725000Y-80708295D01*
X125725000Y-82208295D01*
X123275000Y-82208295D01*
X123275000Y-80708295D01*
G37*
%TO.C,JP4*%
G36*
X123275000Y-76458297D02*
G01*
X125725000Y-76458297D01*
X125725000Y-77958297D01*
X123275000Y-77958297D01*
X123275000Y-76458297D01*
G37*
%TD*%
D11*
%TO.C,MX15*%
X156083340Y-126541615D03*
D12*
X161233340Y-126041615D03*
D13*
X156083340Y-121041615D03*
D12*
X161233340Y-116041615D03*
D11*
X156083340Y-115541615D03*
D14*
X150183340Y-121041615D03*
X152283340Y-126041615D03*
X152283340Y-116041615D03*
%TD*%
D15*
%TO.C,J15*%
X190755000Y-118216610D03*
X191755000Y-122616610D03*
X195755000Y-122616610D03*
X198755000Y-122616610D03*
%TD*%
D16*
%TO.C,mouse-bite-2.54mm-slot*%
X171750000Y-123249777D03*
D17*
X170420000Y-121808277D03*
X173080000Y-121808277D03*
X170420000Y-121108277D03*
X173080000Y-121108277D03*
X170420000Y-120408277D03*
X173080000Y-120408277D03*
X170420000Y-119708277D03*
X173080000Y-119708277D03*
X170420000Y-119008277D03*
X173080000Y-119008277D03*
X170420000Y-118308277D03*
X173080000Y-118308277D03*
X170420000Y-117608277D03*
X173080000Y-117608277D03*
D16*
X171750000Y-116152277D03*
%TD*%
D11*
%TO.C,MX13*%
X149750000Y-96333288D03*
D12*
X150250000Y-101483288D03*
D13*
X155250000Y-96333288D03*
D12*
X160250000Y-101483288D03*
D11*
X160750000Y-96333288D03*
D14*
X155250000Y-90433288D03*
X150250000Y-92533288D03*
X160250000Y-92533288D03*
%TD*%
D18*
%TO.C,D11*%
X160500000Y-81147963D03*
D19*
X160500000Y-76067963D03*
%TD*%
D15*
%TO.C,J16*%
X190755000Y-125936610D03*
X191755000Y-130336610D03*
X195755000Y-130336610D03*
X198755000Y-130336610D03*
%TD*%
D20*
%TO.C,J1*%
X198000000Y-36124983D03*
%TD*%
D21*
%TO.C,JP2*%
X123775000Y-72958299D03*
D22*
X125225000Y-72958299D03*
%TD*%
D18*
%TO.C,D15*%
X167416668Y-118314615D03*
D19*
X167416668Y-113234615D03*
%TD*%
D23*
%TO.C,U1*%
X179880000Y-82363288D03*
D24*
X179880000Y-84903288D03*
X179880000Y-87443288D03*
X179880000Y-89983288D03*
X179880000Y-92523288D03*
X179880000Y-95063288D03*
X179880000Y-97603288D03*
X179880000Y-100143288D03*
X179880000Y-102683288D03*
X179880000Y-105223288D03*
X179880000Y-107763288D03*
X179880000Y-110303288D03*
X195120000Y-110303288D03*
X195120000Y-107763288D03*
X195120000Y-105223288D03*
X195120000Y-102683288D03*
X195120000Y-100143288D03*
X195120000Y-97603288D03*
X195120000Y-95063288D03*
X195120000Y-92523288D03*
X195120000Y-89983288D03*
X195120000Y-87443288D03*
X195120000Y-84903288D03*
X195120000Y-82363288D03*
%TD*%
D25*
%TO.C,mouse-bite-2.54mm-slot*%
X126854000Y-123249777D03*
D17*
X125420000Y-121808277D03*
X128288000Y-121808277D03*
X125420000Y-121108277D03*
X128288000Y-121108277D03*
X125420000Y-120408277D03*
X128288000Y-120408277D03*
X125420000Y-119708277D03*
X128288000Y-119708277D03*
X125420000Y-119008277D03*
X128288000Y-119008277D03*
X125420000Y-118308277D03*
X128288000Y-118308277D03*
X125420000Y-117608277D03*
X128288000Y-117608277D03*
D25*
X126854000Y-116152277D03*
%TD*%
D11*
%TO.C,MX8*%
X149750000Y-61624971D03*
D12*
X150250000Y-66774971D03*
D13*
X155250000Y-61624971D03*
D12*
X160250000Y-66774971D03*
D11*
X160750000Y-61624971D03*
D14*
X155250000Y-55724971D03*
X150250000Y-57824971D03*
X160250000Y-57824971D03*
%TD*%
D15*
%TO.C,J14*%
X184245000Y-130336610D03*
X183245000Y-125936610D03*
X179245000Y-125936610D03*
X176245000Y-125936610D03*
%TD*%
D11*
%TO.C,MX5*%
X185750000Y-44624979D03*
D12*
X186250000Y-49774979D03*
D13*
X191250000Y-44624979D03*
D12*
X196250000Y-49774979D03*
D11*
X196750000Y-44624979D03*
D14*
X191250000Y-38724979D03*
X186250000Y-40824979D03*
X196250000Y-40824979D03*
%TD*%
D11*
%TO.C,MX3*%
X149750000Y-44624979D03*
D12*
X150250000Y-49774979D03*
D13*
X155250000Y-44624979D03*
D12*
X160250000Y-49774979D03*
D11*
X160750000Y-44624979D03*
D14*
X155250000Y-38724979D03*
X150250000Y-40824979D03*
X160250000Y-40824979D03*
%TD*%
D18*
%TO.C,D2*%
X133500000Y-81147963D03*
D19*
X133500000Y-76067963D03*
%TD*%
D11*
%TO.C,MX1*%
X113750000Y-44624979D03*
D12*
X114250000Y-49774979D03*
D13*
X119250000Y-44624979D03*
D12*
X124250000Y-49774979D03*
D11*
X124750000Y-44624979D03*
D14*
X119250000Y-38724979D03*
X114250000Y-40824979D03*
X124250000Y-40824979D03*
%TD*%
D26*
%TO.C,HOLE5*%
X175500000Y-97749954D03*
%TD*%
D18*
%TO.C,D4*%
X139500000Y-81147963D03*
D19*
X139500000Y-76067963D03*
%TD*%
D11*
%TO.C,MX2*%
X131750000Y-44624979D03*
D12*
X132250000Y-49774979D03*
D13*
X137250000Y-44624979D03*
D12*
X142250000Y-49774979D03*
D11*
X142750000Y-44624979D03*
D14*
X137250000Y-38724979D03*
X132250000Y-40824979D03*
X142250000Y-40824979D03*
%TD*%
D11*
%TO.C,MX4*%
X167750000Y-44624979D03*
D12*
X168250000Y-49774979D03*
D13*
X173250000Y-44624979D03*
D12*
X178250000Y-49774979D03*
D11*
X178750000Y-44624979D03*
D14*
X173250000Y-38724979D03*
X168250000Y-40824979D03*
X178250000Y-40824979D03*
%TD*%
D11*
%TO.C,MX12*%
X131750000Y-96333288D03*
D12*
X132250000Y-101483288D03*
D13*
X137250000Y-96333288D03*
D12*
X142250000Y-101483288D03*
D11*
X142750000Y-96333288D03*
D14*
X137250000Y-90433288D03*
X132250000Y-92533288D03*
X142250000Y-92533288D03*
%TD*%
D26*
%TO.C,HOLE5*%
X147583344Y-112041615D03*
%TD*%
D21*
%TO.C,JP8*%
X123775000Y-85708293D03*
D22*
X125225000Y-85708293D03*
%TD*%
D18*
%TO.C,D8*%
X151500000Y-81147963D03*
D19*
X151500000Y-76067963D03*
%TD*%
D18*
%TO.C,D5*%
X142500000Y-81147963D03*
D19*
X142500000Y-76067963D03*
%TD*%
D27*
%TO.C,REF\u002A\u002A*%
X199263000Y-44624979D03*
%TD*%
D26*
%TO.C,HOLE5*%
X182250000Y-53124975D03*
%TD*%
D28*
%TO.C,J18*%
X118495000Y-85711631D03*
X118495000Y-81311631D03*
D15*
X113995000Y-81311631D03*
X113995000Y-85711631D03*
X110995000Y-81311631D03*
X110995000Y-85711631D03*
%TD*%
D27*
%TO.C,REF\u002A\u002A*%
X199263000Y-61624971D03*
%TD*%
D20*
%TO.C,J3*%
X198000000Y-53124975D03*
%TD*%
D18*
%TO.C,D3*%
X136500000Y-81147963D03*
D19*
X136500000Y-76067963D03*
%TD*%
D15*
%TO.C,J13*%
X184245000Y-122616610D03*
X183245000Y-118216610D03*
X179245000Y-118216610D03*
X176245000Y-118216610D03*
%TD*%
D11*
%TO.C,MX14*%
X139083348Y-126541615D03*
D12*
X144233348Y-126041615D03*
D13*
X139083348Y-121041615D03*
D12*
X144233348Y-116041615D03*
D11*
X139083348Y-115541615D03*
D14*
X133183348Y-121041615D03*
X135283348Y-126041615D03*
X135283348Y-116041615D03*
%TD*%
D18*
%TO.C,D12*%
X163500000Y-81147963D03*
D19*
X163500000Y-76067963D03*
%TD*%
D18*
%TO.C,D7*%
X148500000Y-81147963D03*
D19*
X148500000Y-76067963D03*
%TD*%
D29*
%TO.C,J9*%
X147583344Y-127791615D03*
%TD*%
D18*
%TO.C,D13*%
X166500000Y-81147963D03*
D19*
X166500000Y-76067963D03*
%TD*%
D30*
%TO.C,SW1*%
X185400000Y-114041613D03*
X189600000Y-114041613D03*
%TD*%
D16*
%TO.C,mouse-bite-2.54mm-slot*%
X171750000Y-94916457D03*
D17*
X170420000Y-93474957D03*
X173080000Y-93474957D03*
X170420000Y-92774957D03*
X173080000Y-92774957D03*
X170420000Y-92074957D03*
X173080000Y-92074957D03*
X170420000Y-91374957D03*
X173080000Y-91374957D03*
X170420000Y-90674957D03*
X173080000Y-90674957D03*
X170420000Y-89974957D03*
X173080000Y-89974957D03*
X170420000Y-89274957D03*
X173080000Y-89274957D03*
D16*
X171750000Y-87818957D03*
%TD*%
D31*
%TO.C,mouse-bite-2.54mm-slot*%
X113250000Y-108374949D03*
D17*
X114714000Y-107104949D03*
X114714000Y-109644949D03*
X115476000Y-107104949D03*
X115476000Y-109644949D03*
X116238000Y-107104949D03*
X116238000Y-109644949D03*
X117000000Y-107104949D03*
X117000000Y-109644949D03*
X117762000Y-107104949D03*
X117762000Y-109644949D03*
X118524000Y-107104949D03*
X118524000Y-109644949D03*
X119286000Y-107104949D03*
X119286000Y-109644949D03*
D31*
X120750000Y-108374949D03*
%TD*%
D21*
%TO.C,JP6*%
X123775000Y-81458295D03*
D22*
X125225000Y-81458295D03*
%TD*%
D18*
%TO.C,D10*%
X157500000Y-81147963D03*
D19*
X157500000Y-76067963D03*
%TD*%
D28*
%TO.C,J17*%
X118495000Y-77283298D03*
X118495000Y-72883298D03*
D15*
X113995000Y-72883298D03*
X113995000Y-77283298D03*
X110995000Y-72883298D03*
X110995000Y-77283298D03*
%TD*%
D26*
%TO.C,HOLE5*%
X128250000Y-53124975D03*
%TD*%
D21*
%TO.C,JP4*%
X123775000Y-77208297D03*
D22*
X125225000Y-77208297D03*
%TD*%
D32*
%TO.C,REF\u002A\u002A*%
X156083340Y-129063615D03*
%TD*%
D18*
%TO.C,D1*%
X130500000Y-81147963D03*
D19*
X130500000Y-76067963D03*
%TD*%
D33*
%TO.C,HOLE5*%
X110250000Y-111916614D03*
%TD*%
D11*
%TO.C,MX11*%
X113750000Y-96333288D03*
D12*
X114250000Y-101483288D03*
D13*
X119250000Y-96333288D03*
D12*
X124250000Y-101483288D03*
D11*
X124750000Y-96333288D03*
D14*
X119250000Y-90433288D03*
X114250000Y-92533288D03*
X124250000Y-92533288D03*
%TD*%
D18*
%TO.C,D9*%
X154500000Y-81147963D03*
D19*
X154500000Y-76067963D03*
%TD*%
D20*
%TO.C,J5*%
X198000000Y-70124967D03*
%TD*%
D26*
%TO.C,HOLE5*%
X146250000Y-87833292D03*
%TD*%
%TO.C,HOLE5*%
X199500000Y-97749954D03*
%TD*%
D29*
%TO.C,J7*%
X130583352Y-127791615D03*
%TD*%
D32*
%TO.C,REF\u002A\u002A*%
X139083348Y-129063615D03*
%TD*%
D31*
%TO.C,mouse-bite-2.54mm-slot*%
X135000000Y-108374949D03*
D17*
X136464000Y-107104949D03*
X136464000Y-109644949D03*
X137226000Y-107104949D03*
X137226000Y-109644949D03*
X137988000Y-107104949D03*
X137988000Y-109644949D03*
X138750000Y-107104949D03*
X138750000Y-109644949D03*
X139512000Y-107104949D03*
X139512000Y-109644949D03*
X140274000Y-107104949D03*
X140274000Y-109644949D03*
X141036000Y-107104949D03*
X141036000Y-109644949D03*
D31*
X142500000Y-108374949D03*
%TD*%
D11*
%TO.C,MX6*%
X113750000Y-61624971D03*
D12*
X114250000Y-66774971D03*
D13*
X119250000Y-61624971D03*
D12*
X124250000Y-66774971D03*
D11*
X124750000Y-61624971D03*
D14*
X119250000Y-55724971D03*
X114250000Y-57824971D03*
X124250000Y-57824971D03*
%TD*%
D11*
%TO.C,MX9*%
X167750000Y-61624971D03*
D12*
X168250000Y-66774971D03*
D13*
X173250000Y-61624971D03*
D12*
X178250000Y-66774971D03*
D11*
X178750000Y-61624971D03*
D14*
X173250000Y-55724971D03*
X168250000Y-57824971D03*
X178250000Y-57824971D03*
%TD*%
D18*
%TO.C,D14*%
X167416668Y-127314615D03*
D19*
X167416668Y-122234615D03*
%TD*%
D11*
%TO.C,MX7*%
X131750000Y-61624971D03*
D12*
X132250000Y-66774971D03*
D13*
X137250000Y-61624971D03*
D12*
X142250000Y-66774971D03*
D11*
X142750000Y-61624971D03*
D14*
X137250000Y-55724971D03*
X132250000Y-57824971D03*
X142250000Y-57824971D03*
%TD*%
D29*
%TO.C,J11*%
X164583336Y-127791615D03*
%TD*%
D11*
%TO.C,MX10*%
X185750000Y-61624971D03*
D12*
X186250000Y-66774971D03*
D13*
X191250000Y-61624971D03*
D12*
X196250000Y-66774971D03*
D11*
X196750000Y-61624971D03*
D14*
X191250000Y-55724971D03*
X186250000Y-57824971D03*
X196250000Y-57824971D03*
%TD*%
D18*
%TO.C,D6*%
X145500000Y-81147963D03*
D19*
X145500000Y-76067963D03*
%TD*%
M02*
