M48
; DRILL file {KiCad 9.0.2} date 2026-01-27T22:30:16+0100
; FORMAT={-:-/ absolute / metric / decimal}
; #@! TF.CreationDate,2026-01-27T22:30:16+01:00
; #@! TF.GenerationSoftware,Kicad,Pcbnew,9.0.2
; #@! TF.FileFunction,Plated,1,2,PTH
FMAT,2
METRIC
; #@! TA.AperFunction,Plated,PTH,ViaDrill
T1C0.300
; #@! TA.AperFunction,Plated,PTH,ComponentDrill
T2C0.700
; #@! TA.AperFunction,Plated,PTH,ComponentDrill
T3C0.800
; #@! TA.AperFunction,Plated,PTH,ComponentDrill
T4C1.092
; #@! TA.AperFunction,Plated,PTH,ComponentDrill
T5C1.200
; #@! TA.AperFunction,Plated,PTH,ComponentDrill
T6C1.600
; #@! TA.AperFunction,Plated,PTH,ComponentDrill
T7C2.200
; #@! TA.AperFunction,Plated,PTH,ComponentDrill
T8C2.500
%
G90
G05
T1
X127.5Y-72.898
X127.5Y-77.208
X127.5Y-81.458
X127.5Y-85.598
X143.51Y-59.69
X144.145Y-63.5
T3
X130.5Y-76.068
X130.5Y-81.148
X133.5Y-76.068
X133.5Y-81.148
X136.5Y-76.068
X136.5Y-81.148
X139.5Y-76.068
X139.5Y-81.148
X142.5Y-76.068
X142.5Y-81.148
X145.5Y-76.068
X145.5Y-81.148
X148.5Y-76.068
X148.5Y-81.148
X151.5Y-76.068
X151.5Y-81.148
X154.5Y-76.068
X154.5Y-81.148
X157.5Y-76.068
X157.5Y-81.148
X160.5Y-76.068
X160.5Y-81.148
X163.5Y-76.068
X163.5Y-81.148
X166.5Y-76.068
X166.5Y-81.148
X167.417Y-113.235
X167.417Y-118.315
X167.417Y-122.235
X167.417Y-127.315
T4
X179.88Y-82.363
X179.88Y-84.903
X179.88Y-87.443
X179.88Y-89.983
X179.88Y-92.523
X179.88Y-95.063
X179.88Y-97.603
X179.88Y-100.143
X179.88Y-102.683
X179.88Y-105.223
X179.88Y-107.763
X179.88Y-110.303
X195.12Y-82.363
X195.12Y-84.903
X195.12Y-87.443
X195.12Y-89.983
X195.12Y-92.523
X195.12Y-95.063
X195.12Y-97.603
X195.12Y-100.143
X195.12Y-102.683
X195.12Y-105.223
X195.12Y-107.763
X195.12Y-110.303
T5
X114.25Y-40.825
X114.25Y-57.825
X114.25Y-92.533
X119.25Y-38.725
X119.25Y-55.725
X119.25Y-90.433
X124.25Y-40.825
X124.25Y-57.825
X124.25Y-92.533
X132.25Y-40.825
X132.25Y-57.825
X132.25Y-92.533
X133.183Y-121.042
X135.283Y-116.042
X135.283Y-126.042
X137.25Y-38.725
X137.25Y-55.725
X137.25Y-90.433
X142.25Y-40.825
X142.25Y-57.825
X142.25Y-92.533
X150.183Y-121.042
X150.25Y-40.825
X150.25Y-57.825
X150.25Y-92.533
X152.283Y-116.042
X152.283Y-126.042
X155.25Y-38.725
X155.25Y-55.725
X155.25Y-90.433
X160.25Y-40.825
X160.25Y-57.825
X160.25Y-92.533
X168.25Y-40.825
X168.25Y-57.825
X173.25Y-38.725
X173.25Y-55.725
X178.25Y-40.825
X178.25Y-57.825
X186.25Y-40.825
X186.25Y-57.825
X191.25Y-38.725
X191.25Y-55.725
X196.25Y-40.825
X196.25Y-57.825
T6
X114.25Y-49.775
X114.25Y-66.775
X114.25Y-101.483
X124.25Y-49.775
X124.25Y-66.775
X124.25Y-101.483
X132.25Y-49.775
X132.25Y-66.775
X132.25Y-101.483
X142.25Y-49.775
X142.25Y-66.775
X142.25Y-101.483
X144.233Y-116.042
X144.233Y-126.042
X150.25Y-49.775
X150.25Y-66.775
X150.25Y-101.483
X160.25Y-49.775
X160.25Y-66.775
X160.25Y-101.483
X161.233Y-116.042
X161.233Y-126.042
X168.25Y-49.775
X168.25Y-66.775
X178.25Y-49.775
X178.25Y-66.775
X186.25Y-49.775
X186.25Y-66.775
X196.25Y-49.775
X196.25Y-66.775
T7
X128.25Y-53.125
X146.25Y-87.833
X147.583Y-112.042
X175.5Y-97.75
X182.25Y-53.125
X199.5Y-97.75
T8
X110.25Y-111.917
T2
G00X110.595Y-72.883
M15
G01X111.395Y-72.883
M16
G05
G00X110.595Y-77.283
M15
G01X111.395Y-77.283
M16
G05
G00X110.595Y-81.312
M15
G01X111.395Y-81.312
M16
G05
G00X110.595Y-85.712
M15
G01X111.395Y-85.712
M16
G05
G00X113.595Y-72.883
M15
G01X114.395Y-72.883
M16
G05
G00X113.595Y-77.283
M15
G01X114.395Y-77.283
M16
G05
G00X113.595Y-81.312
M15
G01X114.395Y-81.312
M16
G05
G00X113.595Y-85.712
M15
G01X114.395Y-85.712
M16
G05
G00X117.595Y-72.883
M15
G01X119.395Y-72.883
M16
G05
G00X117.595Y-77.283
M15
G01X119.395Y-77.283
M16
G05
G00X117.595Y-81.312
M15
G01X119.395Y-81.312
M16
G05
G00X117.595Y-85.712
M15
G01X119.395Y-85.712
M16
G05
G00X175.845Y-118.217
M15
G01X176.645Y-118.217
M16
G05
G00X175.845Y-125.937
M15
G01X176.645Y-125.937
M16
G05
G00X178.845Y-118.217
M15
G01X179.645Y-118.217
M16
G05
G00X178.845Y-125.937
M15
G01X179.645Y-125.937
M16
G05
G00X182.845Y-118.217
M15
G01X183.645Y-118.217
M16
G05
G00X182.845Y-125.937
M15
G01X183.645Y-125.937
M16
G05
G00X183.845Y-122.617
M15
G01X184.645Y-122.617
M16
G05
G00X183.845Y-130.337
M15
G01X184.645Y-130.337
M16
G05
G00X191.155Y-118.217
M15
G01X190.355Y-118.217
M16
G05
G00X191.155Y-125.937
M15
G01X190.355Y-125.937
M16
G05
G00X192.155Y-122.617
M15
G01X191.355Y-122.617
M16
G05
G00X192.155Y-130.337
M15
G01X191.355Y-130.337
M16
G05
G00X196.155Y-122.617
M15
G01X195.355Y-122.617
M16
G05
G00X196.155Y-130.337
M15
G01X195.355Y-130.337
M16
G05
G00X199.155Y-122.617
M15
G01X198.355Y-122.617
M16
G05
G00X199.155Y-130.337
M15
G01X198.355Y-130.337
M16
G05
M30
