M48
; DRILL file {KiCad 9.0.2} date 2026-01-27T22:30:16+0100
; FORMAT={-:-/ absolute / metric / decimal}
; #@! TF.CreationDate,2026-01-27T22:30:16+01:00
; #@! TF.GenerationSoftware,Kicad,Pcbnew,9.0.2
; #@! TF.FileFunction,NonPlated,1,2,NPTH
FMAT,2
METRIC
; #@! TA.AperFunction,NonPlated,NPTH,ComponentDrill
T1C0.500
; #@! TA.AperFunction,NonPlated,NPTH,ComponentDrill
T2C1.200
; #@! TA.AperFunction,NonPlated,NPTH,ComponentDrill
T3C1.900
; #@! TA.AperFunction,NonPlated,NPTH,ComponentDrill
T4C2.833
; #@! TA.AperFunction,NonPlated,NPTH,ComponentDrill
T5C3.000
; #@! TA.AperFunction,NonPlated,NPTH,ComponentDrill
T6C3.208
; #@! TA.AperFunction,NonPlated,NPTH,ComponentDrill
T7C5.050
%
G90
G05
T1
X114.714Y-107.105
X114.714Y-109.645
X115.476Y-107.105
X115.476Y-109.645
X116.238Y-107.105
X116.238Y-109.645
X117.0Y-107.105
X117.0Y-109.645
X117.762Y-107.105
X117.762Y-109.645
X118.524Y-107.105
X118.524Y-109.645
X119.286Y-107.105
X119.286Y-109.645
X125.42Y-117.608
X125.42Y-118.308
X125.42Y-119.008
X125.42Y-119.708
X125.42Y-120.408
X125.42Y-121.108
X125.42Y-121.808
X128.288Y-117.608
X128.288Y-118.308
X128.288Y-119.008
X128.288Y-119.708
X128.288Y-120.408
X128.288Y-121.108
X128.288Y-121.808
X136.464Y-107.105
X136.464Y-109.645
X137.226Y-107.105
X137.226Y-109.645
X137.988Y-107.105
X137.988Y-109.645
X138.75Y-107.105
X138.75Y-109.645
X139.512Y-107.105
X139.512Y-109.645
X140.274Y-107.105
X140.274Y-109.645
X141.036Y-107.105
X141.036Y-109.645
X170.42Y-89.275
X170.42Y-89.975
X170.42Y-90.675
X170.42Y-91.375
X170.42Y-92.075
X170.42Y-92.775
X170.42Y-93.475
X170.42Y-117.608
X170.42Y-118.308
X170.42Y-119.008
X170.42Y-119.708
X170.42Y-120.408
X170.42Y-121.108
X170.42Y-121.808
X173.08Y-89.275
X173.08Y-89.975
X173.08Y-90.675
X173.08Y-91.375
X173.08Y-92.075
X173.08Y-92.775
X173.08Y-93.475
X173.08Y-117.608
X173.08Y-118.308
X173.08Y-119.008
X173.08Y-119.708
X173.08Y-120.408
X173.08Y-121.108
X173.08Y-121.808
T2
X109.545Y-75.083
X109.545Y-83.512
X116.545Y-75.083
X116.545Y-83.512
X174.795Y-120.417
X174.795Y-128.137
X181.795Y-120.417
X181.795Y-128.137
X193.205Y-120.417
X193.205Y-128.137
X200.205Y-120.417
X200.205Y-128.137
T3
X113.75Y-44.625
X113.75Y-61.625
X113.75Y-96.333
X124.75Y-44.625
X124.75Y-61.625
X124.75Y-96.333
X131.75Y-44.625
X131.75Y-61.625
X131.75Y-96.333
X139.083Y-115.542
X139.083Y-126.542
X142.75Y-44.625
X142.75Y-61.625
X142.75Y-96.333
X149.75Y-44.625
X149.75Y-61.625
X149.75Y-96.333
X156.083Y-115.542
X156.083Y-126.542
X160.75Y-44.625
X160.75Y-61.625
X160.75Y-96.333
X167.75Y-44.625
X167.75Y-61.625
X178.75Y-44.625
X178.75Y-61.625
X185.75Y-44.625
X185.75Y-61.625
X196.75Y-44.625
X196.75Y-61.625
T4
X113.25Y-108.375
X120.75Y-108.375
X135.0Y-108.375
X142.5Y-108.375
T5
X171.75Y-87.819
X171.75Y-94.916
X171.75Y-116.152
X171.75Y-123.25
T6
X126.854Y-116.152
X126.854Y-123.25
T7
X119.25Y-44.625
X119.25Y-61.625
X119.25Y-96.333
X137.25Y-44.625
X137.25Y-61.625
X137.25Y-96.333
X139.083Y-121.042
X155.25Y-44.625
X155.25Y-61.625
X155.25Y-96.333
X156.083Y-121.042
X173.25Y-44.625
X173.25Y-61.625
X191.25Y-44.625
X191.25Y-61.625
M30
