%TF.GenerationSoftware,KiCad,Pcbnew,9.0.2*%
%TF.CreationDate,2026-01-27T22:30:16+01:00*%
%TF.ProjectId,obiwanstenobit,6f626977-616e-4737-9465-6e6f6269742e,rev?*%
%TF.SameCoordinates,Original*%
%TF.FileFunction,Drillmap*%
%TF.FilePolarity,Positive*%
%FSLAX45Y45*%
G04 Gerber Fmt 4.5, Leading zero omitted, Abs format (unit mm)*
G04 Created by KiCad (PCBNEW 9.0.2) date 2026-01-27 22:30:16*
%MOMM*%
%LPD*%
G01*
G04 APERTURE LIST*
%ADD10C,0.050000*%
%ADD11C,0.200000*%
%ADD12C,0.100000*%
%ADD13C,0.109220*%
%ADD14C,0.120000*%
%ADD15C,0.160000*%
%ADD16C,0.220000*%
%ADD17C,0.250000*%
G04 APERTURE END LIST*
D10*
X17400000Y-7862496D02*
X17325000Y-7933330D01*
X10875000Y-10695828D02*
X11325000Y-10695828D01*
X17025000Y-9491662D02*
G75*
G02*
X17325000Y-9491662I150000J0D01*
G01*
X14250000Y-10979162D02*
G75*
G02*
X14250000Y-10695819I0J141672D01*
G01*
X10800000Y-11049995D02*
X10875000Y-10979162D01*
X17325000Y-11616661D02*
G75*
G02*
X17025000Y-11616661I-150000J0D01*
G01*
X17325000Y-7933330D02*
X17325000Y-8783329D01*
X17025000Y-7791663D02*
X17250000Y-7579163D01*
X17025000Y-11054162D02*
X17025000Y-11616661D01*
X12845835Y-11054162D02*
X12845835Y-11616661D01*
X12450000Y-12749994D02*
X10875000Y-12749994D01*
X19950000Y-7579163D02*
X17250000Y-7579163D01*
X10800000Y-3470832D02*
X10800000Y-10624995D01*
X20100000Y-7862496D02*
X20175000Y-7933330D01*
X12525000Y-12679161D02*
X12525000Y-12324994D01*
X10875000Y-12749994D02*
X10800000Y-12679161D01*
X12525000Y-12324994D02*
G75*
G02*
X12845835Y-12324994I160418J0D01*
G01*
X10800000Y-3470832D02*
X10875000Y-3399998D01*
X16954167Y-13004161D02*
X17025000Y-12929161D01*
X17025000Y-10270829D02*
X17025000Y-9491662D01*
X12845835Y-11616661D02*
G75*
G02*
X12525000Y-11616661I-160418J0D01*
G01*
X12525000Y-12679161D02*
X12450000Y-12749994D01*
X17325000Y-11616661D02*
X17325000Y-9491662D01*
X17025000Y-12324994D02*
G75*
G02*
X17325000Y-12324994I150000J0D01*
G01*
X19950000Y-3399998D02*
X10875000Y-3399998D01*
X17325000Y-8783329D02*
G75*
G02*
X17025000Y-8783329I-150000J0D01*
G01*
X13500000Y-10695828D02*
G75*
G02*
X13500000Y-10979152I0J-141662D01*
G01*
X10800000Y-12679161D02*
X10800000Y-11049995D01*
X17025000Y-12929161D02*
X17025000Y-12324994D01*
X19950000Y-3399998D02*
X20025000Y-3470832D01*
X12916669Y-10979162D02*
X13500000Y-10979162D01*
X12525000Y-11049995D02*
X12525000Y-11616661D01*
X12916669Y-13004161D02*
X12845835Y-12929161D01*
X19950000Y-7579163D02*
X20025000Y-7508330D01*
X16575000Y-10695828D02*
X14250000Y-10695828D01*
X12845835Y-12929161D02*
X12845835Y-12324994D01*
X14250000Y-10979162D02*
X16954167Y-10979162D01*
X16575000Y-10695828D02*
X17025000Y-10270829D01*
X10875000Y-10979162D02*
X11325000Y-10979152D01*
X16954167Y-13004161D02*
X12916669Y-13004161D01*
X17025000Y-11054162D02*
X16954167Y-10979162D01*
X20175000Y-13174994D02*
X20175000Y-7933330D01*
X12450000Y-10979162D02*
X12525000Y-11049995D01*
X12075000Y-10979162D02*
X12450000Y-10979162D01*
X17325000Y-13174994D02*
X17400000Y-13245827D01*
X20100000Y-13245827D02*
X20175000Y-13174994D01*
X17400000Y-13245827D02*
X20100000Y-13245827D01*
X17025000Y-7791663D02*
X17025000Y-8783329D01*
X13500000Y-10695828D02*
X12075000Y-10695828D01*
X20100000Y-7862496D02*
X17400000Y-7862496D01*
X11325000Y-10695828D02*
G75*
G02*
X11325000Y-10979152I0J-141662D01*
G01*
X12845835Y-11054162D02*
X12916669Y-10979162D01*
X10875000Y-10695828D02*
X10800000Y-10624995D01*
X12075000Y-10979162D02*
G75*
G02*
X12075000Y-10695819I0J141672D01*
G01*
X17325000Y-13174994D02*
X17325000Y-12324994D01*
X20025000Y-3470832D02*
X20025000Y-7508330D01*
D11*
D12*
X12735000Y-7274800D02*
X12765000Y-7304800D01*
X12765000Y-7274800D02*
X12735000Y-7304800D01*
X12735000Y-7705830D02*
X12765000Y-7735830D01*
X12765000Y-7705830D02*
X12735000Y-7735830D01*
X12735000Y-8130829D02*
X12765000Y-8160829D01*
X12765000Y-8130829D02*
X12735000Y-8160829D01*
X12735000Y-8544800D02*
X12765000Y-8574800D01*
X12765000Y-8544800D02*
X12735000Y-8574800D01*
X14336000Y-5954000D02*
X14366000Y-5984000D01*
X14366000Y-5954000D02*
X14336000Y-5984000D01*
X14399500Y-6335000D02*
X14429500Y-6365000D01*
X14429500Y-6335000D02*
X14399500Y-6365000D01*
X11134500Y-7288330D02*
G75*
G02*
X11064500Y-7288330I-35000J0D01*
G01*
X11064500Y-7288330D02*
G75*
G02*
X11134500Y-7288330I35000J0D01*
G01*
X11059500Y-7323330D02*
X11139500Y-7323330D01*
X11139500Y-7253330D02*
G75*
G02*
X11139500Y-7323330I0J-35000D01*
G01*
X11139500Y-7253330D02*
X11059500Y-7253330D01*
X11059500Y-7253330D02*
G75*
G03*
X11059500Y-7323330I0J-35000D01*
G01*
X11134500Y-7728330D02*
G75*
G02*
X11064500Y-7728330I-35000J0D01*
G01*
X11064500Y-7728330D02*
G75*
G02*
X11134500Y-7728330I35000J0D01*
G01*
X11059500Y-7763330D02*
X11139500Y-7763330D01*
X11139500Y-7693330D02*
G75*
G02*
X11139500Y-7763330I0J-35000D01*
G01*
X11139500Y-7693330D02*
X11059500Y-7693330D01*
X11059500Y-7693330D02*
G75*
G03*
X11059500Y-7763330I0J-35000D01*
G01*
X11134500Y-8131163D02*
G75*
G02*
X11064500Y-8131163I-35000J0D01*
G01*
X11064500Y-8131163D02*
G75*
G02*
X11134500Y-8131163I35000J0D01*
G01*
X11059500Y-8166163D02*
X11139500Y-8166163D01*
X11139500Y-8096163D02*
G75*
G02*
X11139500Y-8166163I0J-35000D01*
G01*
X11139500Y-8096163D02*
X11059500Y-8096163D01*
X11059500Y-8096163D02*
G75*
G03*
X11059500Y-8166163I0J-35000D01*
G01*
X11134500Y-8571163D02*
G75*
G02*
X11064500Y-8571163I-35000J0D01*
G01*
X11064500Y-8571163D02*
G75*
G02*
X11134500Y-8571163I35000J0D01*
G01*
X11059500Y-8606163D02*
X11139500Y-8606163D01*
X11139500Y-8536163D02*
G75*
G02*
X11139500Y-8606163I0J-35000D01*
G01*
X11139500Y-8536163D02*
X11059500Y-8536163D01*
X11059500Y-8536163D02*
G75*
G03*
X11059500Y-8606163I0J-35000D01*
G01*
X11434500Y-7288330D02*
G75*
G02*
X11364500Y-7288330I-35000J0D01*
G01*
X11364500Y-7288330D02*
G75*
G02*
X11434500Y-7288330I35000J0D01*
G01*
X11359500Y-7323330D02*
X11439500Y-7323330D01*
X11439500Y-7253330D02*
G75*
G02*
X11439500Y-7323330I0J-35000D01*
G01*
X11439500Y-7253330D02*
X11359500Y-7253330D01*
X11359500Y-7253330D02*
G75*
G03*
X11359500Y-7323330I0J-35000D01*
G01*
X11434500Y-7728330D02*
G75*
G02*
X11364500Y-7728330I-35000J0D01*
G01*
X11364500Y-7728330D02*
G75*
G02*
X11434500Y-7728330I35000J0D01*
G01*
X11359500Y-7763330D02*
X11439500Y-7763330D01*
X11439500Y-7693330D02*
G75*
G02*
X11439500Y-7763330I0J-35000D01*
G01*
X11439500Y-7693330D02*
X11359500Y-7693330D01*
X11359500Y-7693330D02*
G75*
G03*
X11359500Y-7763330I0J-35000D01*
G01*
X11434500Y-8131163D02*
G75*
G02*
X11364500Y-8131163I-35000J0D01*
G01*
X11364500Y-8131163D02*
G75*
G02*
X11434500Y-8131163I35000J0D01*
G01*
X11359500Y-8166163D02*
X11439500Y-8166163D01*
X11439500Y-8096163D02*
G75*
G02*
X11439500Y-8166163I0J-35000D01*
G01*
X11439500Y-8096163D02*
X11359500Y-8096163D01*
X11359500Y-8096163D02*
G75*
G03*
X11359500Y-8166163I0J-35000D01*
G01*
X11434500Y-8571163D02*
G75*
G02*
X11364500Y-8571163I-35000J0D01*
G01*
X11364500Y-8571163D02*
G75*
G02*
X11434500Y-8571163I35000J0D01*
G01*
X11359500Y-8606163D02*
X11439500Y-8606163D01*
X11439500Y-8536163D02*
G75*
G02*
X11439500Y-8606163I0J-35000D01*
G01*
X11439500Y-8536163D02*
X11359500Y-8536163D01*
X11359500Y-8536163D02*
G75*
G03*
X11359500Y-8606163I0J-35000D01*
G01*
X11884500Y-7288330D02*
G75*
G02*
X11814500Y-7288330I-35000J0D01*
G01*
X11814500Y-7288330D02*
G75*
G02*
X11884500Y-7288330I35000J0D01*
G01*
X11759500Y-7323330D02*
X11939500Y-7323330D01*
X11939500Y-7253330D02*
G75*
G02*
X11939500Y-7323330I0J-35000D01*
G01*
X11939500Y-7253330D02*
X11759500Y-7253330D01*
X11759500Y-7253330D02*
G75*
G03*
X11759500Y-7323330I0J-35000D01*
G01*
X11884500Y-7728330D02*
G75*
G02*
X11814500Y-7728330I-35000J0D01*
G01*
X11814500Y-7728330D02*
G75*
G02*
X11884500Y-7728330I35000J0D01*
G01*
X11759500Y-7763330D02*
X11939500Y-7763330D01*
X11939500Y-7693330D02*
G75*
G02*
X11939500Y-7763330I0J-35000D01*
G01*
X11939500Y-7693330D02*
X11759500Y-7693330D01*
X11759500Y-7693330D02*
G75*
G03*
X11759500Y-7763330I0J-35000D01*
G01*
X11884500Y-8131163D02*
G75*
G02*
X11814500Y-8131163I-35000J0D01*
G01*
X11814500Y-8131163D02*
G75*
G02*
X11884500Y-8131163I35000J0D01*
G01*
X11759500Y-8166163D02*
X11939500Y-8166163D01*
X11939500Y-8096163D02*
G75*
G02*
X11939500Y-8166163I0J-35000D01*
G01*
X11939500Y-8096163D02*
X11759500Y-8096163D01*
X11759500Y-8096163D02*
G75*
G03*
X11759500Y-8166163I0J-35000D01*
G01*
X11884500Y-8571163D02*
G75*
G02*
X11814500Y-8571163I-35000J0D01*
G01*
X11814500Y-8571163D02*
G75*
G02*
X11884500Y-8571163I35000J0D01*
G01*
X11759500Y-8606163D02*
X11939500Y-8606163D01*
X11939500Y-8536163D02*
G75*
G02*
X11939500Y-8606163I0J-35000D01*
G01*
X11939500Y-8536163D02*
X11759500Y-8536163D01*
X11759500Y-8536163D02*
G75*
G03*
X11759500Y-8606163I0J-35000D01*
G01*
X17659500Y-11821661D02*
G75*
G02*
X17589500Y-11821661I-35000J0D01*
G01*
X17589500Y-11821661D02*
G75*
G02*
X17659500Y-11821661I35000J0D01*
G01*
X17584500Y-11856661D02*
X17664500Y-11856661D01*
X17664500Y-11786661D02*
G75*
G02*
X17664500Y-11856661I0J-35000D01*
G01*
X17664500Y-11786661D02*
X17584500Y-11786661D01*
X17584500Y-11786661D02*
G75*
G03*
X17584500Y-11856661I0J-35000D01*
G01*
X17659500Y-12593661D02*
G75*
G02*
X17589500Y-12593661I-35000J0D01*
G01*
X17589500Y-12593661D02*
G75*
G02*
X17659500Y-12593661I35000J0D01*
G01*
X17584500Y-12628661D02*
X17664500Y-12628661D01*
X17664500Y-12558661D02*
G75*
G02*
X17664500Y-12628661I0J-35000D01*
G01*
X17664500Y-12558661D02*
X17584500Y-12558661D01*
X17584500Y-12558661D02*
G75*
G03*
X17584500Y-12628661I0J-35000D01*
G01*
X17959500Y-11821661D02*
G75*
G02*
X17889500Y-11821661I-35000J0D01*
G01*
X17889500Y-11821661D02*
G75*
G02*
X17959500Y-11821661I35000J0D01*
G01*
X17884500Y-11856661D02*
X17964500Y-11856661D01*
X17964500Y-11786661D02*
G75*
G02*
X17964500Y-11856661I0J-35000D01*
G01*
X17964500Y-11786661D02*
X17884500Y-11786661D01*
X17884500Y-11786661D02*
G75*
G03*
X17884500Y-11856661I0J-35000D01*
G01*
X17959500Y-12593661D02*
G75*
G02*
X17889500Y-12593661I-35000J0D01*
G01*
X17889500Y-12593661D02*
G75*
G02*
X17959500Y-12593661I35000J0D01*
G01*
X17884500Y-12628661D02*
X17964500Y-12628661D01*
X17964500Y-12558661D02*
G75*
G02*
X17964500Y-12628661I0J-35000D01*
G01*
X17964500Y-12558661D02*
X17884500Y-12558661D01*
X17884500Y-12558661D02*
G75*
G03*
X17884500Y-12628661I0J-35000D01*
G01*
X18359500Y-11821661D02*
G75*
G02*
X18289500Y-11821661I-35000J0D01*
G01*
X18289500Y-11821661D02*
G75*
G02*
X18359500Y-11821661I35000J0D01*
G01*
X18284500Y-11856661D02*
X18364500Y-11856661D01*
X18364500Y-11786661D02*
G75*
G02*
X18364500Y-11856661I0J-35000D01*
G01*
X18364500Y-11786661D02*
X18284500Y-11786661D01*
X18284500Y-11786661D02*
G75*
G03*
X18284500Y-11856661I0J-35000D01*
G01*
X18359500Y-12593661D02*
G75*
G02*
X18289500Y-12593661I-35000J0D01*
G01*
X18289500Y-12593661D02*
G75*
G02*
X18359500Y-12593661I35000J0D01*
G01*
X18284500Y-12628661D02*
X18364500Y-12628661D01*
X18364500Y-12558661D02*
G75*
G02*
X18364500Y-12628661I0J-35000D01*
G01*
X18364500Y-12558661D02*
X18284500Y-12558661D01*
X18284500Y-12558661D02*
G75*
G03*
X18284500Y-12628661I0J-35000D01*
G01*
X18459500Y-12261661D02*
G75*
G02*
X18389500Y-12261661I-35000J0D01*
G01*
X18389500Y-12261661D02*
G75*
G02*
X18459500Y-12261661I35000J0D01*
G01*
X18384500Y-12296661D02*
X18464500Y-12296661D01*
X18464500Y-12226661D02*
G75*
G02*
X18464500Y-12296661I0J-35000D01*
G01*
X18464500Y-12226661D02*
X18384500Y-12226661D01*
X18384500Y-12226661D02*
G75*
G03*
X18384500Y-12296661I0J-35000D01*
G01*
X18459500Y-13033661D02*
G75*
G02*
X18389500Y-13033661I-35000J0D01*
G01*
X18389500Y-13033661D02*
G75*
G02*
X18459500Y-13033661I35000J0D01*
G01*
X18384500Y-13068661D02*
X18464500Y-13068661D01*
X18464500Y-12998661D02*
G75*
G02*
X18464500Y-13068661I0J-35000D01*
G01*
X18464500Y-12998661D02*
X18384500Y-12998661D01*
X18384500Y-12998661D02*
G75*
G03*
X18384500Y-13068661I0J-35000D01*
G01*
X19110500Y-11821661D02*
G75*
G02*
X19040500Y-11821661I-35000J0D01*
G01*
X19040500Y-11821661D02*
G75*
G02*
X19110500Y-11821661I35000J0D01*
G01*
X19115500Y-11786661D02*
X19035500Y-11786661D01*
X19035500Y-11856661D02*
G75*
G02*
X19035500Y-11786661I0J35000D01*
G01*
X19035500Y-11856661D02*
X19115500Y-11856661D01*
X19115500Y-11856661D02*
G75*
G03*
X19115500Y-11786661I0J35000D01*
G01*
X19110500Y-12593661D02*
G75*
G02*
X19040500Y-12593661I-35000J0D01*
G01*
X19040500Y-12593661D02*
G75*
G02*
X19110500Y-12593661I35000J0D01*
G01*
X19115500Y-12558661D02*
X19035500Y-12558661D01*
X19035500Y-12628661D02*
G75*
G02*
X19035500Y-12558661I0J35000D01*
G01*
X19035500Y-12628661D02*
X19115500Y-12628661D01*
X19115500Y-12628661D02*
G75*
G03*
X19115500Y-12558661I0J35000D01*
G01*
X19210500Y-12261661D02*
G75*
G02*
X19140500Y-12261661I-35000J0D01*
G01*
X19140500Y-12261661D02*
G75*
G02*
X19210500Y-12261661I35000J0D01*
G01*
X19215500Y-12226661D02*
X19135500Y-12226661D01*
X19135500Y-12296661D02*
G75*
G02*
X19135500Y-12226661I0J35000D01*
G01*
X19135500Y-12296661D02*
X19215500Y-12296661D01*
X19215500Y-12296661D02*
G75*
G03*
X19215500Y-12226661I0J35000D01*
G01*
X19210500Y-13033661D02*
G75*
G02*
X19140500Y-13033661I-35000J0D01*
G01*
X19140500Y-13033661D02*
G75*
G02*
X19210500Y-13033661I35000J0D01*
G01*
X19215500Y-12998661D02*
X19135500Y-12998661D01*
X19135500Y-13068661D02*
G75*
G02*
X19135500Y-12998661I0J35000D01*
G01*
X19135500Y-13068661D02*
X19215500Y-13068661D01*
X19215500Y-13068661D02*
G75*
G03*
X19215500Y-12998661I0J35000D01*
G01*
X19610500Y-12261661D02*
G75*
G02*
X19540500Y-12261661I-35000J0D01*
G01*
X19540500Y-12261661D02*
G75*
G02*
X19610500Y-12261661I35000J0D01*
G01*
X19615500Y-12226661D02*
X19535500Y-12226661D01*
X19535500Y-12296661D02*
G75*
G02*
X19535500Y-12226661I0J35000D01*
G01*
X19535500Y-12296661D02*
X19615500Y-12296661D01*
X19615500Y-12296661D02*
G75*
G03*
X19615500Y-12226661I0J35000D01*
G01*
X19610500Y-13033661D02*
G75*
G02*
X19540500Y-13033661I-35000J0D01*
G01*
X19540500Y-13033661D02*
G75*
G02*
X19610500Y-13033661I35000J0D01*
G01*
X19615500Y-12998661D02*
X19535500Y-12998661D01*
X19535500Y-13068661D02*
G75*
G02*
X19535500Y-12998661I0J35000D01*
G01*
X19535500Y-13068661D02*
X19615500Y-13068661D01*
X19615500Y-13068661D02*
G75*
G03*
X19615500Y-12998661I0J35000D01*
G01*
X19910500Y-12261661D02*
G75*
G02*
X19840500Y-12261661I-35000J0D01*
G01*
X19840500Y-12261661D02*
G75*
G02*
X19910500Y-12261661I35000J0D01*
G01*
X19915500Y-12226661D02*
X19835500Y-12226661D01*
X19835500Y-12296661D02*
G75*
G02*
X19835500Y-12226661I0J35000D01*
G01*
X19835500Y-12296661D02*
X19915500Y-12296661D01*
X19915500Y-12296661D02*
G75*
G03*
X19915500Y-12226661I0J35000D01*
G01*
X19910500Y-13033661D02*
G75*
G02*
X19840500Y-13033661I-35000J0D01*
G01*
X19840500Y-13033661D02*
G75*
G02*
X19910500Y-13033661I35000J0D01*
G01*
X19915500Y-12998661D02*
X19835500Y-12998661D01*
X19835500Y-13068661D02*
G75*
G02*
X19835500Y-12998661I0J35000D01*
G01*
X19835500Y-13068661D02*
X19915500Y-13068661D01*
X19915500Y-13068661D02*
G75*
G03*
X19915500Y-12998661I0J35000D01*
G01*
X13050000Y-7566796D02*
X13050000Y-7646796D01*
X13010000Y-7606796D02*
X13090000Y-7606796D01*
X13050000Y-8074796D02*
X13050000Y-8154796D01*
X13010000Y-8114796D02*
X13090000Y-8114796D01*
X13350000Y-7566796D02*
X13350000Y-7646796D01*
X13310000Y-7606796D02*
X13390000Y-7606796D01*
X13350000Y-8074796D02*
X13350000Y-8154796D01*
X13310000Y-8114796D02*
X13390000Y-8114796D01*
X13650000Y-7566796D02*
X13650000Y-7646796D01*
X13610000Y-7606796D02*
X13690000Y-7606796D01*
X13650000Y-8074796D02*
X13650000Y-8154796D01*
X13610000Y-8114796D02*
X13690000Y-8114796D01*
X13950000Y-7566796D02*
X13950000Y-7646796D01*
X13910000Y-7606796D02*
X13990000Y-7606796D01*
X13950000Y-8074796D02*
X13950000Y-8154796D01*
X13910000Y-8114796D02*
X13990000Y-8114796D01*
X14250000Y-7566796D02*
X14250000Y-7646796D01*
X14210000Y-7606796D02*
X14290000Y-7606796D01*
X14250000Y-8074796D02*
X14250000Y-8154796D01*
X14210000Y-8114796D02*
X14290000Y-8114796D01*
X14550000Y-7566796D02*
X14550000Y-7646796D01*
X14510000Y-7606796D02*
X14590000Y-7606796D01*
X14550000Y-8074796D02*
X14550000Y-8154796D01*
X14510000Y-8114796D02*
X14590000Y-8114796D01*
X14850000Y-7566796D02*
X14850000Y-7646796D01*
X14810000Y-7606796D02*
X14890000Y-7606796D01*
X14850000Y-8074796D02*
X14850000Y-8154796D01*
X14810000Y-8114796D02*
X14890000Y-8114796D01*
X15150000Y-7566796D02*
X15150000Y-7646796D01*
X15110000Y-7606796D02*
X15190000Y-7606796D01*
X15150000Y-8074796D02*
X15150000Y-8154796D01*
X15110000Y-8114796D02*
X15190000Y-8114796D01*
X15450000Y-7566796D02*
X15450000Y-7646796D01*
X15410000Y-7606796D02*
X15490000Y-7606796D01*
X15450000Y-8074796D02*
X15450000Y-8154796D01*
X15410000Y-8114796D02*
X15490000Y-8114796D01*
X15750000Y-7566796D02*
X15750000Y-7646796D01*
X15710000Y-7606796D02*
X15790000Y-7606796D01*
X15750000Y-8074796D02*
X15750000Y-8154796D01*
X15710000Y-8114796D02*
X15790000Y-8114796D01*
X16050000Y-7566796D02*
X16050000Y-7646796D01*
X16010000Y-7606796D02*
X16090000Y-7606796D01*
X16050000Y-8074796D02*
X16050000Y-8154796D01*
X16010000Y-8114796D02*
X16090000Y-8114796D01*
X16350000Y-7566796D02*
X16350000Y-7646796D01*
X16310000Y-7606796D02*
X16390000Y-7606796D01*
X16350000Y-8074796D02*
X16350000Y-8154796D01*
X16310000Y-8114796D02*
X16390000Y-8114796D01*
X16650000Y-7566796D02*
X16650000Y-7646796D01*
X16610000Y-7606796D02*
X16690000Y-7606796D01*
X16650000Y-8074796D02*
X16650000Y-8154796D01*
X16610000Y-8114796D02*
X16690000Y-8114796D01*
X16741667Y-11283461D02*
X16741667Y-11363461D01*
X16701667Y-11323461D02*
X16781667Y-11323461D01*
X16741667Y-11791461D02*
X16741667Y-11871461D01*
X16701667Y-11831461D02*
X16781667Y-11831461D01*
X16741667Y-12183461D02*
X16741667Y-12263461D01*
X16701667Y-12223461D02*
X16781667Y-12223461D01*
X16741667Y-12691461D02*
X16741667Y-12771461D01*
X16701667Y-12731461D02*
X16781667Y-12731461D01*
D13*
X18026616Y-8274944D02*
X18026616Y-8197713D01*
X17949385Y-8197713D01*
X17949385Y-8274944D01*
X18026616Y-8274944D01*
X18026616Y-8528944D02*
X18026616Y-8451713D01*
X17949385Y-8451713D01*
X17949385Y-8528944D01*
X18026616Y-8528944D01*
X18026616Y-8782944D02*
X18026616Y-8705713D01*
X17949385Y-8705713D01*
X17949385Y-8782944D01*
X18026616Y-8782944D01*
X18026616Y-9036944D02*
X18026616Y-8959713D01*
X17949385Y-8959713D01*
X17949385Y-9036944D01*
X18026616Y-9036944D01*
X18026616Y-9290944D02*
X18026616Y-9213713D01*
X17949385Y-9213713D01*
X17949385Y-9290944D01*
X18026616Y-9290944D01*
X18026616Y-9544944D02*
X18026616Y-9467713D01*
X17949385Y-9467713D01*
X17949385Y-9544944D01*
X18026616Y-9544944D01*
X18026616Y-9798944D02*
X18026616Y-9721713D01*
X17949385Y-9721713D01*
X17949385Y-9798944D01*
X18026616Y-9798944D01*
X18026616Y-10052944D02*
X18026616Y-9975713D01*
X17949385Y-9975713D01*
X17949385Y-10052944D01*
X18026616Y-10052944D01*
X18026616Y-10306944D02*
X18026616Y-10229713D01*
X17949385Y-10229713D01*
X17949385Y-10306944D01*
X18026616Y-10306944D01*
X18026616Y-10560944D02*
X18026616Y-10483713D01*
X17949385Y-10483713D01*
X17949385Y-10560944D01*
X18026616Y-10560944D01*
X18026616Y-10814944D02*
X18026616Y-10737713D01*
X17949385Y-10737713D01*
X17949385Y-10814944D01*
X18026616Y-10814944D01*
X18026616Y-11068944D02*
X18026616Y-10991713D01*
X17949385Y-10991713D01*
X17949385Y-11068944D01*
X18026616Y-11068944D01*
X19550616Y-8274944D02*
X19550616Y-8197713D01*
X19473385Y-8197713D01*
X19473385Y-8274944D01*
X19550616Y-8274944D01*
X19550616Y-8528944D02*
X19550616Y-8451713D01*
X19473385Y-8451713D01*
X19473385Y-8528944D01*
X19550616Y-8528944D01*
X19550616Y-8782944D02*
X19550616Y-8705713D01*
X19473385Y-8705713D01*
X19473385Y-8782944D01*
X19550616Y-8782944D01*
X19550616Y-9036944D02*
X19550616Y-8959713D01*
X19473385Y-8959713D01*
X19473385Y-9036944D01*
X19550616Y-9036944D01*
X19550616Y-9290944D02*
X19550616Y-9213713D01*
X19473385Y-9213713D01*
X19473385Y-9290944D01*
X19550616Y-9290944D01*
X19550616Y-9544944D02*
X19550616Y-9467713D01*
X19473385Y-9467713D01*
X19473385Y-9544944D01*
X19550616Y-9544944D01*
X19550616Y-9798944D02*
X19550616Y-9721713D01*
X19473385Y-9721713D01*
X19473385Y-9798944D01*
X19550616Y-9798944D01*
X19550616Y-10052944D02*
X19550616Y-9975713D01*
X19473385Y-9975713D01*
X19473385Y-10052944D01*
X19550616Y-10052944D01*
X19550616Y-10306944D02*
X19550616Y-10229713D01*
X19473385Y-10229713D01*
X19473385Y-10306944D01*
X19550616Y-10306944D01*
X19550616Y-10560944D02*
X19550616Y-10483713D01*
X19473385Y-10483713D01*
X19473385Y-10560944D01*
X19550616Y-10560944D01*
X19550616Y-10814944D02*
X19550616Y-10737713D01*
X19473385Y-10737713D01*
X19473385Y-10814944D01*
X19550616Y-10814944D01*
X19550616Y-11068944D02*
X19550616Y-10991713D01*
X19473385Y-10991713D01*
X19473385Y-11068944D01*
X19550616Y-11068944D01*
D14*
X11425000Y-4142498D02*
X11485000Y-4082498D01*
X11425000Y-4022498D01*
X11365000Y-4082498D01*
X11425000Y-4142498D01*
X11425000Y-5842497D02*
X11485000Y-5782497D01*
X11425000Y-5722497D01*
X11365000Y-5782497D01*
X11425000Y-5842497D01*
X11425000Y-9313329D02*
X11485000Y-9253329D01*
X11425000Y-9193329D01*
X11365000Y-9253329D01*
X11425000Y-9313329D01*
X11925000Y-3932498D02*
X11985000Y-3872498D01*
X11925000Y-3812498D01*
X11865000Y-3872498D01*
X11925000Y-3932498D01*
X11925000Y-5632497D02*
X11985000Y-5572497D01*
X11925000Y-5512497D01*
X11865000Y-5572497D01*
X11925000Y-5632497D01*
X11925000Y-9103329D02*
X11985000Y-9043329D01*
X11925000Y-8983329D01*
X11865000Y-9043329D01*
X11925000Y-9103329D01*
X12425000Y-4142498D02*
X12485000Y-4082498D01*
X12425000Y-4022498D01*
X12365000Y-4082498D01*
X12425000Y-4142498D01*
X12425000Y-5842497D02*
X12485000Y-5782497D01*
X12425000Y-5722497D01*
X12365000Y-5782497D01*
X12425000Y-5842497D01*
X12425000Y-9313329D02*
X12485000Y-9253329D01*
X12425000Y-9193329D01*
X12365000Y-9253329D01*
X12425000Y-9313329D01*
X13225000Y-4142498D02*
X13285000Y-4082498D01*
X13225000Y-4022498D01*
X13165000Y-4082498D01*
X13225000Y-4142498D01*
X13225000Y-5842497D02*
X13285000Y-5782497D01*
X13225000Y-5722497D01*
X13165000Y-5782497D01*
X13225000Y-5842497D01*
X13225000Y-9313329D02*
X13285000Y-9253329D01*
X13225000Y-9193329D01*
X13165000Y-9253329D01*
X13225000Y-9313329D01*
X13318335Y-12164161D02*
X13378335Y-12104161D01*
X13318335Y-12044161D01*
X13258335Y-12104161D01*
X13318335Y-12164161D01*
X13528335Y-11664161D02*
X13588335Y-11604161D01*
X13528335Y-11544161D01*
X13468335Y-11604161D01*
X13528335Y-11664161D01*
X13528335Y-12664161D02*
X13588335Y-12604161D01*
X13528335Y-12544161D01*
X13468335Y-12604161D01*
X13528335Y-12664161D01*
X13725000Y-3932498D02*
X13785000Y-3872498D01*
X13725000Y-3812498D01*
X13665000Y-3872498D01*
X13725000Y-3932498D01*
X13725000Y-5632497D02*
X13785000Y-5572497D01*
X13725000Y-5512497D01*
X13665000Y-5572497D01*
X13725000Y-5632497D01*
X13725000Y-9103329D02*
X13785000Y-9043329D01*
X13725000Y-8983329D01*
X13665000Y-9043329D01*
X13725000Y-9103329D01*
X14225000Y-4142498D02*
X14285000Y-4082498D01*
X14225000Y-4022498D01*
X14165000Y-4082498D01*
X14225000Y-4142498D01*
X14225000Y-5842497D02*
X14285000Y-5782497D01*
X14225000Y-5722497D01*
X14165000Y-5782497D01*
X14225000Y-5842497D01*
X14225000Y-9313329D02*
X14285000Y-9253329D01*
X14225000Y-9193329D01*
X14165000Y-9253329D01*
X14225000Y-9313329D01*
X15018334Y-12164161D02*
X15078334Y-12104161D01*
X15018334Y-12044161D01*
X14958334Y-12104161D01*
X15018334Y-12164161D01*
X15025000Y-4142498D02*
X15085000Y-4082498D01*
X15025000Y-4022498D01*
X14965000Y-4082498D01*
X15025000Y-4142498D01*
X15025000Y-5842497D02*
X15085000Y-5782497D01*
X15025000Y-5722497D01*
X14965000Y-5782497D01*
X15025000Y-5842497D01*
X15025000Y-9313329D02*
X15085000Y-9253329D01*
X15025000Y-9193329D01*
X14965000Y-9253329D01*
X15025000Y-9313329D01*
X15228334Y-11664161D02*
X15288334Y-11604161D01*
X15228334Y-11544161D01*
X15168334Y-11604161D01*
X15228334Y-11664161D01*
X15228334Y-12664161D02*
X15288334Y-12604161D01*
X15228334Y-12544161D01*
X15168334Y-12604161D01*
X15228334Y-12664161D01*
X15525000Y-3932498D02*
X15585000Y-3872498D01*
X15525000Y-3812498D01*
X15465000Y-3872498D01*
X15525000Y-3932498D01*
X15525000Y-5632497D02*
X15585000Y-5572497D01*
X15525000Y-5512497D01*
X15465000Y-5572497D01*
X15525000Y-5632497D01*
X15525000Y-9103329D02*
X15585000Y-9043329D01*
X15525000Y-8983329D01*
X15465000Y-9043329D01*
X15525000Y-9103329D01*
X16025000Y-4142498D02*
X16085000Y-4082498D01*
X16025000Y-4022498D01*
X15965000Y-4082498D01*
X16025000Y-4142498D01*
X16025000Y-5842497D02*
X16085000Y-5782497D01*
X16025000Y-5722497D01*
X15965000Y-5782497D01*
X16025000Y-5842497D01*
X16025000Y-9313329D02*
X16085000Y-9253329D01*
X16025000Y-9193329D01*
X15965000Y-9253329D01*
X16025000Y-9313329D01*
X16825000Y-4142498D02*
X16885000Y-4082498D01*
X16825000Y-4022498D01*
X16765000Y-4082498D01*
X16825000Y-4142498D01*
X16825000Y-5842497D02*
X16885000Y-5782497D01*
X16825000Y-5722497D01*
X16765000Y-5782497D01*
X16825000Y-5842497D01*
X17325000Y-3932498D02*
X17385000Y-3872498D01*
X17325000Y-3812498D01*
X17265000Y-3872498D01*
X17325000Y-3932498D01*
X17325000Y-5632497D02*
X17385000Y-5572497D01*
X17325000Y-5512497D01*
X17265000Y-5572497D01*
X17325000Y-5632497D01*
X17825000Y-4142498D02*
X17885000Y-4082498D01*
X17825000Y-4022498D01*
X17765000Y-4082498D01*
X17825000Y-4142498D01*
X17825000Y-5842497D02*
X17885000Y-5782497D01*
X17825000Y-5722497D01*
X17765000Y-5782497D01*
X17825000Y-5842497D01*
X18625000Y-4142498D02*
X18685000Y-4082498D01*
X18625000Y-4022498D01*
X18565000Y-4082498D01*
X18625000Y-4142498D01*
X18625000Y-5842497D02*
X18685000Y-5782497D01*
X18625000Y-5722497D01*
X18565000Y-5782497D01*
X18625000Y-5842497D01*
X19125000Y-3932498D02*
X19185000Y-3872498D01*
X19125000Y-3812498D01*
X19065000Y-3872498D01*
X19125000Y-3932498D01*
X19125000Y-5632497D02*
X19185000Y-5572497D01*
X19125000Y-5512497D01*
X19065000Y-5572497D01*
X19125000Y-5632497D01*
X19625000Y-4142498D02*
X19685000Y-4082498D01*
X19625000Y-4022498D01*
X19565000Y-4082498D01*
X19625000Y-4142498D01*
X19625000Y-5842497D02*
X19685000Y-5782497D01*
X19625000Y-5722497D01*
X19565000Y-5782497D01*
X19625000Y-5842497D01*
D15*
X11345000Y-4897498D02*
X11505000Y-5057498D01*
X11505000Y-4897498D02*
X11345000Y-5057498D01*
X11505000Y-4977498D02*
G75*
G02*
X11345000Y-4977498I-80000J0D01*
G01*
X11345000Y-4977498D02*
G75*
G02*
X11505000Y-4977498I80000J0D01*
G01*
X11345000Y-6597497D02*
X11505000Y-6757497D01*
X11505000Y-6597497D02*
X11345000Y-6757497D01*
X11505000Y-6677497D02*
G75*
G02*
X11345000Y-6677497I-80000J0D01*
G01*
X11345000Y-6677497D02*
G75*
G02*
X11505000Y-6677497I80000J0D01*
G01*
X11345000Y-10068329D02*
X11505000Y-10228329D01*
X11505000Y-10068329D02*
X11345000Y-10228329D01*
X11505000Y-10148329D02*
G75*
G02*
X11345000Y-10148329I-80000J0D01*
G01*
X11345000Y-10148329D02*
G75*
G02*
X11505000Y-10148329I80000J0D01*
G01*
X12345000Y-4897498D02*
X12505000Y-5057498D01*
X12505000Y-4897498D02*
X12345000Y-5057498D01*
X12505000Y-4977498D02*
G75*
G02*
X12345000Y-4977498I-80000J0D01*
G01*
X12345000Y-4977498D02*
G75*
G02*
X12505000Y-4977498I80000J0D01*
G01*
X12345000Y-6597497D02*
X12505000Y-6757497D01*
X12505000Y-6597497D02*
X12345000Y-6757497D01*
X12505000Y-6677497D02*
G75*
G02*
X12345000Y-6677497I-80000J0D01*
G01*
X12345000Y-6677497D02*
G75*
G02*
X12505000Y-6677497I80000J0D01*
G01*
X12345000Y-10068329D02*
X12505000Y-10228329D01*
X12505000Y-10068329D02*
X12345000Y-10228329D01*
X12505000Y-10148329D02*
G75*
G02*
X12345000Y-10148329I-80000J0D01*
G01*
X12345000Y-10148329D02*
G75*
G02*
X12505000Y-10148329I80000J0D01*
G01*
X13145000Y-4897498D02*
X13305000Y-5057498D01*
X13305000Y-4897498D02*
X13145000Y-5057498D01*
X13305000Y-4977498D02*
G75*
G02*
X13145000Y-4977498I-80000J0D01*
G01*
X13145000Y-4977498D02*
G75*
G02*
X13305000Y-4977498I80000J0D01*
G01*
X13145000Y-6597497D02*
X13305000Y-6757497D01*
X13305000Y-6597497D02*
X13145000Y-6757497D01*
X13305000Y-6677497D02*
G75*
G02*
X13145000Y-6677497I-80000J0D01*
G01*
X13145000Y-6677497D02*
G75*
G02*
X13305000Y-6677497I80000J0D01*
G01*
X13145000Y-10068329D02*
X13305000Y-10228329D01*
X13305000Y-10068329D02*
X13145000Y-10228329D01*
X13305000Y-10148329D02*
G75*
G02*
X13145000Y-10148329I-80000J0D01*
G01*
X13145000Y-10148329D02*
G75*
G02*
X13305000Y-10148329I80000J0D01*
G01*
X14145000Y-4897498D02*
X14305000Y-5057498D01*
X14305000Y-4897498D02*
X14145000Y-5057498D01*
X14305000Y-4977498D02*
G75*
G02*
X14145000Y-4977498I-80000J0D01*
G01*
X14145000Y-4977498D02*
G75*
G02*
X14305000Y-4977498I80000J0D01*
G01*
X14145000Y-6597497D02*
X14305000Y-6757497D01*
X14305000Y-6597497D02*
X14145000Y-6757497D01*
X14305000Y-6677497D02*
G75*
G02*
X14145000Y-6677497I-80000J0D01*
G01*
X14145000Y-6677497D02*
G75*
G02*
X14305000Y-6677497I80000J0D01*
G01*
X14145000Y-10068329D02*
X14305000Y-10228329D01*
X14305000Y-10068329D02*
X14145000Y-10228329D01*
X14305000Y-10148329D02*
G75*
G02*
X14145000Y-10148329I-80000J0D01*
G01*
X14145000Y-10148329D02*
G75*
G02*
X14305000Y-10148329I80000J0D01*
G01*
X14343335Y-11524161D02*
X14503335Y-11684161D01*
X14503335Y-11524161D02*
X14343335Y-11684161D01*
X14503335Y-11604161D02*
G75*
G02*
X14343335Y-11604161I-80000J0D01*
G01*
X14343335Y-11604161D02*
G75*
G02*
X14503335Y-11604161I80000J0D01*
G01*
X14343335Y-12524161D02*
X14503335Y-12684161D01*
X14503335Y-12524161D02*
X14343335Y-12684161D01*
X14503335Y-12604161D02*
G75*
G02*
X14343335Y-12604161I-80000J0D01*
G01*
X14343335Y-12604161D02*
G75*
G02*
X14503335Y-12604161I80000J0D01*
G01*
X14945000Y-4897498D02*
X15105000Y-5057498D01*
X15105000Y-4897498D02*
X14945000Y-5057498D01*
X15105000Y-4977498D02*
G75*
G02*
X14945000Y-4977498I-80000J0D01*
G01*
X14945000Y-4977498D02*
G75*
G02*
X15105000Y-4977498I80000J0D01*
G01*
X14945000Y-6597497D02*
X15105000Y-6757497D01*
X15105000Y-6597497D02*
X14945000Y-6757497D01*
X15105000Y-6677497D02*
G75*
G02*
X14945000Y-6677497I-80000J0D01*
G01*
X14945000Y-6677497D02*
G75*
G02*
X15105000Y-6677497I80000J0D01*
G01*
X14945000Y-10068329D02*
X15105000Y-10228329D01*
X15105000Y-10068329D02*
X14945000Y-10228329D01*
X15105000Y-10148329D02*
G75*
G02*
X14945000Y-10148329I-80000J0D01*
G01*
X14945000Y-10148329D02*
G75*
G02*
X15105000Y-10148329I80000J0D01*
G01*
X15945000Y-4897498D02*
X16105000Y-5057498D01*
X16105000Y-4897498D02*
X15945000Y-5057498D01*
X16105000Y-4977498D02*
G75*
G02*
X15945000Y-4977498I-80000J0D01*
G01*
X15945000Y-4977498D02*
G75*
G02*
X16105000Y-4977498I80000J0D01*
G01*
X15945000Y-6597497D02*
X16105000Y-6757497D01*
X16105000Y-6597497D02*
X15945000Y-6757497D01*
X16105000Y-6677497D02*
G75*
G02*
X15945000Y-6677497I-80000J0D01*
G01*
X15945000Y-6677497D02*
G75*
G02*
X16105000Y-6677497I80000J0D01*
G01*
X15945000Y-10068329D02*
X16105000Y-10228329D01*
X16105000Y-10068329D02*
X15945000Y-10228329D01*
X16105000Y-10148329D02*
G75*
G02*
X15945000Y-10148329I-80000J0D01*
G01*
X15945000Y-10148329D02*
G75*
G02*
X16105000Y-10148329I80000J0D01*
G01*
X16043334Y-11524161D02*
X16203334Y-11684161D01*
X16203334Y-11524161D02*
X16043334Y-11684161D01*
X16203334Y-11604161D02*
G75*
G02*
X16043334Y-11604161I-80000J0D01*
G01*
X16043334Y-11604161D02*
G75*
G02*
X16203334Y-11604161I80000J0D01*
G01*
X16043334Y-12524161D02*
X16203334Y-12684161D01*
X16203334Y-12524161D02*
X16043334Y-12684161D01*
X16203334Y-12604161D02*
G75*
G02*
X16043334Y-12604161I-80000J0D01*
G01*
X16043334Y-12604161D02*
G75*
G02*
X16203334Y-12604161I80000J0D01*
G01*
X16745000Y-4897498D02*
X16905000Y-5057498D01*
X16905000Y-4897498D02*
X16745000Y-5057498D01*
X16905000Y-4977498D02*
G75*
G02*
X16745000Y-4977498I-80000J0D01*
G01*
X16745000Y-4977498D02*
G75*
G02*
X16905000Y-4977498I80000J0D01*
G01*
X16745000Y-6597497D02*
X16905000Y-6757497D01*
X16905000Y-6597497D02*
X16745000Y-6757497D01*
X16905000Y-6677497D02*
G75*
G02*
X16745000Y-6677497I-80000J0D01*
G01*
X16745000Y-6677497D02*
G75*
G02*
X16905000Y-6677497I80000J0D01*
G01*
X17745000Y-4897498D02*
X17905000Y-5057498D01*
X17905000Y-4897498D02*
X17745000Y-5057498D01*
X17905000Y-4977498D02*
G75*
G02*
X17745000Y-4977498I-80000J0D01*
G01*
X17745000Y-4977498D02*
G75*
G02*
X17905000Y-4977498I80000J0D01*
G01*
X17745000Y-6597497D02*
X17905000Y-6757497D01*
X17905000Y-6597497D02*
X17745000Y-6757497D01*
X17905000Y-6677497D02*
G75*
G02*
X17745000Y-6677497I-80000J0D01*
G01*
X17745000Y-6677497D02*
G75*
G02*
X17905000Y-6677497I80000J0D01*
G01*
X18545000Y-4897498D02*
X18705000Y-5057498D01*
X18705000Y-4897498D02*
X18545000Y-5057498D01*
X18705000Y-4977498D02*
G75*
G02*
X18545000Y-4977498I-80000J0D01*
G01*
X18545000Y-4977498D02*
G75*
G02*
X18705000Y-4977498I80000J0D01*
G01*
X18545000Y-6597497D02*
X18705000Y-6757497D01*
X18705000Y-6597497D02*
X18545000Y-6757497D01*
X18705000Y-6677497D02*
G75*
G02*
X18545000Y-6677497I-80000J0D01*
G01*
X18545000Y-6677497D02*
G75*
G02*
X18705000Y-6677497I80000J0D01*
G01*
X19545000Y-4897498D02*
X19705000Y-5057498D01*
X19705000Y-4897498D02*
X19545000Y-5057498D01*
X19705000Y-4977498D02*
G75*
G02*
X19545000Y-4977498I-80000J0D01*
G01*
X19545000Y-4977498D02*
G75*
G02*
X19705000Y-4977498I80000J0D01*
G01*
X19545000Y-6597497D02*
X19705000Y-6757497D01*
X19705000Y-6597497D02*
X19545000Y-6757497D01*
X19705000Y-6677497D02*
G75*
G02*
X19545000Y-6677497I-80000J0D01*
G01*
X19545000Y-6677497D02*
G75*
G02*
X19705000Y-6677497I80000J0D01*
G01*
D16*
X12715000Y-5202498D02*
X12935000Y-5422498D01*
X12935000Y-5202498D02*
X12715000Y-5422498D01*
X12825000Y-5202498D02*
X12825000Y-5422498D01*
X12715000Y-5312498D02*
X12935000Y-5312498D01*
X14515000Y-8673329D02*
X14735000Y-8893329D01*
X14735000Y-8673329D02*
X14515000Y-8893329D01*
X14625000Y-8673329D02*
X14625000Y-8893329D01*
X14515000Y-8783329D02*
X14735000Y-8783329D01*
X14648334Y-11094162D02*
X14868334Y-11314161D01*
X14868334Y-11094162D02*
X14648334Y-11314161D01*
X14758334Y-11094162D02*
X14758334Y-11314161D01*
X14648334Y-11204161D02*
X14868334Y-11204161D01*
X17440000Y-9664995D02*
X17660000Y-9884995D01*
X17660000Y-9664995D02*
X17440000Y-9884995D01*
X17550000Y-9664995D02*
X17550000Y-9884995D01*
X17440000Y-9774995D02*
X17660000Y-9774995D01*
X18115000Y-5202498D02*
X18335000Y-5422498D01*
X18335000Y-5202498D02*
X18115000Y-5422498D01*
X18225000Y-5202498D02*
X18225000Y-5422498D01*
X18115000Y-5312498D02*
X18335000Y-5312498D01*
X19840000Y-9664995D02*
X20060000Y-9884995D01*
X20060000Y-9664995D02*
X19840000Y-9884995D01*
X19950000Y-9664995D02*
X19950000Y-9884995D01*
X19840000Y-9774995D02*
X20060000Y-9774995D01*
D17*
X10900000Y-11066661D02*
X11150000Y-11316661D01*
X11150000Y-11066661D02*
X10900000Y-11316661D01*
X11113389Y-11280051D02*
X11113389Y-11103272D01*
X10936611Y-11103272D01*
X10936611Y-11280051D01*
X11113389Y-11280051D01*
D11*
X11058277Y-13559811D02*
X11058277Y-13359811D01*
X11058277Y-13359811D02*
X11105896Y-13359811D01*
X11105896Y-13359811D02*
X11134467Y-13369335D01*
X11134467Y-13369335D02*
X11153515Y-13388382D01*
X11153515Y-13388382D02*
X11163039Y-13407430D01*
X11163039Y-13407430D02*
X11172563Y-13445525D01*
X11172563Y-13445525D02*
X11172563Y-13474097D01*
X11172563Y-13474097D02*
X11163039Y-13512192D01*
X11163039Y-13512192D02*
X11153515Y-13531239D01*
X11153515Y-13531239D02*
X11134467Y-13550287D01*
X11134467Y-13550287D02*
X11105896Y-13559811D01*
X11105896Y-13559811D02*
X11058277Y-13559811D01*
X11258277Y-13559811D02*
X11258277Y-13426477D01*
X11258277Y-13464573D02*
X11267801Y-13445525D01*
X11267801Y-13445525D02*
X11277324Y-13436001D01*
X11277324Y-13436001D02*
X11296372Y-13426477D01*
X11296372Y-13426477D02*
X11315420Y-13426477D01*
X11382086Y-13559811D02*
X11382086Y-13426477D01*
X11382086Y-13359811D02*
X11372562Y-13369335D01*
X11372562Y-13369335D02*
X11382086Y-13378858D01*
X11382086Y-13378858D02*
X11391610Y-13369335D01*
X11391610Y-13369335D02*
X11382086Y-13359811D01*
X11382086Y-13359811D02*
X11382086Y-13378858D01*
X11505896Y-13559811D02*
X11486848Y-13550287D01*
X11486848Y-13550287D02*
X11477324Y-13531239D01*
X11477324Y-13531239D02*
X11477324Y-13359811D01*
X11610658Y-13559811D02*
X11591610Y-13550287D01*
X11591610Y-13550287D02*
X11582086Y-13531239D01*
X11582086Y-13531239D02*
X11582086Y-13359811D01*
X11839229Y-13559811D02*
X11839229Y-13359811D01*
X11839229Y-13359811D02*
X11905896Y-13502668D01*
X11905896Y-13502668D02*
X11972562Y-13359811D01*
X11972562Y-13359811D02*
X11972562Y-13559811D01*
X12153515Y-13559811D02*
X12153515Y-13455049D01*
X12153515Y-13455049D02*
X12143991Y-13436001D01*
X12143991Y-13436001D02*
X12124943Y-13426477D01*
X12124943Y-13426477D02*
X12086848Y-13426477D01*
X12086848Y-13426477D02*
X12067801Y-13436001D01*
X12153515Y-13550287D02*
X12134467Y-13559811D01*
X12134467Y-13559811D02*
X12086848Y-13559811D01*
X12086848Y-13559811D02*
X12067801Y-13550287D01*
X12067801Y-13550287D02*
X12058277Y-13531239D01*
X12058277Y-13531239D02*
X12058277Y-13512192D01*
X12058277Y-13512192D02*
X12067801Y-13493144D01*
X12067801Y-13493144D02*
X12086848Y-13483620D01*
X12086848Y-13483620D02*
X12134467Y-13483620D01*
X12134467Y-13483620D02*
X12153515Y-13474097D01*
X12248753Y-13426477D02*
X12248753Y-13626477D01*
X12248753Y-13436001D02*
X12267801Y-13426477D01*
X12267801Y-13426477D02*
X12305896Y-13426477D01*
X12305896Y-13426477D02*
X12324943Y-13436001D01*
X12324943Y-13436001D02*
X12334467Y-13445525D01*
X12334467Y-13445525D02*
X12343991Y-13464573D01*
X12343991Y-13464573D02*
X12343991Y-13521716D01*
X12343991Y-13521716D02*
X12334467Y-13540763D01*
X12334467Y-13540763D02*
X12324943Y-13550287D01*
X12324943Y-13550287D02*
X12305896Y-13559811D01*
X12305896Y-13559811D02*
X12267801Y-13559811D01*
X12267801Y-13559811D02*
X12248753Y-13550287D01*
X12429705Y-13540763D02*
X12439229Y-13550287D01*
X12439229Y-13550287D02*
X12429705Y-13559811D01*
X12429705Y-13559811D02*
X12420182Y-13550287D01*
X12420182Y-13550287D02*
X12429705Y-13540763D01*
X12429705Y-13540763D02*
X12429705Y-13559811D01*
X12429705Y-13436001D02*
X12439229Y-13445525D01*
X12439229Y-13445525D02*
X12429705Y-13455049D01*
X12429705Y-13455049D02*
X12420182Y-13445525D01*
X12420182Y-13445525D02*
X12429705Y-13436001D01*
X12429705Y-13436001D02*
X12429705Y-13455049D01*
D12*
X10767500Y-13873327D02*
X10797500Y-13903327D01*
X10797500Y-13873327D02*
X10767500Y-13903327D01*
D11*
X11096372Y-13779811D02*
X11115420Y-13779811D01*
X11115420Y-13779811D02*
X11134467Y-13789335D01*
X11134467Y-13789335D02*
X11143991Y-13798858D01*
X11143991Y-13798858D02*
X11153515Y-13817906D01*
X11153515Y-13817906D02*
X11163039Y-13856001D01*
X11163039Y-13856001D02*
X11163039Y-13903620D01*
X11163039Y-13903620D02*
X11153515Y-13941716D01*
X11153515Y-13941716D02*
X11143991Y-13960763D01*
X11143991Y-13960763D02*
X11134467Y-13970287D01*
X11134467Y-13970287D02*
X11115420Y-13979811D01*
X11115420Y-13979811D02*
X11096372Y-13979811D01*
X11096372Y-13979811D02*
X11077324Y-13970287D01*
X11077324Y-13970287D02*
X11067801Y-13960763D01*
X11067801Y-13960763D02*
X11058277Y-13941716D01*
X11058277Y-13941716D02*
X11048753Y-13903620D01*
X11048753Y-13903620D02*
X11048753Y-13856001D01*
X11048753Y-13856001D02*
X11058277Y-13817906D01*
X11058277Y-13817906D02*
X11067801Y-13798858D01*
X11067801Y-13798858D02*
X11077324Y-13789335D01*
X11077324Y-13789335D02*
X11096372Y-13779811D01*
X11248753Y-13960763D02*
X11258277Y-13970287D01*
X11258277Y-13970287D02*
X11248753Y-13979811D01*
X11248753Y-13979811D02*
X11239229Y-13970287D01*
X11239229Y-13970287D02*
X11248753Y-13960763D01*
X11248753Y-13960763D02*
X11248753Y-13979811D01*
X11324943Y-13779811D02*
X11448753Y-13779811D01*
X11448753Y-13779811D02*
X11382086Y-13856001D01*
X11382086Y-13856001D02*
X11410658Y-13856001D01*
X11410658Y-13856001D02*
X11429705Y-13865525D01*
X11429705Y-13865525D02*
X11439229Y-13875049D01*
X11439229Y-13875049D02*
X11448753Y-13894097D01*
X11448753Y-13894097D02*
X11448753Y-13941716D01*
X11448753Y-13941716D02*
X11439229Y-13960763D01*
X11439229Y-13960763D02*
X11429705Y-13970287D01*
X11429705Y-13970287D02*
X11410658Y-13979811D01*
X11410658Y-13979811D02*
X11353515Y-13979811D01*
X11353515Y-13979811D02*
X11334467Y-13970287D01*
X11334467Y-13970287D02*
X11324943Y-13960763D01*
X11572562Y-13779811D02*
X11591610Y-13779811D01*
X11591610Y-13779811D02*
X11610658Y-13789335D01*
X11610658Y-13789335D02*
X11620182Y-13798858D01*
X11620182Y-13798858D02*
X11629705Y-13817906D01*
X11629705Y-13817906D02*
X11639229Y-13856001D01*
X11639229Y-13856001D02*
X11639229Y-13903620D01*
X11639229Y-13903620D02*
X11629705Y-13941716D01*
X11629705Y-13941716D02*
X11620182Y-13960763D01*
X11620182Y-13960763D02*
X11610658Y-13970287D01*
X11610658Y-13970287D02*
X11591610Y-13979811D01*
X11591610Y-13979811D02*
X11572562Y-13979811D01*
X11572562Y-13979811D02*
X11553515Y-13970287D01*
X11553515Y-13970287D02*
X11543991Y-13960763D01*
X11543991Y-13960763D02*
X11534467Y-13941716D01*
X11534467Y-13941716D02*
X11524943Y-13903620D01*
X11524943Y-13903620D02*
X11524943Y-13856001D01*
X11524943Y-13856001D02*
X11534467Y-13817906D01*
X11534467Y-13817906D02*
X11543991Y-13798858D01*
X11543991Y-13798858D02*
X11553515Y-13789335D01*
X11553515Y-13789335D02*
X11572562Y-13779811D01*
X11763039Y-13779811D02*
X11782086Y-13779811D01*
X11782086Y-13779811D02*
X11801134Y-13789335D01*
X11801134Y-13789335D02*
X11810658Y-13798858D01*
X11810658Y-13798858D02*
X11820182Y-13817906D01*
X11820182Y-13817906D02*
X11829705Y-13856001D01*
X11829705Y-13856001D02*
X11829705Y-13903620D01*
X11829705Y-13903620D02*
X11820182Y-13941716D01*
X11820182Y-13941716D02*
X11810658Y-13960763D01*
X11810658Y-13960763D02*
X11801134Y-13970287D01*
X11801134Y-13970287D02*
X11782086Y-13979811D01*
X11782086Y-13979811D02*
X11763039Y-13979811D01*
X11763039Y-13979811D02*
X11743991Y-13970287D01*
X11743991Y-13970287D02*
X11734467Y-13960763D01*
X11734467Y-13960763D02*
X11724943Y-13941716D01*
X11724943Y-13941716D02*
X11715420Y-13903620D01*
X11715420Y-13903620D02*
X11715420Y-13856001D01*
X11715420Y-13856001D02*
X11724943Y-13817906D01*
X11724943Y-13817906D02*
X11734467Y-13798858D01*
X11734467Y-13798858D02*
X11743991Y-13789335D01*
X11743991Y-13789335D02*
X11763039Y-13779811D01*
X11915420Y-13979811D02*
X11915420Y-13846477D01*
X11915420Y-13865525D02*
X11924943Y-13856001D01*
X11924943Y-13856001D02*
X11943991Y-13846477D01*
X11943991Y-13846477D02*
X11972563Y-13846477D01*
X11972563Y-13846477D02*
X11991610Y-13856001D01*
X11991610Y-13856001D02*
X12001134Y-13875049D01*
X12001134Y-13875049D02*
X12001134Y-13979811D01*
X12001134Y-13875049D02*
X12010658Y-13856001D01*
X12010658Y-13856001D02*
X12029705Y-13846477D01*
X12029705Y-13846477D02*
X12058277Y-13846477D01*
X12058277Y-13846477D02*
X12077324Y-13856001D01*
X12077324Y-13856001D02*
X12086848Y-13875049D01*
X12086848Y-13875049D02*
X12086848Y-13979811D01*
X12182086Y-13979811D02*
X12182086Y-13846477D01*
X12182086Y-13865525D02*
X12191610Y-13856001D01*
X12191610Y-13856001D02*
X12210658Y-13846477D01*
X12210658Y-13846477D02*
X12239229Y-13846477D01*
X12239229Y-13846477D02*
X12258277Y-13856001D01*
X12258277Y-13856001D02*
X12267801Y-13875049D01*
X12267801Y-13875049D02*
X12267801Y-13979811D01*
X12267801Y-13875049D02*
X12277324Y-13856001D01*
X12277324Y-13856001D02*
X12296372Y-13846477D01*
X12296372Y-13846477D02*
X12324943Y-13846477D01*
X12324943Y-13846477D02*
X12343991Y-13856001D01*
X12343991Y-13856001D02*
X12353515Y-13875049D01*
X12353515Y-13875049D02*
X12353515Y-13979811D01*
X12743991Y-13770287D02*
X12572563Y-14027430D01*
X13001134Y-13779811D02*
X13020182Y-13779811D01*
X13020182Y-13779811D02*
X13039229Y-13789335D01*
X13039229Y-13789335D02*
X13048753Y-13798858D01*
X13048753Y-13798858D02*
X13058277Y-13817906D01*
X13058277Y-13817906D02*
X13067801Y-13856001D01*
X13067801Y-13856001D02*
X13067801Y-13903620D01*
X13067801Y-13903620D02*
X13058277Y-13941716D01*
X13058277Y-13941716D02*
X13048753Y-13960763D01*
X13048753Y-13960763D02*
X13039229Y-13970287D01*
X13039229Y-13970287D02*
X13020182Y-13979811D01*
X13020182Y-13979811D02*
X13001134Y-13979811D01*
X13001134Y-13979811D02*
X12982086Y-13970287D01*
X12982086Y-13970287D02*
X12972563Y-13960763D01*
X12972563Y-13960763D02*
X12963039Y-13941716D01*
X12963039Y-13941716D02*
X12953515Y-13903620D01*
X12953515Y-13903620D02*
X12953515Y-13856001D01*
X12953515Y-13856001D02*
X12963039Y-13817906D01*
X12963039Y-13817906D02*
X12972563Y-13798858D01*
X12972563Y-13798858D02*
X12982086Y-13789335D01*
X12982086Y-13789335D02*
X13001134Y-13779811D01*
X13153515Y-13960763D02*
X13163039Y-13970287D01*
X13163039Y-13970287D02*
X13153515Y-13979811D01*
X13153515Y-13979811D02*
X13143991Y-13970287D01*
X13143991Y-13970287D02*
X13153515Y-13960763D01*
X13153515Y-13960763D02*
X13153515Y-13979811D01*
X13286848Y-13779811D02*
X13305896Y-13779811D01*
X13305896Y-13779811D02*
X13324944Y-13789335D01*
X13324944Y-13789335D02*
X13334467Y-13798858D01*
X13334467Y-13798858D02*
X13343991Y-13817906D01*
X13343991Y-13817906D02*
X13353515Y-13856001D01*
X13353515Y-13856001D02*
X13353515Y-13903620D01*
X13353515Y-13903620D02*
X13343991Y-13941716D01*
X13343991Y-13941716D02*
X13334467Y-13960763D01*
X13334467Y-13960763D02*
X13324944Y-13970287D01*
X13324944Y-13970287D02*
X13305896Y-13979811D01*
X13305896Y-13979811D02*
X13286848Y-13979811D01*
X13286848Y-13979811D02*
X13267801Y-13970287D01*
X13267801Y-13970287D02*
X13258277Y-13960763D01*
X13258277Y-13960763D02*
X13248753Y-13941716D01*
X13248753Y-13941716D02*
X13239229Y-13903620D01*
X13239229Y-13903620D02*
X13239229Y-13856001D01*
X13239229Y-13856001D02*
X13248753Y-13817906D01*
X13248753Y-13817906D02*
X13258277Y-13798858D01*
X13258277Y-13798858D02*
X13267801Y-13789335D01*
X13267801Y-13789335D02*
X13286848Y-13779811D01*
X13543991Y-13979811D02*
X13429706Y-13979811D01*
X13486848Y-13979811D02*
X13486848Y-13779811D01*
X13486848Y-13779811D02*
X13467801Y-13808382D01*
X13467801Y-13808382D02*
X13448753Y-13827430D01*
X13448753Y-13827430D02*
X13429706Y-13836954D01*
X13734467Y-13979811D02*
X13620182Y-13979811D01*
X13677325Y-13979811D02*
X13677325Y-13779811D01*
X13677325Y-13779811D02*
X13658277Y-13808382D01*
X13658277Y-13808382D02*
X13639229Y-13827430D01*
X13639229Y-13827430D02*
X13620182Y-13836954D01*
X13848753Y-13865525D02*
X13829706Y-13856001D01*
X13829706Y-13856001D02*
X13820182Y-13846477D01*
X13820182Y-13846477D02*
X13810658Y-13827430D01*
X13810658Y-13827430D02*
X13810658Y-13817906D01*
X13810658Y-13817906D02*
X13820182Y-13798858D01*
X13820182Y-13798858D02*
X13829706Y-13789335D01*
X13829706Y-13789335D02*
X13848753Y-13779811D01*
X13848753Y-13779811D02*
X13886848Y-13779811D01*
X13886848Y-13779811D02*
X13905896Y-13789335D01*
X13905896Y-13789335D02*
X13915420Y-13798858D01*
X13915420Y-13798858D02*
X13924944Y-13817906D01*
X13924944Y-13817906D02*
X13924944Y-13827430D01*
X13924944Y-13827430D02*
X13915420Y-13846477D01*
X13915420Y-13846477D02*
X13905896Y-13856001D01*
X13905896Y-13856001D02*
X13886848Y-13865525D01*
X13886848Y-13865525D02*
X13848753Y-13865525D01*
X13848753Y-13865525D02*
X13829706Y-13875049D01*
X13829706Y-13875049D02*
X13820182Y-13884573D01*
X13820182Y-13884573D02*
X13810658Y-13903620D01*
X13810658Y-13903620D02*
X13810658Y-13941716D01*
X13810658Y-13941716D02*
X13820182Y-13960763D01*
X13820182Y-13960763D02*
X13829706Y-13970287D01*
X13829706Y-13970287D02*
X13848753Y-13979811D01*
X13848753Y-13979811D02*
X13886848Y-13979811D01*
X13886848Y-13979811D02*
X13905896Y-13970287D01*
X13905896Y-13970287D02*
X13915420Y-13960763D01*
X13915420Y-13960763D02*
X13924944Y-13941716D01*
X13924944Y-13941716D02*
X13924944Y-13903620D01*
X13924944Y-13903620D02*
X13915420Y-13884573D01*
X13915420Y-13884573D02*
X13905896Y-13875049D01*
X13905896Y-13875049D02*
X13886848Y-13865525D01*
X14001134Y-13779811D02*
X14001134Y-13817906D01*
X14077325Y-13779811D02*
X14077325Y-13817906D01*
X14372563Y-14056001D02*
X14363039Y-14046477D01*
X14363039Y-14046477D02*
X14343991Y-14017906D01*
X14343991Y-14017906D02*
X14334468Y-13998858D01*
X14334468Y-13998858D02*
X14324944Y-13970287D01*
X14324944Y-13970287D02*
X14315420Y-13922668D01*
X14315420Y-13922668D02*
X14315420Y-13884573D01*
X14315420Y-13884573D02*
X14324944Y-13836954D01*
X14324944Y-13836954D02*
X14334468Y-13808382D01*
X14334468Y-13808382D02*
X14343991Y-13789335D01*
X14343991Y-13789335D02*
X14363039Y-13760763D01*
X14363039Y-13760763D02*
X14372563Y-13751239D01*
X14534468Y-13779811D02*
X14496372Y-13779811D01*
X14496372Y-13779811D02*
X14477325Y-13789335D01*
X14477325Y-13789335D02*
X14467801Y-13798858D01*
X14467801Y-13798858D02*
X14448753Y-13827430D01*
X14448753Y-13827430D02*
X14439229Y-13865525D01*
X14439229Y-13865525D02*
X14439229Y-13941716D01*
X14439229Y-13941716D02*
X14448753Y-13960763D01*
X14448753Y-13960763D02*
X14458277Y-13970287D01*
X14458277Y-13970287D02*
X14477325Y-13979811D01*
X14477325Y-13979811D02*
X14515420Y-13979811D01*
X14515420Y-13979811D02*
X14534468Y-13970287D01*
X14534468Y-13970287D02*
X14543991Y-13960763D01*
X14543991Y-13960763D02*
X14553515Y-13941716D01*
X14553515Y-13941716D02*
X14553515Y-13894097D01*
X14553515Y-13894097D02*
X14543991Y-13875049D01*
X14543991Y-13875049D02*
X14534468Y-13865525D01*
X14534468Y-13865525D02*
X14515420Y-13856001D01*
X14515420Y-13856001D02*
X14477325Y-13856001D01*
X14477325Y-13856001D02*
X14458277Y-13865525D01*
X14458277Y-13865525D02*
X14448753Y-13875049D01*
X14448753Y-13875049D02*
X14439229Y-13894097D01*
X14791610Y-13979811D02*
X14791610Y-13779811D01*
X14877325Y-13979811D02*
X14877325Y-13875049D01*
X14877325Y-13875049D02*
X14867801Y-13856001D01*
X14867801Y-13856001D02*
X14848753Y-13846477D01*
X14848753Y-13846477D02*
X14820182Y-13846477D01*
X14820182Y-13846477D02*
X14801134Y-13856001D01*
X14801134Y-13856001D02*
X14791610Y-13865525D01*
X15001134Y-13979811D02*
X14982087Y-13970287D01*
X14982087Y-13970287D02*
X14972563Y-13960763D01*
X14972563Y-13960763D02*
X14963039Y-13941716D01*
X14963039Y-13941716D02*
X14963039Y-13884573D01*
X14963039Y-13884573D02*
X14972563Y-13865525D01*
X14972563Y-13865525D02*
X14982087Y-13856001D01*
X14982087Y-13856001D02*
X15001134Y-13846477D01*
X15001134Y-13846477D02*
X15029706Y-13846477D01*
X15029706Y-13846477D02*
X15048753Y-13856001D01*
X15048753Y-13856001D02*
X15058277Y-13865525D01*
X15058277Y-13865525D02*
X15067801Y-13884573D01*
X15067801Y-13884573D02*
X15067801Y-13941716D01*
X15067801Y-13941716D02*
X15058277Y-13960763D01*
X15058277Y-13960763D02*
X15048753Y-13970287D01*
X15048753Y-13970287D02*
X15029706Y-13979811D01*
X15029706Y-13979811D02*
X15001134Y-13979811D01*
X15182087Y-13979811D02*
X15163039Y-13970287D01*
X15163039Y-13970287D02*
X15153515Y-13951239D01*
X15153515Y-13951239D02*
X15153515Y-13779811D01*
X15334468Y-13970287D02*
X15315420Y-13979811D01*
X15315420Y-13979811D02*
X15277325Y-13979811D01*
X15277325Y-13979811D02*
X15258277Y-13970287D01*
X15258277Y-13970287D02*
X15248753Y-13951239D01*
X15248753Y-13951239D02*
X15248753Y-13875049D01*
X15248753Y-13875049D02*
X15258277Y-13856001D01*
X15258277Y-13856001D02*
X15277325Y-13846477D01*
X15277325Y-13846477D02*
X15315420Y-13846477D01*
X15315420Y-13846477D02*
X15334468Y-13856001D01*
X15334468Y-13856001D02*
X15343991Y-13875049D01*
X15343991Y-13875049D02*
X15343991Y-13894097D01*
X15343991Y-13894097D02*
X15248753Y-13913144D01*
X15420182Y-13970287D02*
X15439230Y-13979811D01*
X15439230Y-13979811D02*
X15477325Y-13979811D01*
X15477325Y-13979811D02*
X15496372Y-13970287D01*
X15496372Y-13970287D02*
X15505896Y-13951239D01*
X15505896Y-13951239D02*
X15505896Y-13941716D01*
X15505896Y-13941716D02*
X15496372Y-13922668D01*
X15496372Y-13922668D02*
X15477325Y-13913144D01*
X15477325Y-13913144D02*
X15448753Y-13913144D01*
X15448753Y-13913144D02*
X15429706Y-13903620D01*
X15429706Y-13903620D02*
X15420182Y-13884573D01*
X15420182Y-13884573D02*
X15420182Y-13875049D01*
X15420182Y-13875049D02*
X15429706Y-13856001D01*
X15429706Y-13856001D02*
X15448753Y-13846477D01*
X15448753Y-13846477D02*
X15477325Y-13846477D01*
X15477325Y-13846477D02*
X15496372Y-13856001D01*
X15572563Y-14056001D02*
X15582087Y-14046477D01*
X15582087Y-14046477D02*
X15601134Y-14017906D01*
X15601134Y-14017906D02*
X15610658Y-13998858D01*
X15610658Y-13998858D02*
X15620182Y-13970287D01*
X15620182Y-13970287D02*
X15629706Y-13922668D01*
X15629706Y-13922668D02*
X15629706Y-13884573D01*
X15629706Y-13884573D02*
X15620182Y-13836954D01*
X15620182Y-13836954D02*
X15610658Y-13808382D01*
X15610658Y-13808382D02*
X15601134Y-13789335D01*
X15601134Y-13789335D02*
X15582087Y-13760763D01*
X15582087Y-13760763D02*
X15572563Y-13751239D01*
D12*
X10797500Y-14152327D02*
G75*
G02*
X10727500Y-14152327I-35000J0D01*
G01*
X10727500Y-14152327D02*
G75*
G02*
X10797500Y-14152327I35000J0D01*
G01*
D11*
X11096372Y-14043811D02*
X11115420Y-14043811D01*
X11115420Y-14043811D02*
X11134467Y-14053335D01*
X11134467Y-14053335D02*
X11143991Y-14062858D01*
X11143991Y-14062858D02*
X11153515Y-14081906D01*
X11153515Y-14081906D02*
X11163039Y-14120001D01*
X11163039Y-14120001D02*
X11163039Y-14167620D01*
X11163039Y-14167620D02*
X11153515Y-14205716D01*
X11153515Y-14205716D02*
X11143991Y-14224763D01*
X11143991Y-14224763D02*
X11134467Y-14234287D01*
X11134467Y-14234287D02*
X11115420Y-14243811D01*
X11115420Y-14243811D02*
X11096372Y-14243811D01*
X11096372Y-14243811D02*
X11077324Y-14234287D01*
X11077324Y-14234287D02*
X11067801Y-14224763D01*
X11067801Y-14224763D02*
X11058277Y-14205716D01*
X11058277Y-14205716D02*
X11048753Y-14167620D01*
X11048753Y-14167620D02*
X11048753Y-14120001D01*
X11048753Y-14120001D02*
X11058277Y-14081906D01*
X11058277Y-14081906D02*
X11067801Y-14062858D01*
X11067801Y-14062858D02*
X11077324Y-14053335D01*
X11077324Y-14053335D02*
X11096372Y-14043811D01*
X11248753Y-14224763D02*
X11258277Y-14234287D01*
X11258277Y-14234287D02*
X11248753Y-14243811D01*
X11248753Y-14243811D02*
X11239229Y-14234287D01*
X11239229Y-14234287D02*
X11248753Y-14224763D01*
X11248753Y-14224763D02*
X11248753Y-14243811D01*
X11324943Y-14043811D02*
X11458277Y-14043811D01*
X11458277Y-14043811D02*
X11372562Y-14243811D01*
X11572562Y-14043811D02*
X11591610Y-14043811D01*
X11591610Y-14043811D02*
X11610658Y-14053335D01*
X11610658Y-14053335D02*
X11620182Y-14062858D01*
X11620182Y-14062858D02*
X11629705Y-14081906D01*
X11629705Y-14081906D02*
X11639229Y-14120001D01*
X11639229Y-14120001D02*
X11639229Y-14167620D01*
X11639229Y-14167620D02*
X11629705Y-14205716D01*
X11629705Y-14205716D02*
X11620182Y-14224763D01*
X11620182Y-14224763D02*
X11610658Y-14234287D01*
X11610658Y-14234287D02*
X11591610Y-14243811D01*
X11591610Y-14243811D02*
X11572562Y-14243811D01*
X11572562Y-14243811D02*
X11553515Y-14234287D01*
X11553515Y-14234287D02*
X11543991Y-14224763D01*
X11543991Y-14224763D02*
X11534467Y-14205716D01*
X11534467Y-14205716D02*
X11524943Y-14167620D01*
X11524943Y-14167620D02*
X11524943Y-14120001D01*
X11524943Y-14120001D02*
X11534467Y-14081906D01*
X11534467Y-14081906D02*
X11543991Y-14062858D01*
X11543991Y-14062858D02*
X11553515Y-14053335D01*
X11553515Y-14053335D02*
X11572562Y-14043811D01*
X11763039Y-14043811D02*
X11782086Y-14043811D01*
X11782086Y-14043811D02*
X11801134Y-14053335D01*
X11801134Y-14053335D02*
X11810658Y-14062858D01*
X11810658Y-14062858D02*
X11820182Y-14081906D01*
X11820182Y-14081906D02*
X11829705Y-14120001D01*
X11829705Y-14120001D02*
X11829705Y-14167620D01*
X11829705Y-14167620D02*
X11820182Y-14205716D01*
X11820182Y-14205716D02*
X11810658Y-14224763D01*
X11810658Y-14224763D02*
X11801134Y-14234287D01*
X11801134Y-14234287D02*
X11782086Y-14243811D01*
X11782086Y-14243811D02*
X11763039Y-14243811D01*
X11763039Y-14243811D02*
X11743991Y-14234287D01*
X11743991Y-14234287D02*
X11734467Y-14224763D01*
X11734467Y-14224763D02*
X11724943Y-14205716D01*
X11724943Y-14205716D02*
X11715420Y-14167620D01*
X11715420Y-14167620D02*
X11715420Y-14120001D01*
X11715420Y-14120001D02*
X11724943Y-14081906D01*
X11724943Y-14081906D02*
X11734467Y-14062858D01*
X11734467Y-14062858D02*
X11743991Y-14053335D01*
X11743991Y-14053335D02*
X11763039Y-14043811D01*
X11915420Y-14243811D02*
X11915420Y-14110477D01*
X11915420Y-14129525D02*
X11924943Y-14120001D01*
X11924943Y-14120001D02*
X11943991Y-14110477D01*
X11943991Y-14110477D02*
X11972563Y-14110477D01*
X11972563Y-14110477D02*
X11991610Y-14120001D01*
X11991610Y-14120001D02*
X12001134Y-14139049D01*
X12001134Y-14139049D02*
X12001134Y-14243811D01*
X12001134Y-14139049D02*
X12010658Y-14120001D01*
X12010658Y-14120001D02*
X12029705Y-14110477D01*
X12029705Y-14110477D02*
X12058277Y-14110477D01*
X12058277Y-14110477D02*
X12077324Y-14120001D01*
X12077324Y-14120001D02*
X12086848Y-14139049D01*
X12086848Y-14139049D02*
X12086848Y-14243811D01*
X12182086Y-14243811D02*
X12182086Y-14110477D01*
X12182086Y-14129525D02*
X12191610Y-14120001D01*
X12191610Y-14120001D02*
X12210658Y-14110477D01*
X12210658Y-14110477D02*
X12239229Y-14110477D01*
X12239229Y-14110477D02*
X12258277Y-14120001D01*
X12258277Y-14120001D02*
X12267801Y-14139049D01*
X12267801Y-14139049D02*
X12267801Y-14243811D01*
X12267801Y-14139049D02*
X12277324Y-14120001D01*
X12277324Y-14120001D02*
X12296372Y-14110477D01*
X12296372Y-14110477D02*
X12324943Y-14110477D01*
X12324943Y-14110477D02*
X12343991Y-14120001D01*
X12343991Y-14120001D02*
X12353515Y-14139049D01*
X12353515Y-14139049D02*
X12353515Y-14243811D01*
X12743991Y-14034287D02*
X12572563Y-14291430D01*
X13001134Y-14043811D02*
X13020182Y-14043811D01*
X13020182Y-14043811D02*
X13039229Y-14053335D01*
X13039229Y-14053335D02*
X13048753Y-14062858D01*
X13048753Y-14062858D02*
X13058277Y-14081906D01*
X13058277Y-14081906D02*
X13067801Y-14120001D01*
X13067801Y-14120001D02*
X13067801Y-14167620D01*
X13067801Y-14167620D02*
X13058277Y-14205716D01*
X13058277Y-14205716D02*
X13048753Y-14224763D01*
X13048753Y-14224763D02*
X13039229Y-14234287D01*
X13039229Y-14234287D02*
X13020182Y-14243811D01*
X13020182Y-14243811D02*
X13001134Y-14243811D01*
X13001134Y-14243811D02*
X12982086Y-14234287D01*
X12982086Y-14234287D02*
X12972563Y-14224763D01*
X12972563Y-14224763D02*
X12963039Y-14205716D01*
X12963039Y-14205716D02*
X12953515Y-14167620D01*
X12953515Y-14167620D02*
X12953515Y-14120001D01*
X12953515Y-14120001D02*
X12963039Y-14081906D01*
X12963039Y-14081906D02*
X12972563Y-14062858D01*
X12972563Y-14062858D02*
X12982086Y-14053335D01*
X12982086Y-14053335D02*
X13001134Y-14043811D01*
X13153515Y-14224763D02*
X13163039Y-14234287D01*
X13163039Y-14234287D02*
X13153515Y-14243811D01*
X13153515Y-14243811D02*
X13143991Y-14234287D01*
X13143991Y-14234287D02*
X13153515Y-14224763D01*
X13153515Y-14224763D02*
X13153515Y-14243811D01*
X13286848Y-14043811D02*
X13305896Y-14043811D01*
X13305896Y-14043811D02*
X13324944Y-14053335D01*
X13324944Y-14053335D02*
X13334467Y-14062858D01*
X13334467Y-14062858D02*
X13343991Y-14081906D01*
X13343991Y-14081906D02*
X13353515Y-14120001D01*
X13353515Y-14120001D02*
X13353515Y-14167620D01*
X13353515Y-14167620D02*
X13343991Y-14205716D01*
X13343991Y-14205716D02*
X13334467Y-14224763D01*
X13334467Y-14224763D02*
X13324944Y-14234287D01*
X13324944Y-14234287D02*
X13305896Y-14243811D01*
X13305896Y-14243811D02*
X13286848Y-14243811D01*
X13286848Y-14243811D02*
X13267801Y-14234287D01*
X13267801Y-14234287D02*
X13258277Y-14224763D01*
X13258277Y-14224763D02*
X13248753Y-14205716D01*
X13248753Y-14205716D02*
X13239229Y-14167620D01*
X13239229Y-14167620D02*
X13239229Y-14120001D01*
X13239229Y-14120001D02*
X13248753Y-14081906D01*
X13248753Y-14081906D02*
X13258277Y-14062858D01*
X13258277Y-14062858D02*
X13267801Y-14053335D01*
X13267801Y-14053335D02*
X13286848Y-14043811D01*
X13429706Y-14062858D02*
X13439229Y-14053335D01*
X13439229Y-14053335D02*
X13458277Y-14043811D01*
X13458277Y-14043811D02*
X13505896Y-14043811D01*
X13505896Y-14043811D02*
X13524944Y-14053335D01*
X13524944Y-14053335D02*
X13534467Y-14062858D01*
X13534467Y-14062858D02*
X13543991Y-14081906D01*
X13543991Y-14081906D02*
X13543991Y-14100954D01*
X13543991Y-14100954D02*
X13534467Y-14129525D01*
X13534467Y-14129525D02*
X13420182Y-14243811D01*
X13420182Y-14243811D02*
X13543991Y-14243811D01*
X13610658Y-14043811D02*
X13743991Y-14043811D01*
X13743991Y-14043811D02*
X13658277Y-14243811D01*
X13905896Y-14043811D02*
X13867801Y-14043811D01*
X13867801Y-14043811D02*
X13848753Y-14053335D01*
X13848753Y-14053335D02*
X13839229Y-14062858D01*
X13839229Y-14062858D02*
X13820182Y-14091430D01*
X13820182Y-14091430D02*
X13810658Y-14129525D01*
X13810658Y-14129525D02*
X13810658Y-14205716D01*
X13810658Y-14205716D02*
X13820182Y-14224763D01*
X13820182Y-14224763D02*
X13829706Y-14234287D01*
X13829706Y-14234287D02*
X13848753Y-14243811D01*
X13848753Y-14243811D02*
X13886848Y-14243811D01*
X13886848Y-14243811D02*
X13905896Y-14234287D01*
X13905896Y-14234287D02*
X13915420Y-14224763D01*
X13915420Y-14224763D02*
X13924944Y-14205716D01*
X13924944Y-14205716D02*
X13924944Y-14158097D01*
X13924944Y-14158097D02*
X13915420Y-14139049D01*
X13915420Y-14139049D02*
X13905896Y-14129525D01*
X13905896Y-14129525D02*
X13886848Y-14120001D01*
X13886848Y-14120001D02*
X13848753Y-14120001D01*
X13848753Y-14120001D02*
X13829706Y-14129525D01*
X13829706Y-14129525D02*
X13820182Y-14139049D01*
X13820182Y-14139049D02*
X13810658Y-14158097D01*
X14001134Y-14043811D02*
X14001134Y-14081906D01*
X14077325Y-14043811D02*
X14077325Y-14081906D01*
X14372563Y-14320001D02*
X14363039Y-14310477D01*
X14363039Y-14310477D02*
X14343991Y-14281906D01*
X14343991Y-14281906D02*
X14334468Y-14262858D01*
X14334468Y-14262858D02*
X14324944Y-14234287D01*
X14324944Y-14234287D02*
X14315420Y-14186668D01*
X14315420Y-14186668D02*
X14315420Y-14148573D01*
X14315420Y-14148573D02*
X14324944Y-14100954D01*
X14324944Y-14100954D02*
X14334468Y-14072382D01*
X14334468Y-14072382D02*
X14343991Y-14053335D01*
X14343991Y-14053335D02*
X14363039Y-14024763D01*
X14363039Y-14024763D02*
X14372563Y-14015239D01*
X14486848Y-14043811D02*
X14505896Y-14043811D01*
X14505896Y-14043811D02*
X14524944Y-14053335D01*
X14524944Y-14053335D02*
X14534468Y-14062858D01*
X14534468Y-14062858D02*
X14543991Y-14081906D01*
X14543991Y-14081906D02*
X14553515Y-14120001D01*
X14553515Y-14120001D02*
X14553515Y-14167620D01*
X14553515Y-14167620D02*
X14543991Y-14205716D01*
X14543991Y-14205716D02*
X14534468Y-14224763D01*
X14534468Y-14224763D02*
X14524944Y-14234287D01*
X14524944Y-14234287D02*
X14505896Y-14243811D01*
X14505896Y-14243811D02*
X14486848Y-14243811D01*
X14486848Y-14243811D02*
X14467801Y-14234287D01*
X14467801Y-14234287D02*
X14458277Y-14224763D01*
X14458277Y-14224763D02*
X14448753Y-14205716D01*
X14448753Y-14205716D02*
X14439229Y-14167620D01*
X14439229Y-14167620D02*
X14439229Y-14120001D01*
X14439229Y-14120001D02*
X14448753Y-14081906D01*
X14448753Y-14081906D02*
X14458277Y-14062858D01*
X14458277Y-14062858D02*
X14467801Y-14053335D01*
X14467801Y-14053335D02*
X14486848Y-14043811D01*
X14791610Y-14243811D02*
X14791610Y-14043811D01*
X14877325Y-14243811D02*
X14877325Y-14139049D01*
X14877325Y-14139049D02*
X14867801Y-14120001D01*
X14867801Y-14120001D02*
X14848753Y-14110477D01*
X14848753Y-14110477D02*
X14820182Y-14110477D01*
X14820182Y-14110477D02*
X14801134Y-14120001D01*
X14801134Y-14120001D02*
X14791610Y-14129525D01*
X15001134Y-14243811D02*
X14982087Y-14234287D01*
X14982087Y-14234287D02*
X14972563Y-14224763D01*
X14972563Y-14224763D02*
X14963039Y-14205716D01*
X14963039Y-14205716D02*
X14963039Y-14148573D01*
X14963039Y-14148573D02*
X14972563Y-14129525D01*
X14972563Y-14129525D02*
X14982087Y-14120001D01*
X14982087Y-14120001D02*
X15001134Y-14110477D01*
X15001134Y-14110477D02*
X15029706Y-14110477D01*
X15029706Y-14110477D02*
X15048753Y-14120001D01*
X15048753Y-14120001D02*
X15058277Y-14129525D01*
X15058277Y-14129525D02*
X15067801Y-14148573D01*
X15067801Y-14148573D02*
X15067801Y-14205716D01*
X15067801Y-14205716D02*
X15058277Y-14224763D01*
X15058277Y-14224763D02*
X15048753Y-14234287D01*
X15048753Y-14234287D02*
X15029706Y-14243811D01*
X15029706Y-14243811D02*
X15001134Y-14243811D01*
X15182087Y-14243811D02*
X15163039Y-14234287D01*
X15163039Y-14234287D02*
X15153515Y-14215239D01*
X15153515Y-14215239D02*
X15153515Y-14043811D01*
X15334468Y-14234287D02*
X15315420Y-14243811D01*
X15315420Y-14243811D02*
X15277325Y-14243811D01*
X15277325Y-14243811D02*
X15258277Y-14234287D01*
X15258277Y-14234287D02*
X15248753Y-14215239D01*
X15248753Y-14215239D02*
X15248753Y-14139049D01*
X15248753Y-14139049D02*
X15258277Y-14120001D01*
X15258277Y-14120001D02*
X15277325Y-14110477D01*
X15277325Y-14110477D02*
X15315420Y-14110477D01*
X15315420Y-14110477D02*
X15334468Y-14120001D01*
X15334468Y-14120001D02*
X15343991Y-14139049D01*
X15343991Y-14139049D02*
X15343991Y-14158097D01*
X15343991Y-14158097D02*
X15248753Y-14177144D01*
X15420182Y-14234287D02*
X15439230Y-14243811D01*
X15439230Y-14243811D02*
X15477325Y-14243811D01*
X15477325Y-14243811D02*
X15496372Y-14234287D01*
X15496372Y-14234287D02*
X15505896Y-14215239D01*
X15505896Y-14215239D02*
X15505896Y-14205716D01*
X15505896Y-14205716D02*
X15496372Y-14186668D01*
X15496372Y-14186668D02*
X15477325Y-14177144D01*
X15477325Y-14177144D02*
X15448753Y-14177144D01*
X15448753Y-14177144D02*
X15429706Y-14167620D01*
X15429706Y-14167620D02*
X15420182Y-14148573D01*
X15420182Y-14148573D02*
X15420182Y-14139049D01*
X15420182Y-14139049D02*
X15429706Y-14120001D01*
X15429706Y-14120001D02*
X15448753Y-14110477D01*
X15448753Y-14110477D02*
X15477325Y-14110477D01*
X15477325Y-14110477D02*
X15496372Y-14120001D01*
X15743992Y-14167620D02*
X15896373Y-14167620D01*
X15820182Y-14243811D02*
X15820182Y-14091430D01*
X16134468Y-14062858D02*
X16143992Y-14053335D01*
X16143992Y-14053335D02*
X16163039Y-14043811D01*
X16163039Y-14043811D02*
X16210658Y-14043811D01*
X16210658Y-14043811D02*
X16229706Y-14053335D01*
X16229706Y-14053335D02*
X16239230Y-14062858D01*
X16239230Y-14062858D02*
X16248753Y-14081906D01*
X16248753Y-14081906D02*
X16248753Y-14100954D01*
X16248753Y-14100954D02*
X16239230Y-14129525D01*
X16239230Y-14129525D02*
X16124944Y-14243811D01*
X16124944Y-14243811D02*
X16248753Y-14243811D01*
X16363039Y-14129525D02*
X16343992Y-14120001D01*
X16343992Y-14120001D02*
X16334468Y-14110477D01*
X16334468Y-14110477D02*
X16324944Y-14091430D01*
X16324944Y-14091430D02*
X16324944Y-14081906D01*
X16324944Y-14081906D02*
X16334468Y-14062858D01*
X16334468Y-14062858D02*
X16343992Y-14053335D01*
X16343992Y-14053335D02*
X16363039Y-14043811D01*
X16363039Y-14043811D02*
X16401134Y-14043811D01*
X16401134Y-14043811D02*
X16420182Y-14053335D01*
X16420182Y-14053335D02*
X16429706Y-14062858D01*
X16429706Y-14062858D02*
X16439230Y-14081906D01*
X16439230Y-14081906D02*
X16439230Y-14091430D01*
X16439230Y-14091430D02*
X16429706Y-14110477D01*
X16429706Y-14110477D02*
X16420182Y-14120001D01*
X16420182Y-14120001D02*
X16401134Y-14129525D01*
X16401134Y-14129525D02*
X16363039Y-14129525D01*
X16363039Y-14129525D02*
X16343992Y-14139049D01*
X16343992Y-14139049D02*
X16334468Y-14148573D01*
X16334468Y-14148573D02*
X16324944Y-14167620D01*
X16324944Y-14167620D02*
X16324944Y-14205716D01*
X16324944Y-14205716D02*
X16334468Y-14224763D01*
X16334468Y-14224763D02*
X16343992Y-14234287D01*
X16343992Y-14234287D02*
X16363039Y-14243811D01*
X16363039Y-14243811D02*
X16401134Y-14243811D01*
X16401134Y-14243811D02*
X16420182Y-14234287D01*
X16420182Y-14234287D02*
X16429706Y-14224763D01*
X16429706Y-14224763D02*
X16439230Y-14205716D01*
X16439230Y-14205716D02*
X16439230Y-14167620D01*
X16439230Y-14167620D02*
X16429706Y-14148573D01*
X16429706Y-14148573D02*
X16420182Y-14139049D01*
X16420182Y-14139049D02*
X16401134Y-14129525D01*
X16667801Y-14234287D02*
X16686849Y-14243811D01*
X16686849Y-14243811D02*
X16724944Y-14243811D01*
X16724944Y-14243811D02*
X16743992Y-14234287D01*
X16743992Y-14234287D02*
X16753515Y-14215239D01*
X16753515Y-14215239D02*
X16753515Y-14205716D01*
X16753515Y-14205716D02*
X16743992Y-14186668D01*
X16743992Y-14186668D02*
X16724944Y-14177144D01*
X16724944Y-14177144D02*
X16696373Y-14177144D01*
X16696373Y-14177144D02*
X16677325Y-14167620D01*
X16677325Y-14167620D02*
X16667801Y-14148573D01*
X16667801Y-14148573D02*
X16667801Y-14139049D01*
X16667801Y-14139049D02*
X16677325Y-14120001D01*
X16677325Y-14120001D02*
X16696373Y-14110477D01*
X16696373Y-14110477D02*
X16724944Y-14110477D01*
X16724944Y-14110477D02*
X16743992Y-14120001D01*
X16867801Y-14243811D02*
X16848754Y-14234287D01*
X16848754Y-14234287D02*
X16839230Y-14215239D01*
X16839230Y-14215239D02*
X16839230Y-14043811D01*
X16972563Y-14243811D02*
X16953516Y-14234287D01*
X16953516Y-14234287D02*
X16943992Y-14224763D01*
X16943992Y-14224763D02*
X16934468Y-14205716D01*
X16934468Y-14205716D02*
X16934468Y-14148573D01*
X16934468Y-14148573D02*
X16943992Y-14129525D01*
X16943992Y-14129525D02*
X16953516Y-14120001D01*
X16953516Y-14120001D02*
X16972563Y-14110477D01*
X16972563Y-14110477D02*
X17001135Y-14110477D01*
X17001135Y-14110477D02*
X17020182Y-14120001D01*
X17020182Y-14120001D02*
X17029706Y-14129525D01*
X17029706Y-14129525D02*
X17039230Y-14148573D01*
X17039230Y-14148573D02*
X17039230Y-14205716D01*
X17039230Y-14205716D02*
X17029706Y-14224763D01*
X17029706Y-14224763D02*
X17020182Y-14234287D01*
X17020182Y-14234287D02*
X17001135Y-14243811D01*
X17001135Y-14243811D02*
X16972563Y-14243811D01*
X17096373Y-14110477D02*
X17172563Y-14110477D01*
X17124944Y-14043811D02*
X17124944Y-14215239D01*
X17124944Y-14215239D02*
X17134468Y-14234287D01*
X17134468Y-14234287D02*
X17153516Y-14243811D01*
X17153516Y-14243811D02*
X17172563Y-14243811D01*
X17229706Y-14234287D02*
X17248754Y-14243811D01*
X17248754Y-14243811D02*
X17286849Y-14243811D01*
X17286849Y-14243811D02*
X17305897Y-14234287D01*
X17305897Y-14234287D02*
X17315420Y-14215239D01*
X17315420Y-14215239D02*
X17315420Y-14205716D01*
X17315420Y-14205716D02*
X17305897Y-14186668D01*
X17305897Y-14186668D02*
X17286849Y-14177144D01*
X17286849Y-14177144D02*
X17258277Y-14177144D01*
X17258277Y-14177144D02*
X17239230Y-14167620D01*
X17239230Y-14167620D02*
X17229706Y-14148573D01*
X17229706Y-14148573D02*
X17229706Y-14139049D01*
X17229706Y-14139049D02*
X17239230Y-14120001D01*
X17239230Y-14120001D02*
X17258277Y-14110477D01*
X17258277Y-14110477D02*
X17286849Y-14110477D01*
X17286849Y-14110477D02*
X17305897Y-14120001D01*
X17382087Y-14320001D02*
X17391611Y-14310477D01*
X17391611Y-14310477D02*
X17410658Y-14281906D01*
X17410658Y-14281906D02*
X17420182Y-14262858D01*
X17420182Y-14262858D02*
X17429706Y-14234287D01*
X17429706Y-14234287D02*
X17439230Y-14186668D01*
X17439230Y-14186668D02*
X17439230Y-14148573D01*
X17439230Y-14148573D02*
X17429706Y-14100954D01*
X17429706Y-14100954D02*
X17420182Y-14072382D01*
X17420182Y-14072382D02*
X17410658Y-14053335D01*
X17410658Y-14053335D02*
X17391611Y-14024763D01*
X17391611Y-14024763D02*
X17382087Y-14015239D01*
D12*
X10757500Y-14376327D02*
X10757500Y-14456327D01*
X10717500Y-14416327D02*
X10797500Y-14416327D01*
D11*
X11096372Y-14307811D02*
X11115420Y-14307811D01*
X11115420Y-14307811D02*
X11134467Y-14317335D01*
X11134467Y-14317335D02*
X11143991Y-14326858D01*
X11143991Y-14326858D02*
X11153515Y-14345906D01*
X11153515Y-14345906D02*
X11163039Y-14384001D01*
X11163039Y-14384001D02*
X11163039Y-14431620D01*
X11163039Y-14431620D02*
X11153515Y-14469716D01*
X11153515Y-14469716D02*
X11143991Y-14488763D01*
X11143991Y-14488763D02*
X11134467Y-14498287D01*
X11134467Y-14498287D02*
X11115420Y-14507811D01*
X11115420Y-14507811D02*
X11096372Y-14507811D01*
X11096372Y-14507811D02*
X11077324Y-14498287D01*
X11077324Y-14498287D02*
X11067801Y-14488763D01*
X11067801Y-14488763D02*
X11058277Y-14469716D01*
X11058277Y-14469716D02*
X11048753Y-14431620D01*
X11048753Y-14431620D02*
X11048753Y-14384001D01*
X11048753Y-14384001D02*
X11058277Y-14345906D01*
X11058277Y-14345906D02*
X11067801Y-14326858D01*
X11067801Y-14326858D02*
X11077324Y-14317335D01*
X11077324Y-14317335D02*
X11096372Y-14307811D01*
X11248753Y-14488763D02*
X11258277Y-14498287D01*
X11258277Y-14498287D02*
X11248753Y-14507811D01*
X11248753Y-14507811D02*
X11239229Y-14498287D01*
X11239229Y-14498287D02*
X11248753Y-14488763D01*
X11248753Y-14488763D02*
X11248753Y-14507811D01*
X11372562Y-14393525D02*
X11353515Y-14384001D01*
X11353515Y-14384001D02*
X11343991Y-14374477D01*
X11343991Y-14374477D02*
X11334467Y-14355430D01*
X11334467Y-14355430D02*
X11334467Y-14345906D01*
X11334467Y-14345906D02*
X11343991Y-14326858D01*
X11343991Y-14326858D02*
X11353515Y-14317335D01*
X11353515Y-14317335D02*
X11372562Y-14307811D01*
X11372562Y-14307811D02*
X11410658Y-14307811D01*
X11410658Y-14307811D02*
X11429705Y-14317335D01*
X11429705Y-14317335D02*
X11439229Y-14326858D01*
X11439229Y-14326858D02*
X11448753Y-14345906D01*
X11448753Y-14345906D02*
X11448753Y-14355430D01*
X11448753Y-14355430D02*
X11439229Y-14374477D01*
X11439229Y-14374477D02*
X11429705Y-14384001D01*
X11429705Y-14384001D02*
X11410658Y-14393525D01*
X11410658Y-14393525D02*
X11372562Y-14393525D01*
X11372562Y-14393525D02*
X11353515Y-14403049D01*
X11353515Y-14403049D02*
X11343991Y-14412573D01*
X11343991Y-14412573D02*
X11334467Y-14431620D01*
X11334467Y-14431620D02*
X11334467Y-14469716D01*
X11334467Y-14469716D02*
X11343991Y-14488763D01*
X11343991Y-14488763D02*
X11353515Y-14498287D01*
X11353515Y-14498287D02*
X11372562Y-14507811D01*
X11372562Y-14507811D02*
X11410658Y-14507811D01*
X11410658Y-14507811D02*
X11429705Y-14498287D01*
X11429705Y-14498287D02*
X11439229Y-14488763D01*
X11439229Y-14488763D02*
X11448753Y-14469716D01*
X11448753Y-14469716D02*
X11448753Y-14431620D01*
X11448753Y-14431620D02*
X11439229Y-14412573D01*
X11439229Y-14412573D02*
X11429705Y-14403049D01*
X11429705Y-14403049D02*
X11410658Y-14393525D01*
X11572562Y-14307811D02*
X11591610Y-14307811D01*
X11591610Y-14307811D02*
X11610658Y-14317335D01*
X11610658Y-14317335D02*
X11620182Y-14326858D01*
X11620182Y-14326858D02*
X11629705Y-14345906D01*
X11629705Y-14345906D02*
X11639229Y-14384001D01*
X11639229Y-14384001D02*
X11639229Y-14431620D01*
X11639229Y-14431620D02*
X11629705Y-14469716D01*
X11629705Y-14469716D02*
X11620182Y-14488763D01*
X11620182Y-14488763D02*
X11610658Y-14498287D01*
X11610658Y-14498287D02*
X11591610Y-14507811D01*
X11591610Y-14507811D02*
X11572562Y-14507811D01*
X11572562Y-14507811D02*
X11553515Y-14498287D01*
X11553515Y-14498287D02*
X11543991Y-14488763D01*
X11543991Y-14488763D02*
X11534467Y-14469716D01*
X11534467Y-14469716D02*
X11524943Y-14431620D01*
X11524943Y-14431620D02*
X11524943Y-14384001D01*
X11524943Y-14384001D02*
X11534467Y-14345906D01*
X11534467Y-14345906D02*
X11543991Y-14326858D01*
X11543991Y-14326858D02*
X11553515Y-14317335D01*
X11553515Y-14317335D02*
X11572562Y-14307811D01*
X11763039Y-14307811D02*
X11782086Y-14307811D01*
X11782086Y-14307811D02*
X11801134Y-14317335D01*
X11801134Y-14317335D02*
X11810658Y-14326858D01*
X11810658Y-14326858D02*
X11820182Y-14345906D01*
X11820182Y-14345906D02*
X11829705Y-14384001D01*
X11829705Y-14384001D02*
X11829705Y-14431620D01*
X11829705Y-14431620D02*
X11820182Y-14469716D01*
X11820182Y-14469716D02*
X11810658Y-14488763D01*
X11810658Y-14488763D02*
X11801134Y-14498287D01*
X11801134Y-14498287D02*
X11782086Y-14507811D01*
X11782086Y-14507811D02*
X11763039Y-14507811D01*
X11763039Y-14507811D02*
X11743991Y-14498287D01*
X11743991Y-14498287D02*
X11734467Y-14488763D01*
X11734467Y-14488763D02*
X11724943Y-14469716D01*
X11724943Y-14469716D02*
X11715420Y-14431620D01*
X11715420Y-14431620D02*
X11715420Y-14384001D01*
X11715420Y-14384001D02*
X11724943Y-14345906D01*
X11724943Y-14345906D02*
X11734467Y-14326858D01*
X11734467Y-14326858D02*
X11743991Y-14317335D01*
X11743991Y-14317335D02*
X11763039Y-14307811D01*
X11915420Y-14507811D02*
X11915420Y-14374477D01*
X11915420Y-14393525D02*
X11924943Y-14384001D01*
X11924943Y-14384001D02*
X11943991Y-14374477D01*
X11943991Y-14374477D02*
X11972563Y-14374477D01*
X11972563Y-14374477D02*
X11991610Y-14384001D01*
X11991610Y-14384001D02*
X12001134Y-14403049D01*
X12001134Y-14403049D02*
X12001134Y-14507811D01*
X12001134Y-14403049D02*
X12010658Y-14384001D01*
X12010658Y-14384001D02*
X12029705Y-14374477D01*
X12029705Y-14374477D02*
X12058277Y-14374477D01*
X12058277Y-14374477D02*
X12077324Y-14384001D01*
X12077324Y-14384001D02*
X12086848Y-14403049D01*
X12086848Y-14403049D02*
X12086848Y-14507811D01*
X12182086Y-14507811D02*
X12182086Y-14374477D01*
X12182086Y-14393525D02*
X12191610Y-14384001D01*
X12191610Y-14384001D02*
X12210658Y-14374477D01*
X12210658Y-14374477D02*
X12239229Y-14374477D01*
X12239229Y-14374477D02*
X12258277Y-14384001D01*
X12258277Y-14384001D02*
X12267801Y-14403049D01*
X12267801Y-14403049D02*
X12267801Y-14507811D01*
X12267801Y-14403049D02*
X12277324Y-14384001D01*
X12277324Y-14384001D02*
X12296372Y-14374477D01*
X12296372Y-14374477D02*
X12324943Y-14374477D01*
X12324943Y-14374477D02*
X12343991Y-14384001D01*
X12343991Y-14384001D02*
X12353515Y-14403049D01*
X12353515Y-14403049D02*
X12353515Y-14507811D01*
X12743991Y-14298287D02*
X12572563Y-14555430D01*
X13001134Y-14307811D02*
X13020182Y-14307811D01*
X13020182Y-14307811D02*
X13039229Y-14317335D01*
X13039229Y-14317335D02*
X13048753Y-14326858D01*
X13048753Y-14326858D02*
X13058277Y-14345906D01*
X13058277Y-14345906D02*
X13067801Y-14384001D01*
X13067801Y-14384001D02*
X13067801Y-14431620D01*
X13067801Y-14431620D02*
X13058277Y-14469716D01*
X13058277Y-14469716D02*
X13048753Y-14488763D01*
X13048753Y-14488763D02*
X13039229Y-14498287D01*
X13039229Y-14498287D02*
X13020182Y-14507811D01*
X13020182Y-14507811D02*
X13001134Y-14507811D01*
X13001134Y-14507811D02*
X12982086Y-14498287D01*
X12982086Y-14498287D02*
X12972563Y-14488763D01*
X12972563Y-14488763D02*
X12963039Y-14469716D01*
X12963039Y-14469716D02*
X12953515Y-14431620D01*
X12953515Y-14431620D02*
X12953515Y-14384001D01*
X12953515Y-14384001D02*
X12963039Y-14345906D01*
X12963039Y-14345906D02*
X12972563Y-14326858D01*
X12972563Y-14326858D02*
X12982086Y-14317335D01*
X12982086Y-14317335D02*
X13001134Y-14307811D01*
X13153515Y-14488763D02*
X13163039Y-14498287D01*
X13163039Y-14498287D02*
X13153515Y-14507811D01*
X13153515Y-14507811D02*
X13143991Y-14498287D01*
X13143991Y-14498287D02*
X13153515Y-14488763D01*
X13153515Y-14488763D02*
X13153515Y-14507811D01*
X13286848Y-14307811D02*
X13305896Y-14307811D01*
X13305896Y-14307811D02*
X13324944Y-14317335D01*
X13324944Y-14317335D02*
X13334467Y-14326858D01*
X13334467Y-14326858D02*
X13343991Y-14345906D01*
X13343991Y-14345906D02*
X13353515Y-14384001D01*
X13353515Y-14384001D02*
X13353515Y-14431620D01*
X13353515Y-14431620D02*
X13343991Y-14469716D01*
X13343991Y-14469716D02*
X13334467Y-14488763D01*
X13334467Y-14488763D02*
X13324944Y-14498287D01*
X13324944Y-14498287D02*
X13305896Y-14507811D01*
X13305896Y-14507811D02*
X13286848Y-14507811D01*
X13286848Y-14507811D02*
X13267801Y-14498287D01*
X13267801Y-14498287D02*
X13258277Y-14488763D01*
X13258277Y-14488763D02*
X13248753Y-14469716D01*
X13248753Y-14469716D02*
X13239229Y-14431620D01*
X13239229Y-14431620D02*
X13239229Y-14384001D01*
X13239229Y-14384001D02*
X13248753Y-14345906D01*
X13248753Y-14345906D02*
X13258277Y-14326858D01*
X13258277Y-14326858D02*
X13267801Y-14317335D01*
X13267801Y-14317335D02*
X13286848Y-14307811D01*
X13420182Y-14307811D02*
X13543991Y-14307811D01*
X13543991Y-14307811D02*
X13477325Y-14384001D01*
X13477325Y-14384001D02*
X13505896Y-14384001D01*
X13505896Y-14384001D02*
X13524944Y-14393525D01*
X13524944Y-14393525D02*
X13534467Y-14403049D01*
X13534467Y-14403049D02*
X13543991Y-14422097D01*
X13543991Y-14422097D02*
X13543991Y-14469716D01*
X13543991Y-14469716D02*
X13534467Y-14488763D01*
X13534467Y-14488763D02*
X13524944Y-14498287D01*
X13524944Y-14498287D02*
X13505896Y-14507811D01*
X13505896Y-14507811D02*
X13448753Y-14507811D01*
X13448753Y-14507811D02*
X13429706Y-14498287D01*
X13429706Y-14498287D02*
X13420182Y-14488763D01*
X13734467Y-14507811D02*
X13620182Y-14507811D01*
X13677325Y-14507811D02*
X13677325Y-14307811D01*
X13677325Y-14307811D02*
X13658277Y-14336382D01*
X13658277Y-14336382D02*
X13639229Y-14355430D01*
X13639229Y-14355430D02*
X13620182Y-14364954D01*
X13915420Y-14307811D02*
X13820182Y-14307811D01*
X13820182Y-14307811D02*
X13810658Y-14403049D01*
X13810658Y-14403049D02*
X13820182Y-14393525D01*
X13820182Y-14393525D02*
X13839229Y-14384001D01*
X13839229Y-14384001D02*
X13886848Y-14384001D01*
X13886848Y-14384001D02*
X13905896Y-14393525D01*
X13905896Y-14393525D02*
X13915420Y-14403049D01*
X13915420Y-14403049D02*
X13924944Y-14422097D01*
X13924944Y-14422097D02*
X13924944Y-14469716D01*
X13924944Y-14469716D02*
X13915420Y-14488763D01*
X13915420Y-14488763D02*
X13905896Y-14498287D01*
X13905896Y-14498287D02*
X13886848Y-14507811D01*
X13886848Y-14507811D02*
X13839229Y-14507811D01*
X13839229Y-14507811D02*
X13820182Y-14498287D01*
X13820182Y-14498287D02*
X13810658Y-14488763D01*
X14001134Y-14307811D02*
X14001134Y-14345906D01*
X14077325Y-14307811D02*
X14077325Y-14345906D01*
X14372563Y-14584001D02*
X14363039Y-14574477D01*
X14363039Y-14574477D02*
X14343991Y-14545906D01*
X14343991Y-14545906D02*
X14334468Y-14526858D01*
X14334468Y-14526858D02*
X14324944Y-14498287D01*
X14324944Y-14498287D02*
X14315420Y-14450668D01*
X14315420Y-14450668D02*
X14315420Y-14412573D01*
X14315420Y-14412573D02*
X14324944Y-14364954D01*
X14324944Y-14364954D02*
X14334468Y-14336382D01*
X14334468Y-14336382D02*
X14343991Y-14317335D01*
X14343991Y-14317335D02*
X14363039Y-14288763D01*
X14363039Y-14288763D02*
X14372563Y-14279239D01*
X14429706Y-14307811D02*
X14553515Y-14307811D01*
X14553515Y-14307811D02*
X14486848Y-14384001D01*
X14486848Y-14384001D02*
X14515420Y-14384001D01*
X14515420Y-14384001D02*
X14534468Y-14393525D01*
X14534468Y-14393525D02*
X14543991Y-14403049D01*
X14543991Y-14403049D02*
X14553515Y-14422097D01*
X14553515Y-14422097D02*
X14553515Y-14469716D01*
X14553515Y-14469716D02*
X14543991Y-14488763D01*
X14543991Y-14488763D02*
X14534468Y-14498287D01*
X14534468Y-14498287D02*
X14515420Y-14507811D01*
X14515420Y-14507811D02*
X14458277Y-14507811D01*
X14458277Y-14507811D02*
X14439229Y-14498287D01*
X14439229Y-14498287D02*
X14429706Y-14488763D01*
X14677325Y-14307811D02*
X14696372Y-14307811D01*
X14696372Y-14307811D02*
X14715420Y-14317335D01*
X14715420Y-14317335D02*
X14724944Y-14326858D01*
X14724944Y-14326858D02*
X14734468Y-14345906D01*
X14734468Y-14345906D02*
X14743991Y-14384001D01*
X14743991Y-14384001D02*
X14743991Y-14431620D01*
X14743991Y-14431620D02*
X14734468Y-14469716D01*
X14734468Y-14469716D02*
X14724944Y-14488763D01*
X14724944Y-14488763D02*
X14715420Y-14498287D01*
X14715420Y-14498287D02*
X14696372Y-14507811D01*
X14696372Y-14507811D02*
X14677325Y-14507811D01*
X14677325Y-14507811D02*
X14658277Y-14498287D01*
X14658277Y-14498287D02*
X14648753Y-14488763D01*
X14648753Y-14488763D02*
X14639229Y-14469716D01*
X14639229Y-14469716D02*
X14629706Y-14431620D01*
X14629706Y-14431620D02*
X14629706Y-14384001D01*
X14629706Y-14384001D02*
X14639229Y-14345906D01*
X14639229Y-14345906D02*
X14648753Y-14326858D01*
X14648753Y-14326858D02*
X14658277Y-14317335D01*
X14658277Y-14317335D02*
X14677325Y-14307811D01*
X14982087Y-14507811D02*
X14982087Y-14307811D01*
X15067801Y-14507811D02*
X15067801Y-14403049D01*
X15067801Y-14403049D02*
X15058277Y-14384001D01*
X15058277Y-14384001D02*
X15039230Y-14374477D01*
X15039230Y-14374477D02*
X15010658Y-14374477D01*
X15010658Y-14374477D02*
X14991610Y-14384001D01*
X14991610Y-14384001D02*
X14982087Y-14393525D01*
X15191610Y-14507811D02*
X15172563Y-14498287D01*
X15172563Y-14498287D02*
X15163039Y-14488763D01*
X15163039Y-14488763D02*
X15153515Y-14469716D01*
X15153515Y-14469716D02*
X15153515Y-14412573D01*
X15153515Y-14412573D02*
X15163039Y-14393525D01*
X15163039Y-14393525D02*
X15172563Y-14384001D01*
X15172563Y-14384001D02*
X15191610Y-14374477D01*
X15191610Y-14374477D02*
X15220182Y-14374477D01*
X15220182Y-14374477D02*
X15239230Y-14384001D01*
X15239230Y-14384001D02*
X15248753Y-14393525D01*
X15248753Y-14393525D02*
X15258277Y-14412573D01*
X15258277Y-14412573D02*
X15258277Y-14469716D01*
X15258277Y-14469716D02*
X15248753Y-14488763D01*
X15248753Y-14488763D02*
X15239230Y-14498287D01*
X15239230Y-14498287D02*
X15220182Y-14507811D01*
X15220182Y-14507811D02*
X15191610Y-14507811D01*
X15372563Y-14507811D02*
X15353515Y-14498287D01*
X15353515Y-14498287D02*
X15343991Y-14479239D01*
X15343991Y-14479239D02*
X15343991Y-14307811D01*
X15524944Y-14498287D02*
X15505896Y-14507811D01*
X15505896Y-14507811D02*
X15467801Y-14507811D01*
X15467801Y-14507811D02*
X15448753Y-14498287D01*
X15448753Y-14498287D02*
X15439230Y-14479239D01*
X15439230Y-14479239D02*
X15439230Y-14403049D01*
X15439230Y-14403049D02*
X15448753Y-14384001D01*
X15448753Y-14384001D02*
X15467801Y-14374477D01*
X15467801Y-14374477D02*
X15505896Y-14374477D01*
X15505896Y-14374477D02*
X15524944Y-14384001D01*
X15524944Y-14384001D02*
X15534468Y-14403049D01*
X15534468Y-14403049D02*
X15534468Y-14422097D01*
X15534468Y-14422097D02*
X15439230Y-14441144D01*
X15610658Y-14498287D02*
X15629706Y-14507811D01*
X15629706Y-14507811D02*
X15667801Y-14507811D01*
X15667801Y-14507811D02*
X15686849Y-14498287D01*
X15686849Y-14498287D02*
X15696372Y-14479239D01*
X15696372Y-14479239D02*
X15696372Y-14469716D01*
X15696372Y-14469716D02*
X15686849Y-14450668D01*
X15686849Y-14450668D02*
X15667801Y-14441144D01*
X15667801Y-14441144D02*
X15639230Y-14441144D01*
X15639230Y-14441144D02*
X15620182Y-14431620D01*
X15620182Y-14431620D02*
X15610658Y-14412573D01*
X15610658Y-14412573D02*
X15610658Y-14403049D01*
X15610658Y-14403049D02*
X15620182Y-14384001D01*
X15620182Y-14384001D02*
X15639230Y-14374477D01*
X15639230Y-14374477D02*
X15667801Y-14374477D01*
X15667801Y-14374477D02*
X15686849Y-14384001D01*
X15763039Y-14584001D02*
X15772563Y-14574477D01*
X15772563Y-14574477D02*
X15791611Y-14545906D01*
X15791611Y-14545906D02*
X15801134Y-14526858D01*
X15801134Y-14526858D02*
X15810658Y-14498287D01*
X15810658Y-14498287D02*
X15820182Y-14450668D01*
X15820182Y-14450668D02*
X15820182Y-14412573D01*
X15820182Y-14412573D02*
X15810658Y-14364954D01*
X15810658Y-14364954D02*
X15801134Y-14336382D01*
X15801134Y-14336382D02*
X15791611Y-14317335D01*
X15791611Y-14317335D02*
X15772563Y-14288763D01*
X15772563Y-14288763D02*
X15763039Y-14279239D01*
D13*
X10781506Y-14718943D02*
X10781506Y-14641712D01*
X10704275Y-14641712D01*
X10704275Y-14718943D01*
X10781506Y-14718943D01*
D11*
X11163039Y-14771811D02*
X11048753Y-14771811D01*
X11105896Y-14771811D02*
X11105896Y-14571811D01*
X11105896Y-14571811D02*
X11086848Y-14600382D01*
X11086848Y-14600382D02*
X11067801Y-14619430D01*
X11067801Y-14619430D02*
X11048753Y-14628954D01*
X11248753Y-14752763D02*
X11258277Y-14762287D01*
X11258277Y-14762287D02*
X11248753Y-14771811D01*
X11248753Y-14771811D02*
X11239229Y-14762287D01*
X11239229Y-14762287D02*
X11248753Y-14752763D01*
X11248753Y-14752763D02*
X11248753Y-14771811D01*
X11382086Y-14571811D02*
X11401134Y-14571811D01*
X11401134Y-14571811D02*
X11420182Y-14581335D01*
X11420182Y-14581335D02*
X11429705Y-14590858D01*
X11429705Y-14590858D02*
X11439229Y-14609906D01*
X11439229Y-14609906D02*
X11448753Y-14648001D01*
X11448753Y-14648001D02*
X11448753Y-14695620D01*
X11448753Y-14695620D02*
X11439229Y-14733716D01*
X11439229Y-14733716D02*
X11429705Y-14752763D01*
X11429705Y-14752763D02*
X11420182Y-14762287D01*
X11420182Y-14762287D02*
X11401134Y-14771811D01*
X11401134Y-14771811D02*
X11382086Y-14771811D01*
X11382086Y-14771811D02*
X11363039Y-14762287D01*
X11363039Y-14762287D02*
X11353515Y-14752763D01*
X11353515Y-14752763D02*
X11343991Y-14733716D01*
X11343991Y-14733716D02*
X11334467Y-14695620D01*
X11334467Y-14695620D02*
X11334467Y-14648001D01*
X11334467Y-14648001D02*
X11343991Y-14609906D01*
X11343991Y-14609906D02*
X11353515Y-14590858D01*
X11353515Y-14590858D02*
X11363039Y-14581335D01*
X11363039Y-14581335D02*
X11382086Y-14571811D01*
X11543991Y-14771811D02*
X11582086Y-14771811D01*
X11582086Y-14771811D02*
X11601134Y-14762287D01*
X11601134Y-14762287D02*
X11610658Y-14752763D01*
X11610658Y-14752763D02*
X11629705Y-14724192D01*
X11629705Y-14724192D02*
X11639229Y-14686097D01*
X11639229Y-14686097D02*
X11639229Y-14609906D01*
X11639229Y-14609906D02*
X11629705Y-14590858D01*
X11629705Y-14590858D02*
X11620182Y-14581335D01*
X11620182Y-14581335D02*
X11601134Y-14571811D01*
X11601134Y-14571811D02*
X11563039Y-14571811D01*
X11563039Y-14571811D02*
X11543991Y-14581335D01*
X11543991Y-14581335D02*
X11534467Y-14590858D01*
X11534467Y-14590858D02*
X11524943Y-14609906D01*
X11524943Y-14609906D02*
X11524943Y-14657525D01*
X11524943Y-14657525D02*
X11534467Y-14676573D01*
X11534467Y-14676573D02*
X11543991Y-14686097D01*
X11543991Y-14686097D02*
X11563039Y-14695620D01*
X11563039Y-14695620D02*
X11601134Y-14695620D01*
X11601134Y-14695620D02*
X11620182Y-14686097D01*
X11620182Y-14686097D02*
X11629705Y-14676573D01*
X11629705Y-14676573D02*
X11639229Y-14657525D01*
X11715420Y-14590858D02*
X11724943Y-14581335D01*
X11724943Y-14581335D02*
X11743991Y-14571811D01*
X11743991Y-14571811D02*
X11791610Y-14571811D01*
X11791610Y-14571811D02*
X11810658Y-14581335D01*
X11810658Y-14581335D02*
X11820182Y-14590858D01*
X11820182Y-14590858D02*
X11829705Y-14609906D01*
X11829705Y-14609906D02*
X11829705Y-14628954D01*
X11829705Y-14628954D02*
X11820182Y-14657525D01*
X11820182Y-14657525D02*
X11705896Y-14771811D01*
X11705896Y-14771811D02*
X11829705Y-14771811D01*
X11915420Y-14771811D02*
X11915420Y-14638477D01*
X11915420Y-14657525D02*
X11924943Y-14648001D01*
X11924943Y-14648001D02*
X11943991Y-14638477D01*
X11943991Y-14638477D02*
X11972563Y-14638477D01*
X11972563Y-14638477D02*
X11991610Y-14648001D01*
X11991610Y-14648001D02*
X12001134Y-14667049D01*
X12001134Y-14667049D02*
X12001134Y-14771811D01*
X12001134Y-14667049D02*
X12010658Y-14648001D01*
X12010658Y-14648001D02*
X12029705Y-14638477D01*
X12029705Y-14638477D02*
X12058277Y-14638477D01*
X12058277Y-14638477D02*
X12077324Y-14648001D01*
X12077324Y-14648001D02*
X12086848Y-14667049D01*
X12086848Y-14667049D02*
X12086848Y-14771811D01*
X12182086Y-14771811D02*
X12182086Y-14638477D01*
X12182086Y-14657525D02*
X12191610Y-14648001D01*
X12191610Y-14648001D02*
X12210658Y-14638477D01*
X12210658Y-14638477D02*
X12239229Y-14638477D01*
X12239229Y-14638477D02*
X12258277Y-14648001D01*
X12258277Y-14648001D02*
X12267801Y-14667049D01*
X12267801Y-14667049D02*
X12267801Y-14771811D01*
X12267801Y-14667049D02*
X12277324Y-14648001D01*
X12277324Y-14648001D02*
X12296372Y-14638477D01*
X12296372Y-14638477D02*
X12324943Y-14638477D01*
X12324943Y-14638477D02*
X12343991Y-14648001D01*
X12343991Y-14648001D02*
X12353515Y-14667049D01*
X12353515Y-14667049D02*
X12353515Y-14771811D01*
X12743991Y-14562287D02*
X12572563Y-14819430D01*
X13001134Y-14571811D02*
X13020182Y-14571811D01*
X13020182Y-14571811D02*
X13039229Y-14581335D01*
X13039229Y-14581335D02*
X13048753Y-14590858D01*
X13048753Y-14590858D02*
X13058277Y-14609906D01*
X13058277Y-14609906D02*
X13067801Y-14648001D01*
X13067801Y-14648001D02*
X13067801Y-14695620D01*
X13067801Y-14695620D02*
X13058277Y-14733716D01*
X13058277Y-14733716D02*
X13048753Y-14752763D01*
X13048753Y-14752763D02*
X13039229Y-14762287D01*
X13039229Y-14762287D02*
X13020182Y-14771811D01*
X13020182Y-14771811D02*
X13001134Y-14771811D01*
X13001134Y-14771811D02*
X12982086Y-14762287D01*
X12982086Y-14762287D02*
X12972563Y-14752763D01*
X12972563Y-14752763D02*
X12963039Y-14733716D01*
X12963039Y-14733716D02*
X12953515Y-14695620D01*
X12953515Y-14695620D02*
X12953515Y-14648001D01*
X12953515Y-14648001D02*
X12963039Y-14609906D01*
X12963039Y-14609906D02*
X12972563Y-14590858D01*
X12972563Y-14590858D02*
X12982086Y-14581335D01*
X12982086Y-14581335D02*
X13001134Y-14571811D01*
X13153515Y-14752763D02*
X13163039Y-14762287D01*
X13163039Y-14762287D02*
X13153515Y-14771811D01*
X13153515Y-14771811D02*
X13143991Y-14762287D01*
X13143991Y-14762287D02*
X13153515Y-14752763D01*
X13153515Y-14752763D02*
X13153515Y-14771811D01*
X13286848Y-14571811D02*
X13305896Y-14571811D01*
X13305896Y-14571811D02*
X13324944Y-14581335D01*
X13324944Y-14581335D02*
X13334467Y-14590858D01*
X13334467Y-14590858D02*
X13343991Y-14609906D01*
X13343991Y-14609906D02*
X13353515Y-14648001D01*
X13353515Y-14648001D02*
X13353515Y-14695620D01*
X13353515Y-14695620D02*
X13343991Y-14733716D01*
X13343991Y-14733716D02*
X13334467Y-14752763D01*
X13334467Y-14752763D02*
X13324944Y-14762287D01*
X13324944Y-14762287D02*
X13305896Y-14771811D01*
X13305896Y-14771811D02*
X13286848Y-14771811D01*
X13286848Y-14771811D02*
X13267801Y-14762287D01*
X13267801Y-14762287D02*
X13258277Y-14752763D01*
X13258277Y-14752763D02*
X13248753Y-14733716D01*
X13248753Y-14733716D02*
X13239229Y-14695620D01*
X13239229Y-14695620D02*
X13239229Y-14648001D01*
X13239229Y-14648001D02*
X13248753Y-14609906D01*
X13248753Y-14609906D02*
X13258277Y-14590858D01*
X13258277Y-14590858D02*
X13267801Y-14581335D01*
X13267801Y-14581335D02*
X13286848Y-14571811D01*
X13524944Y-14638477D02*
X13524944Y-14771811D01*
X13477325Y-14562287D02*
X13429706Y-14705144D01*
X13429706Y-14705144D02*
X13553515Y-14705144D01*
X13610658Y-14571811D02*
X13734467Y-14571811D01*
X13734467Y-14571811D02*
X13667801Y-14648001D01*
X13667801Y-14648001D02*
X13696372Y-14648001D01*
X13696372Y-14648001D02*
X13715420Y-14657525D01*
X13715420Y-14657525D02*
X13724944Y-14667049D01*
X13724944Y-14667049D02*
X13734467Y-14686097D01*
X13734467Y-14686097D02*
X13734467Y-14733716D01*
X13734467Y-14733716D02*
X13724944Y-14752763D01*
X13724944Y-14752763D02*
X13715420Y-14762287D01*
X13715420Y-14762287D02*
X13696372Y-14771811D01*
X13696372Y-14771811D02*
X13639229Y-14771811D01*
X13639229Y-14771811D02*
X13620182Y-14762287D01*
X13620182Y-14762287D02*
X13610658Y-14752763D01*
X13858277Y-14571811D02*
X13877325Y-14571811D01*
X13877325Y-14571811D02*
X13896372Y-14581335D01*
X13896372Y-14581335D02*
X13905896Y-14590858D01*
X13905896Y-14590858D02*
X13915420Y-14609906D01*
X13915420Y-14609906D02*
X13924944Y-14648001D01*
X13924944Y-14648001D02*
X13924944Y-14695620D01*
X13924944Y-14695620D02*
X13915420Y-14733716D01*
X13915420Y-14733716D02*
X13905896Y-14752763D01*
X13905896Y-14752763D02*
X13896372Y-14762287D01*
X13896372Y-14762287D02*
X13877325Y-14771811D01*
X13877325Y-14771811D02*
X13858277Y-14771811D01*
X13858277Y-14771811D02*
X13839229Y-14762287D01*
X13839229Y-14762287D02*
X13829706Y-14752763D01*
X13829706Y-14752763D02*
X13820182Y-14733716D01*
X13820182Y-14733716D02*
X13810658Y-14695620D01*
X13810658Y-14695620D02*
X13810658Y-14648001D01*
X13810658Y-14648001D02*
X13820182Y-14609906D01*
X13820182Y-14609906D02*
X13829706Y-14590858D01*
X13829706Y-14590858D02*
X13839229Y-14581335D01*
X13839229Y-14581335D02*
X13858277Y-14571811D01*
X14001134Y-14571811D02*
X14001134Y-14609906D01*
X14077325Y-14571811D02*
X14077325Y-14609906D01*
X14372563Y-14848001D02*
X14363039Y-14838477D01*
X14363039Y-14838477D02*
X14343991Y-14809906D01*
X14343991Y-14809906D02*
X14334468Y-14790858D01*
X14334468Y-14790858D02*
X14324944Y-14762287D01*
X14324944Y-14762287D02*
X14315420Y-14714668D01*
X14315420Y-14714668D02*
X14315420Y-14676573D01*
X14315420Y-14676573D02*
X14324944Y-14628954D01*
X14324944Y-14628954D02*
X14334468Y-14600382D01*
X14334468Y-14600382D02*
X14343991Y-14581335D01*
X14343991Y-14581335D02*
X14363039Y-14552763D01*
X14363039Y-14552763D02*
X14372563Y-14543239D01*
X14439229Y-14590858D02*
X14448753Y-14581335D01*
X14448753Y-14581335D02*
X14467801Y-14571811D01*
X14467801Y-14571811D02*
X14515420Y-14571811D01*
X14515420Y-14571811D02*
X14534468Y-14581335D01*
X14534468Y-14581335D02*
X14543991Y-14590858D01*
X14543991Y-14590858D02*
X14553515Y-14609906D01*
X14553515Y-14609906D02*
X14553515Y-14628954D01*
X14553515Y-14628954D02*
X14543991Y-14657525D01*
X14543991Y-14657525D02*
X14429706Y-14771811D01*
X14429706Y-14771811D02*
X14553515Y-14771811D01*
X14724944Y-14638477D02*
X14724944Y-14771811D01*
X14677325Y-14562287D02*
X14629706Y-14705144D01*
X14629706Y-14705144D02*
X14753515Y-14705144D01*
X14982087Y-14771811D02*
X14982087Y-14571811D01*
X15067801Y-14771811D02*
X15067801Y-14667049D01*
X15067801Y-14667049D02*
X15058277Y-14648001D01*
X15058277Y-14648001D02*
X15039230Y-14638477D01*
X15039230Y-14638477D02*
X15010658Y-14638477D01*
X15010658Y-14638477D02*
X14991610Y-14648001D01*
X14991610Y-14648001D02*
X14982087Y-14657525D01*
X15191610Y-14771811D02*
X15172563Y-14762287D01*
X15172563Y-14762287D02*
X15163039Y-14752763D01*
X15163039Y-14752763D02*
X15153515Y-14733716D01*
X15153515Y-14733716D02*
X15153515Y-14676573D01*
X15153515Y-14676573D02*
X15163039Y-14657525D01*
X15163039Y-14657525D02*
X15172563Y-14648001D01*
X15172563Y-14648001D02*
X15191610Y-14638477D01*
X15191610Y-14638477D02*
X15220182Y-14638477D01*
X15220182Y-14638477D02*
X15239230Y-14648001D01*
X15239230Y-14648001D02*
X15248753Y-14657525D01*
X15248753Y-14657525D02*
X15258277Y-14676573D01*
X15258277Y-14676573D02*
X15258277Y-14733716D01*
X15258277Y-14733716D02*
X15248753Y-14752763D01*
X15248753Y-14752763D02*
X15239230Y-14762287D01*
X15239230Y-14762287D02*
X15220182Y-14771811D01*
X15220182Y-14771811D02*
X15191610Y-14771811D01*
X15372563Y-14771811D02*
X15353515Y-14762287D01*
X15353515Y-14762287D02*
X15343991Y-14743239D01*
X15343991Y-14743239D02*
X15343991Y-14571811D01*
X15524944Y-14762287D02*
X15505896Y-14771811D01*
X15505896Y-14771811D02*
X15467801Y-14771811D01*
X15467801Y-14771811D02*
X15448753Y-14762287D01*
X15448753Y-14762287D02*
X15439230Y-14743239D01*
X15439230Y-14743239D02*
X15439230Y-14667049D01*
X15439230Y-14667049D02*
X15448753Y-14648001D01*
X15448753Y-14648001D02*
X15467801Y-14638477D01*
X15467801Y-14638477D02*
X15505896Y-14638477D01*
X15505896Y-14638477D02*
X15524944Y-14648001D01*
X15524944Y-14648001D02*
X15534468Y-14667049D01*
X15534468Y-14667049D02*
X15534468Y-14686097D01*
X15534468Y-14686097D02*
X15439230Y-14705144D01*
X15610658Y-14762287D02*
X15629706Y-14771811D01*
X15629706Y-14771811D02*
X15667801Y-14771811D01*
X15667801Y-14771811D02*
X15686849Y-14762287D01*
X15686849Y-14762287D02*
X15696372Y-14743239D01*
X15696372Y-14743239D02*
X15696372Y-14733716D01*
X15696372Y-14733716D02*
X15686849Y-14714668D01*
X15686849Y-14714668D02*
X15667801Y-14705144D01*
X15667801Y-14705144D02*
X15639230Y-14705144D01*
X15639230Y-14705144D02*
X15620182Y-14695620D01*
X15620182Y-14695620D02*
X15610658Y-14676573D01*
X15610658Y-14676573D02*
X15610658Y-14667049D01*
X15610658Y-14667049D02*
X15620182Y-14648001D01*
X15620182Y-14648001D02*
X15639230Y-14638477D01*
X15639230Y-14638477D02*
X15667801Y-14638477D01*
X15667801Y-14638477D02*
X15686849Y-14648001D01*
X15763039Y-14848001D02*
X15772563Y-14838477D01*
X15772563Y-14838477D02*
X15791611Y-14809906D01*
X15791611Y-14809906D02*
X15801134Y-14790858D01*
X15801134Y-14790858D02*
X15810658Y-14762287D01*
X15810658Y-14762287D02*
X15820182Y-14714668D01*
X15820182Y-14714668D02*
X15820182Y-14676573D01*
X15820182Y-14676573D02*
X15810658Y-14628954D01*
X15810658Y-14628954D02*
X15801134Y-14600382D01*
X15801134Y-14600382D02*
X15791611Y-14581335D01*
X15791611Y-14581335D02*
X15772563Y-14552763D01*
X15772563Y-14552763D02*
X15763039Y-14543239D01*
D14*
X10737500Y-15004327D02*
X10797500Y-14944327D01*
X10737500Y-14884327D01*
X10677500Y-14944327D01*
X10737500Y-15004327D01*
D11*
X11163039Y-15035811D02*
X11048753Y-15035811D01*
X11105896Y-15035811D02*
X11105896Y-14835811D01*
X11105896Y-14835811D02*
X11086848Y-14864382D01*
X11086848Y-14864382D02*
X11067801Y-14883430D01*
X11067801Y-14883430D02*
X11048753Y-14892954D01*
X11248753Y-15016763D02*
X11258277Y-15026287D01*
X11258277Y-15026287D02*
X11248753Y-15035811D01*
X11248753Y-15035811D02*
X11239229Y-15026287D01*
X11239229Y-15026287D02*
X11248753Y-15016763D01*
X11248753Y-15016763D02*
X11248753Y-15035811D01*
X11334467Y-14854858D02*
X11343991Y-14845335D01*
X11343991Y-14845335D02*
X11363039Y-14835811D01*
X11363039Y-14835811D02*
X11410658Y-14835811D01*
X11410658Y-14835811D02*
X11429705Y-14845335D01*
X11429705Y-14845335D02*
X11439229Y-14854858D01*
X11439229Y-14854858D02*
X11448753Y-14873906D01*
X11448753Y-14873906D02*
X11448753Y-14892954D01*
X11448753Y-14892954D02*
X11439229Y-14921525D01*
X11439229Y-14921525D02*
X11324943Y-15035811D01*
X11324943Y-15035811D02*
X11448753Y-15035811D01*
X11572562Y-14835811D02*
X11591610Y-14835811D01*
X11591610Y-14835811D02*
X11610658Y-14845335D01*
X11610658Y-14845335D02*
X11620182Y-14854858D01*
X11620182Y-14854858D02*
X11629705Y-14873906D01*
X11629705Y-14873906D02*
X11639229Y-14912001D01*
X11639229Y-14912001D02*
X11639229Y-14959620D01*
X11639229Y-14959620D02*
X11629705Y-14997716D01*
X11629705Y-14997716D02*
X11620182Y-15016763D01*
X11620182Y-15016763D02*
X11610658Y-15026287D01*
X11610658Y-15026287D02*
X11591610Y-15035811D01*
X11591610Y-15035811D02*
X11572562Y-15035811D01*
X11572562Y-15035811D02*
X11553515Y-15026287D01*
X11553515Y-15026287D02*
X11543991Y-15016763D01*
X11543991Y-15016763D02*
X11534467Y-14997716D01*
X11534467Y-14997716D02*
X11524943Y-14959620D01*
X11524943Y-14959620D02*
X11524943Y-14912001D01*
X11524943Y-14912001D02*
X11534467Y-14873906D01*
X11534467Y-14873906D02*
X11543991Y-14854858D01*
X11543991Y-14854858D02*
X11553515Y-14845335D01*
X11553515Y-14845335D02*
X11572562Y-14835811D01*
X11763039Y-14835811D02*
X11782086Y-14835811D01*
X11782086Y-14835811D02*
X11801134Y-14845335D01*
X11801134Y-14845335D02*
X11810658Y-14854858D01*
X11810658Y-14854858D02*
X11820182Y-14873906D01*
X11820182Y-14873906D02*
X11829705Y-14912001D01*
X11829705Y-14912001D02*
X11829705Y-14959620D01*
X11829705Y-14959620D02*
X11820182Y-14997716D01*
X11820182Y-14997716D02*
X11810658Y-15016763D01*
X11810658Y-15016763D02*
X11801134Y-15026287D01*
X11801134Y-15026287D02*
X11782086Y-15035811D01*
X11782086Y-15035811D02*
X11763039Y-15035811D01*
X11763039Y-15035811D02*
X11743991Y-15026287D01*
X11743991Y-15026287D02*
X11734467Y-15016763D01*
X11734467Y-15016763D02*
X11724943Y-14997716D01*
X11724943Y-14997716D02*
X11715420Y-14959620D01*
X11715420Y-14959620D02*
X11715420Y-14912001D01*
X11715420Y-14912001D02*
X11724943Y-14873906D01*
X11724943Y-14873906D02*
X11734467Y-14854858D01*
X11734467Y-14854858D02*
X11743991Y-14845335D01*
X11743991Y-14845335D02*
X11763039Y-14835811D01*
X11915420Y-15035811D02*
X11915420Y-14902477D01*
X11915420Y-14921525D02*
X11924943Y-14912001D01*
X11924943Y-14912001D02*
X11943991Y-14902477D01*
X11943991Y-14902477D02*
X11972563Y-14902477D01*
X11972563Y-14902477D02*
X11991610Y-14912001D01*
X11991610Y-14912001D02*
X12001134Y-14931049D01*
X12001134Y-14931049D02*
X12001134Y-15035811D01*
X12001134Y-14931049D02*
X12010658Y-14912001D01*
X12010658Y-14912001D02*
X12029705Y-14902477D01*
X12029705Y-14902477D02*
X12058277Y-14902477D01*
X12058277Y-14902477D02*
X12077324Y-14912001D01*
X12077324Y-14912001D02*
X12086848Y-14931049D01*
X12086848Y-14931049D02*
X12086848Y-15035811D01*
X12182086Y-15035811D02*
X12182086Y-14902477D01*
X12182086Y-14921525D02*
X12191610Y-14912001D01*
X12191610Y-14912001D02*
X12210658Y-14902477D01*
X12210658Y-14902477D02*
X12239229Y-14902477D01*
X12239229Y-14902477D02*
X12258277Y-14912001D01*
X12258277Y-14912001D02*
X12267801Y-14931049D01*
X12267801Y-14931049D02*
X12267801Y-15035811D01*
X12267801Y-14931049D02*
X12277324Y-14912001D01*
X12277324Y-14912001D02*
X12296372Y-14902477D01*
X12296372Y-14902477D02*
X12324943Y-14902477D01*
X12324943Y-14902477D02*
X12343991Y-14912001D01*
X12343991Y-14912001D02*
X12353515Y-14931049D01*
X12353515Y-14931049D02*
X12353515Y-15035811D01*
X12743991Y-14826287D02*
X12572563Y-15083430D01*
X13001134Y-14835811D02*
X13020182Y-14835811D01*
X13020182Y-14835811D02*
X13039229Y-14845335D01*
X13039229Y-14845335D02*
X13048753Y-14854858D01*
X13048753Y-14854858D02*
X13058277Y-14873906D01*
X13058277Y-14873906D02*
X13067801Y-14912001D01*
X13067801Y-14912001D02*
X13067801Y-14959620D01*
X13067801Y-14959620D02*
X13058277Y-14997716D01*
X13058277Y-14997716D02*
X13048753Y-15016763D01*
X13048753Y-15016763D02*
X13039229Y-15026287D01*
X13039229Y-15026287D02*
X13020182Y-15035811D01*
X13020182Y-15035811D02*
X13001134Y-15035811D01*
X13001134Y-15035811D02*
X12982086Y-15026287D01*
X12982086Y-15026287D02*
X12972563Y-15016763D01*
X12972563Y-15016763D02*
X12963039Y-14997716D01*
X12963039Y-14997716D02*
X12953515Y-14959620D01*
X12953515Y-14959620D02*
X12953515Y-14912001D01*
X12953515Y-14912001D02*
X12963039Y-14873906D01*
X12963039Y-14873906D02*
X12972563Y-14854858D01*
X12972563Y-14854858D02*
X12982086Y-14845335D01*
X12982086Y-14845335D02*
X13001134Y-14835811D01*
X13153515Y-15016763D02*
X13163039Y-15026287D01*
X13163039Y-15026287D02*
X13153515Y-15035811D01*
X13153515Y-15035811D02*
X13143991Y-15026287D01*
X13143991Y-15026287D02*
X13153515Y-15016763D01*
X13153515Y-15016763D02*
X13153515Y-15035811D01*
X13286848Y-14835811D02*
X13305896Y-14835811D01*
X13305896Y-14835811D02*
X13324944Y-14845335D01*
X13324944Y-14845335D02*
X13334467Y-14854858D01*
X13334467Y-14854858D02*
X13343991Y-14873906D01*
X13343991Y-14873906D02*
X13353515Y-14912001D01*
X13353515Y-14912001D02*
X13353515Y-14959620D01*
X13353515Y-14959620D02*
X13343991Y-14997716D01*
X13343991Y-14997716D02*
X13334467Y-15016763D01*
X13334467Y-15016763D02*
X13324944Y-15026287D01*
X13324944Y-15026287D02*
X13305896Y-15035811D01*
X13305896Y-15035811D02*
X13286848Y-15035811D01*
X13286848Y-15035811D02*
X13267801Y-15026287D01*
X13267801Y-15026287D02*
X13258277Y-15016763D01*
X13258277Y-15016763D02*
X13248753Y-14997716D01*
X13248753Y-14997716D02*
X13239229Y-14959620D01*
X13239229Y-14959620D02*
X13239229Y-14912001D01*
X13239229Y-14912001D02*
X13248753Y-14873906D01*
X13248753Y-14873906D02*
X13258277Y-14854858D01*
X13258277Y-14854858D02*
X13267801Y-14845335D01*
X13267801Y-14845335D02*
X13286848Y-14835811D01*
X13524944Y-14902477D02*
X13524944Y-15035811D01*
X13477325Y-14826287D02*
X13429706Y-14969144D01*
X13429706Y-14969144D02*
X13553515Y-14969144D01*
X13610658Y-14835811D02*
X13743991Y-14835811D01*
X13743991Y-14835811D02*
X13658277Y-15035811D01*
X13810658Y-14854858D02*
X13820182Y-14845335D01*
X13820182Y-14845335D02*
X13839229Y-14835811D01*
X13839229Y-14835811D02*
X13886848Y-14835811D01*
X13886848Y-14835811D02*
X13905896Y-14845335D01*
X13905896Y-14845335D02*
X13915420Y-14854858D01*
X13915420Y-14854858D02*
X13924944Y-14873906D01*
X13924944Y-14873906D02*
X13924944Y-14892954D01*
X13924944Y-14892954D02*
X13915420Y-14921525D01*
X13915420Y-14921525D02*
X13801134Y-15035811D01*
X13801134Y-15035811D02*
X13924944Y-15035811D01*
X14001134Y-14835811D02*
X14001134Y-14873906D01*
X14077325Y-14835811D02*
X14077325Y-14873906D01*
X14372563Y-15112001D02*
X14363039Y-15102477D01*
X14363039Y-15102477D02*
X14343991Y-15073906D01*
X14343991Y-15073906D02*
X14334468Y-15054858D01*
X14334468Y-15054858D02*
X14324944Y-15026287D01*
X14324944Y-15026287D02*
X14315420Y-14978668D01*
X14315420Y-14978668D02*
X14315420Y-14940573D01*
X14315420Y-14940573D02*
X14324944Y-14892954D01*
X14324944Y-14892954D02*
X14334468Y-14864382D01*
X14334468Y-14864382D02*
X14343991Y-14845335D01*
X14343991Y-14845335D02*
X14363039Y-14816763D01*
X14363039Y-14816763D02*
X14372563Y-14807239D01*
X14534468Y-14902477D02*
X14534468Y-15035811D01*
X14486848Y-14826287D02*
X14439229Y-14969144D01*
X14439229Y-14969144D02*
X14563039Y-14969144D01*
X14734468Y-14835811D02*
X14639229Y-14835811D01*
X14639229Y-14835811D02*
X14629706Y-14931049D01*
X14629706Y-14931049D02*
X14639229Y-14921525D01*
X14639229Y-14921525D02*
X14658277Y-14912001D01*
X14658277Y-14912001D02*
X14705896Y-14912001D01*
X14705896Y-14912001D02*
X14724944Y-14921525D01*
X14724944Y-14921525D02*
X14734468Y-14931049D01*
X14734468Y-14931049D02*
X14743991Y-14950097D01*
X14743991Y-14950097D02*
X14743991Y-14997716D01*
X14743991Y-14997716D02*
X14734468Y-15016763D01*
X14734468Y-15016763D02*
X14724944Y-15026287D01*
X14724944Y-15026287D02*
X14705896Y-15035811D01*
X14705896Y-15035811D02*
X14658277Y-15035811D01*
X14658277Y-15035811D02*
X14639229Y-15026287D01*
X14639229Y-15026287D02*
X14629706Y-15016763D01*
X14982087Y-15035811D02*
X14982087Y-14835811D01*
X15067801Y-15035811D02*
X15067801Y-14931049D01*
X15067801Y-14931049D02*
X15058277Y-14912001D01*
X15058277Y-14912001D02*
X15039230Y-14902477D01*
X15039230Y-14902477D02*
X15010658Y-14902477D01*
X15010658Y-14902477D02*
X14991610Y-14912001D01*
X14991610Y-14912001D02*
X14982087Y-14921525D01*
X15191610Y-15035811D02*
X15172563Y-15026287D01*
X15172563Y-15026287D02*
X15163039Y-15016763D01*
X15163039Y-15016763D02*
X15153515Y-14997716D01*
X15153515Y-14997716D02*
X15153515Y-14940573D01*
X15153515Y-14940573D02*
X15163039Y-14921525D01*
X15163039Y-14921525D02*
X15172563Y-14912001D01*
X15172563Y-14912001D02*
X15191610Y-14902477D01*
X15191610Y-14902477D02*
X15220182Y-14902477D01*
X15220182Y-14902477D02*
X15239230Y-14912001D01*
X15239230Y-14912001D02*
X15248753Y-14921525D01*
X15248753Y-14921525D02*
X15258277Y-14940573D01*
X15258277Y-14940573D02*
X15258277Y-14997716D01*
X15258277Y-14997716D02*
X15248753Y-15016763D01*
X15248753Y-15016763D02*
X15239230Y-15026287D01*
X15239230Y-15026287D02*
X15220182Y-15035811D01*
X15220182Y-15035811D02*
X15191610Y-15035811D01*
X15372563Y-15035811D02*
X15353515Y-15026287D01*
X15353515Y-15026287D02*
X15343991Y-15007239D01*
X15343991Y-15007239D02*
X15343991Y-14835811D01*
X15524944Y-15026287D02*
X15505896Y-15035811D01*
X15505896Y-15035811D02*
X15467801Y-15035811D01*
X15467801Y-15035811D02*
X15448753Y-15026287D01*
X15448753Y-15026287D02*
X15439230Y-15007239D01*
X15439230Y-15007239D02*
X15439230Y-14931049D01*
X15439230Y-14931049D02*
X15448753Y-14912001D01*
X15448753Y-14912001D02*
X15467801Y-14902477D01*
X15467801Y-14902477D02*
X15505896Y-14902477D01*
X15505896Y-14902477D02*
X15524944Y-14912001D01*
X15524944Y-14912001D02*
X15534468Y-14931049D01*
X15534468Y-14931049D02*
X15534468Y-14950097D01*
X15534468Y-14950097D02*
X15439230Y-14969144D01*
X15610658Y-15026287D02*
X15629706Y-15035811D01*
X15629706Y-15035811D02*
X15667801Y-15035811D01*
X15667801Y-15035811D02*
X15686849Y-15026287D01*
X15686849Y-15026287D02*
X15696372Y-15007239D01*
X15696372Y-15007239D02*
X15696372Y-14997716D01*
X15696372Y-14997716D02*
X15686849Y-14978668D01*
X15686849Y-14978668D02*
X15667801Y-14969144D01*
X15667801Y-14969144D02*
X15639230Y-14969144D01*
X15639230Y-14969144D02*
X15620182Y-14959620D01*
X15620182Y-14959620D02*
X15610658Y-14940573D01*
X15610658Y-14940573D02*
X15610658Y-14931049D01*
X15610658Y-14931049D02*
X15620182Y-14912001D01*
X15620182Y-14912001D02*
X15639230Y-14902477D01*
X15639230Y-14902477D02*
X15667801Y-14902477D01*
X15667801Y-14902477D02*
X15686849Y-14912001D01*
X15763039Y-15112001D02*
X15772563Y-15102477D01*
X15772563Y-15102477D02*
X15791611Y-15073906D01*
X15791611Y-15073906D02*
X15801134Y-15054858D01*
X15801134Y-15054858D02*
X15810658Y-15026287D01*
X15810658Y-15026287D02*
X15820182Y-14978668D01*
X15820182Y-14978668D02*
X15820182Y-14940573D01*
X15820182Y-14940573D02*
X15810658Y-14892954D01*
X15810658Y-14892954D02*
X15801134Y-14864382D01*
X15801134Y-14864382D02*
X15791611Y-14845335D01*
X15791611Y-14845335D02*
X15772563Y-14816763D01*
X15772563Y-14816763D02*
X15763039Y-14807239D01*
D15*
X10637500Y-15128327D02*
X10797500Y-15288327D01*
X10797500Y-15128327D02*
X10637500Y-15288327D01*
X10797500Y-15208327D02*
G75*
G02*
X10637500Y-15208327I-80000J0D01*
G01*
X10637500Y-15208327D02*
G75*
G02*
X10797500Y-15208327I80000J0D01*
G01*
D11*
X11163039Y-15299811D02*
X11048753Y-15299811D01*
X11105896Y-15299811D02*
X11105896Y-15099811D01*
X11105896Y-15099811D02*
X11086848Y-15128382D01*
X11086848Y-15128382D02*
X11067801Y-15147430D01*
X11067801Y-15147430D02*
X11048753Y-15156954D01*
X11248753Y-15280763D02*
X11258277Y-15290287D01*
X11258277Y-15290287D02*
X11248753Y-15299811D01*
X11248753Y-15299811D02*
X11239229Y-15290287D01*
X11239229Y-15290287D02*
X11248753Y-15280763D01*
X11248753Y-15280763D02*
X11248753Y-15299811D01*
X11429705Y-15099811D02*
X11391610Y-15099811D01*
X11391610Y-15099811D02*
X11372562Y-15109335D01*
X11372562Y-15109335D02*
X11363039Y-15118858D01*
X11363039Y-15118858D02*
X11343991Y-15147430D01*
X11343991Y-15147430D02*
X11334467Y-15185525D01*
X11334467Y-15185525D02*
X11334467Y-15261716D01*
X11334467Y-15261716D02*
X11343991Y-15280763D01*
X11343991Y-15280763D02*
X11353515Y-15290287D01*
X11353515Y-15290287D02*
X11372562Y-15299811D01*
X11372562Y-15299811D02*
X11410658Y-15299811D01*
X11410658Y-15299811D02*
X11429705Y-15290287D01*
X11429705Y-15290287D02*
X11439229Y-15280763D01*
X11439229Y-15280763D02*
X11448753Y-15261716D01*
X11448753Y-15261716D02*
X11448753Y-15214097D01*
X11448753Y-15214097D02*
X11439229Y-15195049D01*
X11439229Y-15195049D02*
X11429705Y-15185525D01*
X11429705Y-15185525D02*
X11410658Y-15176001D01*
X11410658Y-15176001D02*
X11372562Y-15176001D01*
X11372562Y-15176001D02*
X11353515Y-15185525D01*
X11353515Y-15185525D02*
X11343991Y-15195049D01*
X11343991Y-15195049D02*
X11334467Y-15214097D01*
X11572562Y-15099811D02*
X11591610Y-15099811D01*
X11591610Y-15099811D02*
X11610658Y-15109335D01*
X11610658Y-15109335D02*
X11620182Y-15118858D01*
X11620182Y-15118858D02*
X11629705Y-15137906D01*
X11629705Y-15137906D02*
X11639229Y-15176001D01*
X11639229Y-15176001D02*
X11639229Y-15223620D01*
X11639229Y-15223620D02*
X11629705Y-15261716D01*
X11629705Y-15261716D02*
X11620182Y-15280763D01*
X11620182Y-15280763D02*
X11610658Y-15290287D01*
X11610658Y-15290287D02*
X11591610Y-15299811D01*
X11591610Y-15299811D02*
X11572562Y-15299811D01*
X11572562Y-15299811D02*
X11553515Y-15290287D01*
X11553515Y-15290287D02*
X11543991Y-15280763D01*
X11543991Y-15280763D02*
X11534467Y-15261716D01*
X11534467Y-15261716D02*
X11524943Y-15223620D01*
X11524943Y-15223620D02*
X11524943Y-15176001D01*
X11524943Y-15176001D02*
X11534467Y-15137906D01*
X11534467Y-15137906D02*
X11543991Y-15118858D01*
X11543991Y-15118858D02*
X11553515Y-15109335D01*
X11553515Y-15109335D02*
X11572562Y-15099811D01*
X11763039Y-15099811D02*
X11782086Y-15099811D01*
X11782086Y-15099811D02*
X11801134Y-15109335D01*
X11801134Y-15109335D02*
X11810658Y-15118858D01*
X11810658Y-15118858D02*
X11820182Y-15137906D01*
X11820182Y-15137906D02*
X11829705Y-15176001D01*
X11829705Y-15176001D02*
X11829705Y-15223620D01*
X11829705Y-15223620D02*
X11820182Y-15261716D01*
X11820182Y-15261716D02*
X11810658Y-15280763D01*
X11810658Y-15280763D02*
X11801134Y-15290287D01*
X11801134Y-15290287D02*
X11782086Y-15299811D01*
X11782086Y-15299811D02*
X11763039Y-15299811D01*
X11763039Y-15299811D02*
X11743991Y-15290287D01*
X11743991Y-15290287D02*
X11734467Y-15280763D01*
X11734467Y-15280763D02*
X11724943Y-15261716D01*
X11724943Y-15261716D02*
X11715420Y-15223620D01*
X11715420Y-15223620D02*
X11715420Y-15176001D01*
X11715420Y-15176001D02*
X11724943Y-15137906D01*
X11724943Y-15137906D02*
X11734467Y-15118858D01*
X11734467Y-15118858D02*
X11743991Y-15109335D01*
X11743991Y-15109335D02*
X11763039Y-15099811D01*
X11915420Y-15299811D02*
X11915420Y-15166477D01*
X11915420Y-15185525D02*
X11924943Y-15176001D01*
X11924943Y-15176001D02*
X11943991Y-15166477D01*
X11943991Y-15166477D02*
X11972563Y-15166477D01*
X11972563Y-15166477D02*
X11991610Y-15176001D01*
X11991610Y-15176001D02*
X12001134Y-15195049D01*
X12001134Y-15195049D02*
X12001134Y-15299811D01*
X12001134Y-15195049D02*
X12010658Y-15176001D01*
X12010658Y-15176001D02*
X12029705Y-15166477D01*
X12029705Y-15166477D02*
X12058277Y-15166477D01*
X12058277Y-15166477D02*
X12077324Y-15176001D01*
X12077324Y-15176001D02*
X12086848Y-15195049D01*
X12086848Y-15195049D02*
X12086848Y-15299811D01*
X12182086Y-15299811D02*
X12182086Y-15166477D01*
X12182086Y-15185525D02*
X12191610Y-15176001D01*
X12191610Y-15176001D02*
X12210658Y-15166477D01*
X12210658Y-15166477D02*
X12239229Y-15166477D01*
X12239229Y-15166477D02*
X12258277Y-15176001D01*
X12258277Y-15176001D02*
X12267801Y-15195049D01*
X12267801Y-15195049D02*
X12267801Y-15299811D01*
X12267801Y-15195049D02*
X12277324Y-15176001D01*
X12277324Y-15176001D02*
X12296372Y-15166477D01*
X12296372Y-15166477D02*
X12324943Y-15166477D01*
X12324943Y-15166477D02*
X12343991Y-15176001D01*
X12343991Y-15176001D02*
X12353515Y-15195049D01*
X12353515Y-15195049D02*
X12353515Y-15299811D01*
X12743991Y-15090287D02*
X12572563Y-15347430D01*
X13001134Y-15099811D02*
X13020182Y-15099811D01*
X13020182Y-15099811D02*
X13039229Y-15109335D01*
X13039229Y-15109335D02*
X13048753Y-15118858D01*
X13048753Y-15118858D02*
X13058277Y-15137906D01*
X13058277Y-15137906D02*
X13067801Y-15176001D01*
X13067801Y-15176001D02*
X13067801Y-15223620D01*
X13067801Y-15223620D02*
X13058277Y-15261716D01*
X13058277Y-15261716D02*
X13048753Y-15280763D01*
X13048753Y-15280763D02*
X13039229Y-15290287D01*
X13039229Y-15290287D02*
X13020182Y-15299811D01*
X13020182Y-15299811D02*
X13001134Y-15299811D01*
X13001134Y-15299811D02*
X12982086Y-15290287D01*
X12982086Y-15290287D02*
X12972563Y-15280763D01*
X12972563Y-15280763D02*
X12963039Y-15261716D01*
X12963039Y-15261716D02*
X12953515Y-15223620D01*
X12953515Y-15223620D02*
X12953515Y-15176001D01*
X12953515Y-15176001D02*
X12963039Y-15137906D01*
X12963039Y-15137906D02*
X12972563Y-15118858D01*
X12972563Y-15118858D02*
X12982086Y-15109335D01*
X12982086Y-15109335D02*
X13001134Y-15099811D01*
X13153515Y-15280763D02*
X13163039Y-15290287D01*
X13163039Y-15290287D02*
X13153515Y-15299811D01*
X13153515Y-15299811D02*
X13143991Y-15290287D01*
X13143991Y-15290287D02*
X13153515Y-15280763D01*
X13153515Y-15280763D02*
X13153515Y-15299811D01*
X13286848Y-15099811D02*
X13305896Y-15099811D01*
X13305896Y-15099811D02*
X13324944Y-15109335D01*
X13324944Y-15109335D02*
X13334467Y-15118858D01*
X13334467Y-15118858D02*
X13343991Y-15137906D01*
X13343991Y-15137906D02*
X13353515Y-15176001D01*
X13353515Y-15176001D02*
X13353515Y-15223620D01*
X13353515Y-15223620D02*
X13343991Y-15261716D01*
X13343991Y-15261716D02*
X13334467Y-15280763D01*
X13334467Y-15280763D02*
X13324944Y-15290287D01*
X13324944Y-15290287D02*
X13305896Y-15299811D01*
X13305896Y-15299811D02*
X13286848Y-15299811D01*
X13286848Y-15299811D02*
X13267801Y-15290287D01*
X13267801Y-15290287D02*
X13258277Y-15280763D01*
X13258277Y-15280763D02*
X13248753Y-15261716D01*
X13248753Y-15261716D02*
X13239229Y-15223620D01*
X13239229Y-15223620D02*
X13239229Y-15176001D01*
X13239229Y-15176001D02*
X13248753Y-15137906D01*
X13248753Y-15137906D02*
X13258277Y-15118858D01*
X13258277Y-15118858D02*
X13267801Y-15109335D01*
X13267801Y-15109335D02*
X13286848Y-15099811D01*
X13524944Y-15099811D02*
X13486848Y-15099811D01*
X13486848Y-15099811D02*
X13467801Y-15109335D01*
X13467801Y-15109335D02*
X13458277Y-15118858D01*
X13458277Y-15118858D02*
X13439229Y-15147430D01*
X13439229Y-15147430D02*
X13429706Y-15185525D01*
X13429706Y-15185525D02*
X13429706Y-15261716D01*
X13429706Y-15261716D02*
X13439229Y-15280763D01*
X13439229Y-15280763D02*
X13448753Y-15290287D01*
X13448753Y-15290287D02*
X13467801Y-15299811D01*
X13467801Y-15299811D02*
X13505896Y-15299811D01*
X13505896Y-15299811D02*
X13524944Y-15290287D01*
X13524944Y-15290287D02*
X13534467Y-15280763D01*
X13534467Y-15280763D02*
X13543991Y-15261716D01*
X13543991Y-15261716D02*
X13543991Y-15214097D01*
X13543991Y-15214097D02*
X13534467Y-15195049D01*
X13534467Y-15195049D02*
X13524944Y-15185525D01*
X13524944Y-15185525D02*
X13505896Y-15176001D01*
X13505896Y-15176001D02*
X13467801Y-15176001D01*
X13467801Y-15176001D02*
X13448753Y-15185525D01*
X13448753Y-15185525D02*
X13439229Y-15195049D01*
X13439229Y-15195049D02*
X13429706Y-15214097D01*
X13610658Y-15099811D02*
X13734467Y-15099811D01*
X13734467Y-15099811D02*
X13667801Y-15176001D01*
X13667801Y-15176001D02*
X13696372Y-15176001D01*
X13696372Y-15176001D02*
X13715420Y-15185525D01*
X13715420Y-15185525D02*
X13724944Y-15195049D01*
X13724944Y-15195049D02*
X13734467Y-15214097D01*
X13734467Y-15214097D02*
X13734467Y-15261716D01*
X13734467Y-15261716D02*
X13724944Y-15280763D01*
X13724944Y-15280763D02*
X13715420Y-15290287D01*
X13715420Y-15290287D02*
X13696372Y-15299811D01*
X13696372Y-15299811D02*
X13639229Y-15299811D01*
X13639229Y-15299811D02*
X13620182Y-15290287D01*
X13620182Y-15290287D02*
X13610658Y-15280763D01*
X13858277Y-15099811D02*
X13877325Y-15099811D01*
X13877325Y-15099811D02*
X13896372Y-15109335D01*
X13896372Y-15109335D02*
X13905896Y-15118858D01*
X13905896Y-15118858D02*
X13915420Y-15137906D01*
X13915420Y-15137906D02*
X13924944Y-15176001D01*
X13924944Y-15176001D02*
X13924944Y-15223620D01*
X13924944Y-15223620D02*
X13915420Y-15261716D01*
X13915420Y-15261716D02*
X13905896Y-15280763D01*
X13905896Y-15280763D02*
X13896372Y-15290287D01*
X13896372Y-15290287D02*
X13877325Y-15299811D01*
X13877325Y-15299811D02*
X13858277Y-15299811D01*
X13858277Y-15299811D02*
X13839229Y-15290287D01*
X13839229Y-15290287D02*
X13829706Y-15280763D01*
X13829706Y-15280763D02*
X13820182Y-15261716D01*
X13820182Y-15261716D02*
X13810658Y-15223620D01*
X13810658Y-15223620D02*
X13810658Y-15176001D01*
X13810658Y-15176001D02*
X13820182Y-15137906D01*
X13820182Y-15137906D02*
X13829706Y-15118858D01*
X13829706Y-15118858D02*
X13839229Y-15109335D01*
X13839229Y-15109335D02*
X13858277Y-15099811D01*
X14001134Y-15099811D02*
X14001134Y-15137906D01*
X14077325Y-15099811D02*
X14077325Y-15137906D01*
X14372563Y-15376001D02*
X14363039Y-15366477D01*
X14363039Y-15366477D02*
X14343991Y-15337906D01*
X14343991Y-15337906D02*
X14334468Y-15318858D01*
X14334468Y-15318858D02*
X14324944Y-15290287D01*
X14324944Y-15290287D02*
X14315420Y-15242668D01*
X14315420Y-15242668D02*
X14315420Y-15204573D01*
X14315420Y-15204573D02*
X14324944Y-15156954D01*
X14324944Y-15156954D02*
X14334468Y-15128382D01*
X14334468Y-15128382D02*
X14343991Y-15109335D01*
X14343991Y-15109335D02*
X14363039Y-15080763D01*
X14363039Y-15080763D02*
X14372563Y-15071239D01*
X14429706Y-15099811D02*
X14553515Y-15099811D01*
X14553515Y-15099811D02*
X14486848Y-15176001D01*
X14486848Y-15176001D02*
X14515420Y-15176001D01*
X14515420Y-15176001D02*
X14534468Y-15185525D01*
X14534468Y-15185525D02*
X14543991Y-15195049D01*
X14543991Y-15195049D02*
X14553515Y-15214097D01*
X14553515Y-15214097D02*
X14553515Y-15261716D01*
X14553515Y-15261716D02*
X14543991Y-15280763D01*
X14543991Y-15280763D02*
X14534468Y-15290287D01*
X14534468Y-15290287D02*
X14515420Y-15299811D01*
X14515420Y-15299811D02*
X14458277Y-15299811D01*
X14458277Y-15299811D02*
X14439229Y-15290287D01*
X14439229Y-15290287D02*
X14429706Y-15280763D01*
X14677325Y-15099811D02*
X14696372Y-15099811D01*
X14696372Y-15099811D02*
X14715420Y-15109335D01*
X14715420Y-15109335D02*
X14724944Y-15118858D01*
X14724944Y-15118858D02*
X14734468Y-15137906D01*
X14734468Y-15137906D02*
X14743991Y-15176001D01*
X14743991Y-15176001D02*
X14743991Y-15223620D01*
X14743991Y-15223620D02*
X14734468Y-15261716D01*
X14734468Y-15261716D02*
X14724944Y-15280763D01*
X14724944Y-15280763D02*
X14715420Y-15290287D01*
X14715420Y-15290287D02*
X14696372Y-15299811D01*
X14696372Y-15299811D02*
X14677325Y-15299811D01*
X14677325Y-15299811D02*
X14658277Y-15290287D01*
X14658277Y-15290287D02*
X14648753Y-15280763D01*
X14648753Y-15280763D02*
X14639229Y-15261716D01*
X14639229Y-15261716D02*
X14629706Y-15223620D01*
X14629706Y-15223620D02*
X14629706Y-15176001D01*
X14629706Y-15176001D02*
X14639229Y-15137906D01*
X14639229Y-15137906D02*
X14648753Y-15118858D01*
X14648753Y-15118858D02*
X14658277Y-15109335D01*
X14658277Y-15109335D02*
X14677325Y-15099811D01*
X14982087Y-15299811D02*
X14982087Y-15099811D01*
X15067801Y-15299811D02*
X15067801Y-15195049D01*
X15067801Y-15195049D02*
X15058277Y-15176001D01*
X15058277Y-15176001D02*
X15039230Y-15166477D01*
X15039230Y-15166477D02*
X15010658Y-15166477D01*
X15010658Y-15166477D02*
X14991610Y-15176001D01*
X14991610Y-15176001D02*
X14982087Y-15185525D01*
X15191610Y-15299811D02*
X15172563Y-15290287D01*
X15172563Y-15290287D02*
X15163039Y-15280763D01*
X15163039Y-15280763D02*
X15153515Y-15261716D01*
X15153515Y-15261716D02*
X15153515Y-15204573D01*
X15153515Y-15204573D02*
X15163039Y-15185525D01*
X15163039Y-15185525D02*
X15172563Y-15176001D01*
X15172563Y-15176001D02*
X15191610Y-15166477D01*
X15191610Y-15166477D02*
X15220182Y-15166477D01*
X15220182Y-15166477D02*
X15239230Y-15176001D01*
X15239230Y-15176001D02*
X15248753Y-15185525D01*
X15248753Y-15185525D02*
X15258277Y-15204573D01*
X15258277Y-15204573D02*
X15258277Y-15261716D01*
X15258277Y-15261716D02*
X15248753Y-15280763D01*
X15248753Y-15280763D02*
X15239230Y-15290287D01*
X15239230Y-15290287D02*
X15220182Y-15299811D01*
X15220182Y-15299811D02*
X15191610Y-15299811D01*
X15372563Y-15299811D02*
X15353515Y-15290287D01*
X15353515Y-15290287D02*
X15343991Y-15271239D01*
X15343991Y-15271239D02*
X15343991Y-15099811D01*
X15524944Y-15290287D02*
X15505896Y-15299811D01*
X15505896Y-15299811D02*
X15467801Y-15299811D01*
X15467801Y-15299811D02*
X15448753Y-15290287D01*
X15448753Y-15290287D02*
X15439230Y-15271239D01*
X15439230Y-15271239D02*
X15439230Y-15195049D01*
X15439230Y-15195049D02*
X15448753Y-15176001D01*
X15448753Y-15176001D02*
X15467801Y-15166477D01*
X15467801Y-15166477D02*
X15505896Y-15166477D01*
X15505896Y-15166477D02*
X15524944Y-15176001D01*
X15524944Y-15176001D02*
X15534468Y-15195049D01*
X15534468Y-15195049D02*
X15534468Y-15214097D01*
X15534468Y-15214097D02*
X15439230Y-15233144D01*
X15610658Y-15290287D02*
X15629706Y-15299811D01*
X15629706Y-15299811D02*
X15667801Y-15299811D01*
X15667801Y-15299811D02*
X15686849Y-15290287D01*
X15686849Y-15290287D02*
X15696372Y-15271239D01*
X15696372Y-15271239D02*
X15696372Y-15261716D01*
X15696372Y-15261716D02*
X15686849Y-15242668D01*
X15686849Y-15242668D02*
X15667801Y-15233144D01*
X15667801Y-15233144D02*
X15639230Y-15233144D01*
X15639230Y-15233144D02*
X15620182Y-15223620D01*
X15620182Y-15223620D02*
X15610658Y-15204573D01*
X15610658Y-15204573D02*
X15610658Y-15195049D01*
X15610658Y-15195049D02*
X15620182Y-15176001D01*
X15620182Y-15176001D02*
X15639230Y-15166477D01*
X15639230Y-15166477D02*
X15667801Y-15166477D01*
X15667801Y-15166477D02*
X15686849Y-15176001D01*
X15763039Y-15376001D02*
X15772563Y-15366477D01*
X15772563Y-15366477D02*
X15791611Y-15337906D01*
X15791611Y-15337906D02*
X15801134Y-15318858D01*
X15801134Y-15318858D02*
X15810658Y-15290287D01*
X15810658Y-15290287D02*
X15820182Y-15242668D01*
X15820182Y-15242668D02*
X15820182Y-15204573D01*
X15820182Y-15204573D02*
X15810658Y-15156954D01*
X15810658Y-15156954D02*
X15801134Y-15128382D01*
X15801134Y-15128382D02*
X15791611Y-15109335D01*
X15791611Y-15109335D02*
X15772563Y-15080763D01*
X15772563Y-15080763D02*
X15763039Y-15071239D01*
X10597500Y-15388327D02*
X10797500Y-15588327D01*
X10797500Y-15388327D02*
X10597500Y-15588327D01*
X10697500Y-15388327D02*
X10697500Y-15588327D01*
X10597500Y-15488327D02*
X10797500Y-15488327D01*
X11048753Y-15398858D02*
X11058277Y-15389335D01*
X11058277Y-15389335D02*
X11077324Y-15379811D01*
X11077324Y-15379811D02*
X11124944Y-15379811D01*
X11124944Y-15379811D02*
X11143991Y-15389335D01*
X11143991Y-15389335D02*
X11153515Y-15398858D01*
X11153515Y-15398858D02*
X11163039Y-15417906D01*
X11163039Y-15417906D02*
X11163039Y-15436954D01*
X11163039Y-15436954D02*
X11153515Y-15465525D01*
X11153515Y-15465525D02*
X11039229Y-15579811D01*
X11039229Y-15579811D02*
X11163039Y-15579811D01*
X11248753Y-15560763D02*
X11258277Y-15570287D01*
X11258277Y-15570287D02*
X11248753Y-15579811D01*
X11248753Y-15579811D02*
X11239229Y-15570287D01*
X11239229Y-15570287D02*
X11248753Y-15560763D01*
X11248753Y-15560763D02*
X11248753Y-15579811D01*
X11334467Y-15398858D02*
X11343991Y-15389335D01*
X11343991Y-15389335D02*
X11363039Y-15379811D01*
X11363039Y-15379811D02*
X11410658Y-15379811D01*
X11410658Y-15379811D02*
X11429705Y-15389335D01*
X11429705Y-15389335D02*
X11439229Y-15398858D01*
X11439229Y-15398858D02*
X11448753Y-15417906D01*
X11448753Y-15417906D02*
X11448753Y-15436954D01*
X11448753Y-15436954D02*
X11439229Y-15465525D01*
X11439229Y-15465525D02*
X11324943Y-15579811D01*
X11324943Y-15579811D02*
X11448753Y-15579811D01*
X11572562Y-15379811D02*
X11591610Y-15379811D01*
X11591610Y-15379811D02*
X11610658Y-15389335D01*
X11610658Y-15389335D02*
X11620182Y-15398858D01*
X11620182Y-15398858D02*
X11629705Y-15417906D01*
X11629705Y-15417906D02*
X11639229Y-15456001D01*
X11639229Y-15456001D02*
X11639229Y-15503620D01*
X11639229Y-15503620D02*
X11629705Y-15541716D01*
X11629705Y-15541716D02*
X11620182Y-15560763D01*
X11620182Y-15560763D02*
X11610658Y-15570287D01*
X11610658Y-15570287D02*
X11591610Y-15579811D01*
X11591610Y-15579811D02*
X11572562Y-15579811D01*
X11572562Y-15579811D02*
X11553515Y-15570287D01*
X11553515Y-15570287D02*
X11543991Y-15560763D01*
X11543991Y-15560763D02*
X11534467Y-15541716D01*
X11534467Y-15541716D02*
X11524943Y-15503620D01*
X11524943Y-15503620D02*
X11524943Y-15456001D01*
X11524943Y-15456001D02*
X11534467Y-15417906D01*
X11534467Y-15417906D02*
X11543991Y-15398858D01*
X11543991Y-15398858D02*
X11553515Y-15389335D01*
X11553515Y-15389335D02*
X11572562Y-15379811D01*
X11763039Y-15379811D02*
X11782086Y-15379811D01*
X11782086Y-15379811D02*
X11801134Y-15389335D01*
X11801134Y-15389335D02*
X11810658Y-15398858D01*
X11810658Y-15398858D02*
X11820182Y-15417906D01*
X11820182Y-15417906D02*
X11829705Y-15456001D01*
X11829705Y-15456001D02*
X11829705Y-15503620D01*
X11829705Y-15503620D02*
X11820182Y-15541716D01*
X11820182Y-15541716D02*
X11810658Y-15560763D01*
X11810658Y-15560763D02*
X11801134Y-15570287D01*
X11801134Y-15570287D02*
X11782086Y-15579811D01*
X11782086Y-15579811D02*
X11763039Y-15579811D01*
X11763039Y-15579811D02*
X11743991Y-15570287D01*
X11743991Y-15570287D02*
X11734467Y-15560763D01*
X11734467Y-15560763D02*
X11724943Y-15541716D01*
X11724943Y-15541716D02*
X11715420Y-15503620D01*
X11715420Y-15503620D02*
X11715420Y-15456001D01*
X11715420Y-15456001D02*
X11724943Y-15417906D01*
X11724943Y-15417906D02*
X11734467Y-15398858D01*
X11734467Y-15398858D02*
X11743991Y-15389335D01*
X11743991Y-15389335D02*
X11763039Y-15379811D01*
X11915420Y-15579811D02*
X11915420Y-15446477D01*
X11915420Y-15465525D02*
X11924943Y-15456001D01*
X11924943Y-15456001D02*
X11943991Y-15446477D01*
X11943991Y-15446477D02*
X11972563Y-15446477D01*
X11972563Y-15446477D02*
X11991610Y-15456001D01*
X11991610Y-15456001D02*
X12001134Y-15475049D01*
X12001134Y-15475049D02*
X12001134Y-15579811D01*
X12001134Y-15475049D02*
X12010658Y-15456001D01*
X12010658Y-15456001D02*
X12029705Y-15446477D01*
X12029705Y-15446477D02*
X12058277Y-15446477D01*
X12058277Y-15446477D02*
X12077324Y-15456001D01*
X12077324Y-15456001D02*
X12086848Y-15475049D01*
X12086848Y-15475049D02*
X12086848Y-15579811D01*
X12182086Y-15579811D02*
X12182086Y-15446477D01*
X12182086Y-15465525D02*
X12191610Y-15456001D01*
X12191610Y-15456001D02*
X12210658Y-15446477D01*
X12210658Y-15446477D02*
X12239229Y-15446477D01*
X12239229Y-15446477D02*
X12258277Y-15456001D01*
X12258277Y-15456001D02*
X12267801Y-15475049D01*
X12267801Y-15475049D02*
X12267801Y-15579811D01*
X12267801Y-15475049D02*
X12277324Y-15456001D01*
X12277324Y-15456001D02*
X12296372Y-15446477D01*
X12296372Y-15446477D02*
X12324943Y-15446477D01*
X12324943Y-15446477D02*
X12343991Y-15456001D01*
X12343991Y-15456001D02*
X12353515Y-15475049D01*
X12353515Y-15475049D02*
X12353515Y-15579811D01*
X12743991Y-15370287D02*
X12572563Y-15627430D01*
X13001134Y-15379811D02*
X13020182Y-15379811D01*
X13020182Y-15379811D02*
X13039229Y-15389335D01*
X13039229Y-15389335D02*
X13048753Y-15398858D01*
X13048753Y-15398858D02*
X13058277Y-15417906D01*
X13058277Y-15417906D02*
X13067801Y-15456001D01*
X13067801Y-15456001D02*
X13067801Y-15503620D01*
X13067801Y-15503620D02*
X13058277Y-15541716D01*
X13058277Y-15541716D02*
X13048753Y-15560763D01*
X13048753Y-15560763D02*
X13039229Y-15570287D01*
X13039229Y-15570287D02*
X13020182Y-15579811D01*
X13020182Y-15579811D02*
X13001134Y-15579811D01*
X13001134Y-15579811D02*
X12982086Y-15570287D01*
X12982086Y-15570287D02*
X12972563Y-15560763D01*
X12972563Y-15560763D02*
X12963039Y-15541716D01*
X12963039Y-15541716D02*
X12953515Y-15503620D01*
X12953515Y-15503620D02*
X12953515Y-15456001D01*
X12953515Y-15456001D02*
X12963039Y-15417906D01*
X12963039Y-15417906D02*
X12972563Y-15398858D01*
X12972563Y-15398858D02*
X12982086Y-15389335D01*
X12982086Y-15389335D02*
X13001134Y-15379811D01*
X13153515Y-15560763D02*
X13163039Y-15570287D01*
X13163039Y-15570287D02*
X13153515Y-15579811D01*
X13153515Y-15579811D02*
X13143991Y-15570287D01*
X13143991Y-15570287D02*
X13153515Y-15560763D01*
X13153515Y-15560763D02*
X13153515Y-15579811D01*
X13286848Y-15379811D02*
X13305896Y-15379811D01*
X13305896Y-15379811D02*
X13324944Y-15389335D01*
X13324944Y-15389335D02*
X13334467Y-15398858D01*
X13334467Y-15398858D02*
X13343991Y-15417906D01*
X13343991Y-15417906D02*
X13353515Y-15456001D01*
X13353515Y-15456001D02*
X13353515Y-15503620D01*
X13353515Y-15503620D02*
X13343991Y-15541716D01*
X13343991Y-15541716D02*
X13334467Y-15560763D01*
X13334467Y-15560763D02*
X13324944Y-15570287D01*
X13324944Y-15570287D02*
X13305896Y-15579811D01*
X13305896Y-15579811D02*
X13286848Y-15579811D01*
X13286848Y-15579811D02*
X13267801Y-15570287D01*
X13267801Y-15570287D02*
X13258277Y-15560763D01*
X13258277Y-15560763D02*
X13248753Y-15541716D01*
X13248753Y-15541716D02*
X13239229Y-15503620D01*
X13239229Y-15503620D02*
X13239229Y-15456001D01*
X13239229Y-15456001D02*
X13248753Y-15417906D01*
X13248753Y-15417906D02*
X13258277Y-15398858D01*
X13258277Y-15398858D02*
X13267801Y-15389335D01*
X13267801Y-15389335D02*
X13286848Y-15379811D01*
X13467801Y-15465525D02*
X13448753Y-15456001D01*
X13448753Y-15456001D02*
X13439229Y-15446477D01*
X13439229Y-15446477D02*
X13429706Y-15427430D01*
X13429706Y-15427430D02*
X13429706Y-15417906D01*
X13429706Y-15417906D02*
X13439229Y-15398858D01*
X13439229Y-15398858D02*
X13448753Y-15389335D01*
X13448753Y-15389335D02*
X13467801Y-15379811D01*
X13467801Y-15379811D02*
X13505896Y-15379811D01*
X13505896Y-15379811D02*
X13524944Y-15389335D01*
X13524944Y-15389335D02*
X13534467Y-15398858D01*
X13534467Y-15398858D02*
X13543991Y-15417906D01*
X13543991Y-15417906D02*
X13543991Y-15427430D01*
X13543991Y-15427430D02*
X13534467Y-15446477D01*
X13534467Y-15446477D02*
X13524944Y-15456001D01*
X13524944Y-15456001D02*
X13505896Y-15465525D01*
X13505896Y-15465525D02*
X13467801Y-15465525D01*
X13467801Y-15465525D02*
X13448753Y-15475049D01*
X13448753Y-15475049D02*
X13439229Y-15484573D01*
X13439229Y-15484573D02*
X13429706Y-15503620D01*
X13429706Y-15503620D02*
X13429706Y-15541716D01*
X13429706Y-15541716D02*
X13439229Y-15560763D01*
X13439229Y-15560763D02*
X13448753Y-15570287D01*
X13448753Y-15570287D02*
X13467801Y-15579811D01*
X13467801Y-15579811D02*
X13505896Y-15579811D01*
X13505896Y-15579811D02*
X13524944Y-15570287D01*
X13524944Y-15570287D02*
X13534467Y-15560763D01*
X13534467Y-15560763D02*
X13543991Y-15541716D01*
X13543991Y-15541716D02*
X13543991Y-15503620D01*
X13543991Y-15503620D02*
X13534467Y-15484573D01*
X13534467Y-15484573D02*
X13524944Y-15475049D01*
X13524944Y-15475049D02*
X13505896Y-15465525D01*
X13715420Y-15379811D02*
X13677325Y-15379811D01*
X13677325Y-15379811D02*
X13658277Y-15389335D01*
X13658277Y-15389335D02*
X13648753Y-15398858D01*
X13648753Y-15398858D02*
X13629706Y-15427430D01*
X13629706Y-15427430D02*
X13620182Y-15465525D01*
X13620182Y-15465525D02*
X13620182Y-15541716D01*
X13620182Y-15541716D02*
X13629706Y-15560763D01*
X13629706Y-15560763D02*
X13639229Y-15570287D01*
X13639229Y-15570287D02*
X13658277Y-15579811D01*
X13658277Y-15579811D02*
X13696372Y-15579811D01*
X13696372Y-15579811D02*
X13715420Y-15570287D01*
X13715420Y-15570287D02*
X13724944Y-15560763D01*
X13724944Y-15560763D02*
X13734467Y-15541716D01*
X13734467Y-15541716D02*
X13734467Y-15494097D01*
X13734467Y-15494097D02*
X13724944Y-15475049D01*
X13724944Y-15475049D02*
X13715420Y-15465525D01*
X13715420Y-15465525D02*
X13696372Y-15456001D01*
X13696372Y-15456001D02*
X13658277Y-15456001D01*
X13658277Y-15456001D02*
X13639229Y-15465525D01*
X13639229Y-15465525D02*
X13629706Y-15475049D01*
X13629706Y-15475049D02*
X13620182Y-15494097D01*
X13905896Y-15379811D02*
X13867801Y-15379811D01*
X13867801Y-15379811D02*
X13848753Y-15389335D01*
X13848753Y-15389335D02*
X13839229Y-15398858D01*
X13839229Y-15398858D02*
X13820182Y-15427430D01*
X13820182Y-15427430D02*
X13810658Y-15465525D01*
X13810658Y-15465525D02*
X13810658Y-15541716D01*
X13810658Y-15541716D02*
X13820182Y-15560763D01*
X13820182Y-15560763D02*
X13829706Y-15570287D01*
X13829706Y-15570287D02*
X13848753Y-15579811D01*
X13848753Y-15579811D02*
X13886848Y-15579811D01*
X13886848Y-15579811D02*
X13905896Y-15570287D01*
X13905896Y-15570287D02*
X13915420Y-15560763D01*
X13915420Y-15560763D02*
X13924944Y-15541716D01*
X13924944Y-15541716D02*
X13924944Y-15494097D01*
X13924944Y-15494097D02*
X13915420Y-15475049D01*
X13915420Y-15475049D02*
X13905896Y-15465525D01*
X13905896Y-15465525D02*
X13886848Y-15456001D01*
X13886848Y-15456001D02*
X13848753Y-15456001D01*
X13848753Y-15456001D02*
X13829706Y-15465525D01*
X13829706Y-15465525D02*
X13820182Y-15475049D01*
X13820182Y-15475049D02*
X13810658Y-15494097D01*
X14001134Y-15379811D02*
X14001134Y-15417906D01*
X14077325Y-15379811D02*
X14077325Y-15417906D01*
X14372563Y-15656001D02*
X14363039Y-15646477D01*
X14363039Y-15646477D02*
X14343991Y-15617906D01*
X14343991Y-15617906D02*
X14334468Y-15598858D01*
X14334468Y-15598858D02*
X14324944Y-15570287D01*
X14324944Y-15570287D02*
X14315420Y-15522668D01*
X14315420Y-15522668D02*
X14315420Y-15484573D01*
X14315420Y-15484573D02*
X14324944Y-15436954D01*
X14324944Y-15436954D02*
X14334468Y-15408382D01*
X14334468Y-15408382D02*
X14343991Y-15389335D01*
X14343991Y-15389335D02*
X14363039Y-15360763D01*
X14363039Y-15360763D02*
X14372563Y-15351239D01*
X14534468Y-15379811D02*
X14496372Y-15379811D01*
X14496372Y-15379811D02*
X14477325Y-15389335D01*
X14477325Y-15389335D02*
X14467801Y-15398858D01*
X14467801Y-15398858D02*
X14448753Y-15427430D01*
X14448753Y-15427430D02*
X14439229Y-15465525D01*
X14439229Y-15465525D02*
X14439229Y-15541716D01*
X14439229Y-15541716D02*
X14448753Y-15560763D01*
X14448753Y-15560763D02*
X14458277Y-15570287D01*
X14458277Y-15570287D02*
X14477325Y-15579811D01*
X14477325Y-15579811D02*
X14515420Y-15579811D01*
X14515420Y-15579811D02*
X14534468Y-15570287D01*
X14534468Y-15570287D02*
X14543991Y-15560763D01*
X14543991Y-15560763D02*
X14553515Y-15541716D01*
X14553515Y-15541716D02*
X14553515Y-15494097D01*
X14553515Y-15494097D02*
X14543991Y-15475049D01*
X14543991Y-15475049D02*
X14534468Y-15465525D01*
X14534468Y-15465525D02*
X14515420Y-15456001D01*
X14515420Y-15456001D02*
X14477325Y-15456001D01*
X14477325Y-15456001D02*
X14458277Y-15465525D01*
X14458277Y-15465525D02*
X14448753Y-15475049D01*
X14448753Y-15475049D02*
X14439229Y-15494097D01*
X14791610Y-15579811D02*
X14791610Y-15379811D01*
X14877325Y-15579811D02*
X14877325Y-15475049D01*
X14877325Y-15475049D02*
X14867801Y-15456001D01*
X14867801Y-15456001D02*
X14848753Y-15446477D01*
X14848753Y-15446477D02*
X14820182Y-15446477D01*
X14820182Y-15446477D02*
X14801134Y-15456001D01*
X14801134Y-15456001D02*
X14791610Y-15465525D01*
X15001134Y-15579811D02*
X14982087Y-15570287D01*
X14982087Y-15570287D02*
X14972563Y-15560763D01*
X14972563Y-15560763D02*
X14963039Y-15541716D01*
X14963039Y-15541716D02*
X14963039Y-15484573D01*
X14963039Y-15484573D02*
X14972563Y-15465525D01*
X14972563Y-15465525D02*
X14982087Y-15456001D01*
X14982087Y-15456001D02*
X15001134Y-15446477D01*
X15001134Y-15446477D02*
X15029706Y-15446477D01*
X15029706Y-15446477D02*
X15048753Y-15456001D01*
X15048753Y-15456001D02*
X15058277Y-15465525D01*
X15058277Y-15465525D02*
X15067801Y-15484573D01*
X15067801Y-15484573D02*
X15067801Y-15541716D01*
X15067801Y-15541716D02*
X15058277Y-15560763D01*
X15058277Y-15560763D02*
X15048753Y-15570287D01*
X15048753Y-15570287D02*
X15029706Y-15579811D01*
X15029706Y-15579811D02*
X15001134Y-15579811D01*
X15182087Y-15579811D02*
X15163039Y-15570287D01*
X15163039Y-15570287D02*
X15153515Y-15551239D01*
X15153515Y-15551239D02*
X15153515Y-15379811D01*
X15334468Y-15570287D02*
X15315420Y-15579811D01*
X15315420Y-15579811D02*
X15277325Y-15579811D01*
X15277325Y-15579811D02*
X15258277Y-15570287D01*
X15258277Y-15570287D02*
X15248753Y-15551239D01*
X15248753Y-15551239D02*
X15248753Y-15475049D01*
X15248753Y-15475049D02*
X15258277Y-15456001D01*
X15258277Y-15456001D02*
X15277325Y-15446477D01*
X15277325Y-15446477D02*
X15315420Y-15446477D01*
X15315420Y-15446477D02*
X15334468Y-15456001D01*
X15334468Y-15456001D02*
X15343991Y-15475049D01*
X15343991Y-15475049D02*
X15343991Y-15494097D01*
X15343991Y-15494097D02*
X15248753Y-15513144D01*
X15420182Y-15570287D02*
X15439230Y-15579811D01*
X15439230Y-15579811D02*
X15477325Y-15579811D01*
X15477325Y-15579811D02*
X15496372Y-15570287D01*
X15496372Y-15570287D02*
X15505896Y-15551239D01*
X15505896Y-15551239D02*
X15505896Y-15541716D01*
X15505896Y-15541716D02*
X15496372Y-15522668D01*
X15496372Y-15522668D02*
X15477325Y-15513144D01*
X15477325Y-15513144D02*
X15448753Y-15513144D01*
X15448753Y-15513144D02*
X15429706Y-15503620D01*
X15429706Y-15503620D02*
X15420182Y-15484573D01*
X15420182Y-15484573D02*
X15420182Y-15475049D01*
X15420182Y-15475049D02*
X15429706Y-15456001D01*
X15429706Y-15456001D02*
X15448753Y-15446477D01*
X15448753Y-15446477D02*
X15477325Y-15446477D01*
X15477325Y-15446477D02*
X15496372Y-15456001D01*
X15572563Y-15656001D02*
X15582087Y-15646477D01*
X15582087Y-15646477D02*
X15601134Y-15617906D01*
X15601134Y-15617906D02*
X15610658Y-15598858D01*
X15610658Y-15598858D02*
X15620182Y-15570287D01*
X15620182Y-15570287D02*
X15629706Y-15522668D01*
X15629706Y-15522668D02*
X15629706Y-15484573D01*
X15629706Y-15484573D02*
X15620182Y-15436954D01*
X15620182Y-15436954D02*
X15610658Y-15408382D01*
X15610658Y-15408382D02*
X15601134Y-15389335D01*
X15601134Y-15389335D02*
X15582087Y-15360763D01*
X15582087Y-15360763D02*
X15572563Y-15351239D01*
X10597500Y-15708327D02*
X10797500Y-15908327D01*
X10797500Y-15708327D02*
X10597500Y-15908327D01*
X10768211Y-15879038D02*
X10768211Y-15737616D01*
X10626789Y-15737616D01*
X10626789Y-15879038D01*
X10768211Y-15879038D01*
X11048753Y-15718858D02*
X11058277Y-15709335D01*
X11058277Y-15709335D02*
X11077324Y-15699811D01*
X11077324Y-15699811D02*
X11124944Y-15699811D01*
X11124944Y-15699811D02*
X11143991Y-15709335D01*
X11143991Y-15709335D02*
X11153515Y-15718858D01*
X11153515Y-15718858D02*
X11163039Y-15737906D01*
X11163039Y-15737906D02*
X11163039Y-15756954D01*
X11163039Y-15756954D02*
X11153515Y-15785525D01*
X11153515Y-15785525D02*
X11039229Y-15899811D01*
X11039229Y-15899811D02*
X11163039Y-15899811D01*
X11248753Y-15880763D02*
X11258277Y-15890287D01*
X11258277Y-15890287D02*
X11248753Y-15899811D01*
X11248753Y-15899811D02*
X11239229Y-15890287D01*
X11239229Y-15890287D02*
X11248753Y-15880763D01*
X11248753Y-15880763D02*
X11248753Y-15899811D01*
X11439229Y-15699811D02*
X11343991Y-15699811D01*
X11343991Y-15699811D02*
X11334467Y-15795049D01*
X11334467Y-15795049D02*
X11343991Y-15785525D01*
X11343991Y-15785525D02*
X11363039Y-15776001D01*
X11363039Y-15776001D02*
X11410658Y-15776001D01*
X11410658Y-15776001D02*
X11429705Y-15785525D01*
X11429705Y-15785525D02*
X11439229Y-15795049D01*
X11439229Y-15795049D02*
X11448753Y-15814097D01*
X11448753Y-15814097D02*
X11448753Y-15861716D01*
X11448753Y-15861716D02*
X11439229Y-15880763D01*
X11439229Y-15880763D02*
X11429705Y-15890287D01*
X11429705Y-15890287D02*
X11410658Y-15899811D01*
X11410658Y-15899811D02*
X11363039Y-15899811D01*
X11363039Y-15899811D02*
X11343991Y-15890287D01*
X11343991Y-15890287D02*
X11334467Y-15880763D01*
X11572562Y-15699811D02*
X11591610Y-15699811D01*
X11591610Y-15699811D02*
X11610658Y-15709335D01*
X11610658Y-15709335D02*
X11620182Y-15718858D01*
X11620182Y-15718858D02*
X11629705Y-15737906D01*
X11629705Y-15737906D02*
X11639229Y-15776001D01*
X11639229Y-15776001D02*
X11639229Y-15823620D01*
X11639229Y-15823620D02*
X11629705Y-15861716D01*
X11629705Y-15861716D02*
X11620182Y-15880763D01*
X11620182Y-15880763D02*
X11610658Y-15890287D01*
X11610658Y-15890287D02*
X11591610Y-15899811D01*
X11591610Y-15899811D02*
X11572562Y-15899811D01*
X11572562Y-15899811D02*
X11553515Y-15890287D01*
X11553515Y-15890287D02*
X11543991Y-15880763D01*
X11543991Y-15880763D02*
X11534467Y-15861716D01*
X11534467Y-15861716D02*
X11524943Y-15823620D01*
X11524943Y-15823620D02*
X11524943Y-15776001D01*
X11524943Y-15776001D02*
X11534467Y-15737906D01*
X11534467Y-15737906D02*
X11543991Y-15718858D01*
X11543991Y-15718858D02*
X11553515Y-15709335D01*
X11553515Y-15709335D02*
X11572562Y-15699811D01*
X11763039Y-15699811D02*
X11782086Y-15699811D01*
X11782086Y-15699811D02*
X11801134Y-15709335D01*
X11801134Y-15709335D02*
X11810658Y-15718858D01*
X11810658Y-15718858D02*
X11820182Y-15737906D01*
X11820182Y-15737906D02*
X11829705Y-15776001D01*
X11829705Y-15776001D02*
X11829705Y-15823620D01*
X11829705Y-15823620D02*
X11820182Y-15861716D01*
X11820182Y-15861716D02*
X11810658Y-15880763D01*
X11810658Y-15880763D02*
X11801134Y-15890287D01*
X11801134Y-15890287D02*
X11782086Y-15899811D01*
X11782086Y-15899811D02*
X11763039Y-15899811D01*
X11763039Y-15899811D02*
X11743991Y-15890287D01*
X11743991Y-15890287D02*
X11734467Y-15880763D01*
X11734467Y-15880763D02*
X11724943Y-15861716D01*
X11724943Y-15861716D02*
X11715420Y-15823620D01*
X11715420Y-15823620D02*
X11715420Y-15776001D01*
X11715420Y-15776001D02*
X11724943Y-15737906D01*
X11724943Y-15737906D02*
X11734467Y-15718858D01*
X11734467Y-15718858D02*
X11743991Y-15709335D01*
X11743991Y-15709335D02*
X11763039Y-15699811D01*
X11915420Y-15899811D02*
X11915420Y-15766477D01*
X11915420Y-15785525D02*
X11924943Y-15776001D01*
X11924943Y-15776001D02*
X11943991Y-15766477D01*
X11943991Y-15766477D02*
X11972563Y-15766477D01*
X11972563Y-15766477D02*
X11991610Y-15776001D01*
X11991610Y-15776001D02*
X12001134Y-15795049D01*
X12001134Y-15795049D02*
X12001134Y-15899811D01*
X12001134Y-15795049D02*
X12010658Y-15776001D01*
X12010658Y-15776001D02*
X12029705Y-15766477D01*
X12029705Y-15766477D02*
X12058277Y-15766477D01*
X12058277Y-15766477D02*
X12077324Y-15776001D01*
X12077324Y-15776001D02*
X12086848Y-15795049D01*
X12086848Y-15795049D02*
X12086848Y-15899811D01*
X12182086Y-15899811D02*
X12182086Y-15766477D01*
X12182086Y-15785525D02*
X12191610Y-15776001D01*
X12191610Y-15776001D02*
X12210658Y-15766477D01*
X12210658Y-15766477D02*
X12239229Y-15766477D01*
X12239229Y-15766477D02*
X12258277Y-15776001D01*
X12258277Y-15776001D02*
X12267801Y-15795049D01*
X12267801Y-15795049D02*
X12267801Y-15899811D01*
X12267801Y-15795049D02*
X12277324Y-15776001D01*
X12277324Y-15776001D02*
X12296372Y-15766477D01*
X12296372Y-15766477D02*
X12324943Y-15766477D01*
X12324943Y-15766477D02*
X12343991Y-15776001D01*
X12343991Y-15776001D02*
X12353515Y-15795049D01*
X12353515Y-15795049D02*
X12353515Y-15899811D01*
X12743991Y-15690287D02*
X12572563Y-15947430D01*
X13001134Y-15699811D02*
X13020182Y-15699811D01*
X13020182Y-15699811D02*
X13039229Y-15709335D01*
X13039229Y-15709335D02*
X13048753Y-15718858D01*
X13048753Y-15718858D02*
X13058277Y-15737906D01*
X13058277Y-15737906D02*
X13067801Y-15776001D01*
X13067801Y-15776001D02*
X13067801Y-15823620D01*
X13067801Y-15823620D02*
X13058277Y-15861716D01*
X13058277Y-15861716D02*
X13048753Y-15880763D01*
X13048753Y-15880763D02*
X13039229Y-15890287D01*
X13039229Y-15890287D02*
X13020182Y-15899811D01*
X13020182Y-15899811D02*
X13001134Y-15899811D01*
X13001134Y-15899811D02*
X12982086Y-15890287D01*
X12982086Y-15890287D02*
X12972563Y-15880763D01*
X12972563Y-15880763D02*
X12963039Y-15861716D01*
X12963039Y-15861716D02*
X12953515Y-15823620D01*
X12953515Y-15823620D02*
X12953515Y-15776001D01*
X12953515Y-15776001D02*
X12963039Y-15737906D01*
X12963039Y-15737906D02*
X12972563Y-15718858D01*
X12972563Y-15718858D02*
X12982086Y-15709335D01*
X12982086Y-15709335D02*
X13001134Y-15699811D01*
X13153515Y-15880763D02*
X13163039Y-15890287D01*
X13163039Y-15890287D02*
X13153515Y-15899811D01*
X13153515Y-15899811D02*
X13143991Y-15890287D01*
X13143991Y-15890287D02*
X13153515Y-15880763D01*
X13153515Y-15880763D02*
X13153515Y-15899811D01*
X13286848Y-15699811D02*
X13305896Y-15699811D01*
X13305896Y-15699811D02*
X13324944Y-15709335D01*
X13324944Y-15709335D02*
X13334467Y-15718858D01*
X13334467Y-15718858D02*
X13343991Y-15737906D01*
X13343991Y-15737906D02*
X13353515Y-15776001D01*
X13353515Y-15776001D02*
X13353515Y-15823620D01*
X13353515Y-15823620D02*
X13343991Y-15861716D01*
X13343991Y-15861716D02*
X13334467Y-15880763D01*
X13334467Y-15880763D02*
X13324944Y-15890287D01*
X13324944Y-15890287D02*
X13305896Y-15899811D01*
X13305896Y-15899811D02*
X13286848Y-15899811D01*
X13286848Y-15899811D02*
X13267801Y-15890287D01*
X13267801Y-15890287D02*
X13258277Y-15880763D01*
X13258277Y-15880763D02*
X13248753Y-15861716D01*
X13248753Y-15861716D02*
X13239229Y-15823620D01*
X13239229Y-15823620D02*
X13239229Y-15776001D01*
X13239229Y-15776001D02*
X13248753Y-15737906D01*
X13248753Y-15737906D02*
X13258277Y-15718858D01*
X13258277Y-15718858D02*
X13267801Y-15709335D01*
X13267801Y-15709335D02*
X13286848Y-15699811D01*
X13448753Y-15899811D02*
X13486848Y-15899811D01*
X13486848Y-15899811D02*
X13505896Y-15890287D01*
X13505896Y-15890287D02*
X13515420Y-15880763D01*
X13515420Y-15880763D02*
X13534467Y-15852192D01*
X13534467Y-15852192D02*
X13543991Y-15814097D01*
X13543991Y-15814097D02*
X13543991Y-15737906D01*
X13543991Y-15737906D02*
X13534467Y-15718858D01*
X13534467Y-15718858D02*
X13524944Y-15709335D01*
X13524944Y-15709335D02*
X13505896Y-15699811D01*
X13505896Y-15699811D02*
X13467801Y-15699811D01*
X13467801Y-15699811D02*
X13448753Y-15709335D01*
X13448753Y-15709335D02*
X13439229Y-15718858D01*
X13439229Y-15718858D02*
X13429706Y-15737906D01*
X13429706Y-15737906D02*
X13429706Y-15785525D01*
X13429706Y-15785525D02*
X13439229Y-15804573D01*
X13439229Y-15804573D02*
X13448753Y-15814097D01*
X13448753Y-15814097D02*
X13467801Y-15823620D01*
X13467801Y-15823620D02*
X13505896Y-15823620D01*
X13505896Y-15823620D02*
X13524944Y-15814097D01*
X13524944Y-15814097D02*
X13534467Y-15804573D01*
X13534467Y-15804573D02*
X13543991Y-15785525D01*
X13658277Y-15785525D02*
X13639229Y-15776001D01*
X13639229Y-15776001D02*
X13629706Y-15766477D01*
X13629706Y-15766477D02*
X13620182Y-15747430D01*
X13620182Y-15747430D02*
X13620182Y-15737906D01*
X13620182Y-15737906D02*
X13629706Y-15718858D01*
X13629706Y-15718858D02*
X13639229Y-15709335D01*
X13639229Y-15709335D02*
X13658277Y-15699811D01*
X13658277Y-15699811D02*
X13696372Y-15699811D01*
X13696372Y-15699811D02*
X13715420Y-15709335D01*
X13715420Y-15709335D02*
X13724944Y-15718858D01*
X13724944Y-15718858D02*
X13734467Y-15737906D01*
X13734467Y-15737906D02*
X13734467Y-15747430D01*
X13734467Y-15747430D02*
X13724944Y-15766477D01*
X13724944Y-15766477D02*
X13715420Y-15776001D01*
X13715420Y-15776001D02*
X13696372Y-15785525D01*
X13696372Y-15785525D02*
X13658277Y-15785525D01*
X13658277Y-15785525D02*
X13639229Y-15795049D01*
X13639229Y-15795049D02*
X13629706Y-15804573D01*
X13629706Y-15804573D02*
X13620182Y-15823620D01*
X13620182Y-15823620D02*
X13620182Y-15861716D01*
X13620182Y-15861716D02*
X13629706Y-15880763D01*
X13629706Y-15880763D02*
X13639229Y-15890287D01*
X13639229Y-15890287D02*
X13658277Y-15899811D01*
X13658277Y-15899811D02*
X13696372Y-15899811D01*
X13696372Y-15899811D02*
X13715420Y-15890287D01*
X13715420Y-15890287D02*
X13724944Y-15880763D01*
X13724944Y-15880763D02*
X13734467Y-15861716D01*
X13734467Y-15861716D02*
X13734467Y-15823620D01*
X13734467Y-15823620D02*
X13724944Y-15804573D01*
X13724944Y-15804573D02*
X13715420Y-15795049D01*
X13715420Y-15795049D02*
X13696372Y-15785525D01*
X13905896Y-15766477D02*
X13905896Y-15899811D01*
X13858277Y-15690287D02*
X13810658Y-15833144D01*
X13810658Y-15833144D02*
X13934467Y-15833144D01*
X14001134Y-15699811D02*
X14001134Y-15737906D01*
X14077325Y-15699811D02*
X14077325Y-15737906D01*
X14372563Y-15976001D02*
X14363039Y-15966477D01*
X14363039Y-15966477D02*
X14343991Y-15937906D01*
X14343991Y-15937906D02*
X14334468Y-15918858D01*
X14334468Y-15918858D02*
X14324944Y-15890287D01*
X14324944Y-15890287D02*
X14315420Y-15842668D01*
X14315420Y-15842668D02*
X14315420Y-15804573D01*
X14315420Y-15804573D02*
X14324944Y-15756954D01*
X14324944Y-15756954D02*
X14334468Y-15728382D01*
X14334468Y-15728382D02*
X14343991Y-15709335D01*
X14343991Y-15709335D02*
X14363039Y-15680763D01*
X14363039Y-15680763D02*
X14372563Y-15671239D01*
X14553515Y-15899811D02*
X14439229Y-15899811D01*
X14496372Y-15899811D02*
X14496372Y-15699811D01*
X14496372Y-15699811D02*
X14477325Y-15728382D01*
X14477325Y-15728382D02*
X14458277Y-15747430D01*
X14458277Y-15747430D02*
X14439229Y-15756954D01*
X14791610Y-15899811D02*
X14791610Y-15699811D01*
X14877325Y-15899811D02*
X14877325Y-15795049D01*
X14877325Y-15795049D02*
X14867801Y-15776001D01*
X14867801Y-15776001D02*
X14848753Y-15766477D01*
X14848753Y-15766477D02*
X14820182Y-15766477D01*
X14820182Y-15766477D02*
X14801134Y-15776001D01*
X14801134Y-15776001D02*
X14791610Y-15785525D01*
X15001134Y-15899811D02*
X14982087Y-15890287D01*
X14982087Y-15890287D02*
X14972563Y-15880763D01*
X14972563Y-15880763D02*
X14963039Y-15861716D01*
X14963039Y-15861716D02*
X14963039Y-15804573D01*
X14963039Y-15804573D02*
X14972563Y-15785525D01*
X14972563Y-15785525D02*
X14982087Y-15776001D01*
X14982087Y-15776001D02*
X15001134Y-15766477D01*
X15001134Y-15766477D02*
X15029706Y-15766477D01*
X15029706Y-15766477D02*
X15048753Y-15776001D01*
X15048753Y-15776001D02*
X15058277Y-15785525D01*
X15058277Y-15785525D02*
X15067801Y-15804573D01*
X15067801Y-15804573D02*
X15067801Y-15861716D01*
X15067801Y-15861716D02*
X15058277Y-15880763D01*
X15058277Y-15880763D02*
X15048753Y-15890287D01*
X15048753Y-15890287D02*
X15029706Y-15899811D01*
X15029706Y-15899811D02*
X15001134Y-15899811D01*
X15182087Y-15899811D02*
X15163039Y-15890287D01*
X15163039Y-15890287D02*
X15153515Y-15871239D01*
X15153515Y-15871239D02*
X15153515Y-15699811D01*
X15334468Y-15890287D02*
X15315420Y-15899811D01*
X15315420Y-15899811D02*
X15277325Y-15899811D01*
X15277325Y-15899811D02*
X15258277Y-15890287D01*
X15258277Y-15890287D02*
X15248753Y-15871239D01*
X15248753Y-15871239D02*
X15248753Y-15795049D01*
X15248753Y-15795049D02*
X15258277Y-15776001D01*
X15258277Y-15776001D02*
X15277325Y-15766477D01*
X15277325Y-15766477D02*
X15315420Y-15766477D01*
X15315420Y-15766477D02*
X15334468Y-15776001D01*
X15334468Y-15776001D02*
X15343991Y-15795049D01*
X15343991Y-15795049D02*
X15343991Y-15814097D01*
X15343991Y-15814097D02*
X15248753Y-15833144D01*
X15410658Y-15976001D02*
X15420182Y-15966477D01*
X15420182Y-15966477D02*
X15439230Y-15937906D01*
X15439230Y-15937906D02*
X15448753Y-15918858D01*
X15448753Y-15918858D02*
X15458277Y-15890287D01*
X15458277Y-15890287D02*
X15467801Y-15842668D01*
X15467801Y-15842668D02*
X15467801Y-15804573D01*
X15467801Y-15804573D02*
X15458277Y-15756954D01*
X15458277Y-15756954D02*
X15448753Y-15728382D01*
X15448753Y-15728382D02*
X15439230Y-15709335D01*
X15439230Y-15709335D02*
X15420182Y-15680763D01*
X15420182Y-15680763D02*
X15410658Y-15671239D01*
M02*
